<?xml version="1.0" standalone="no"?>
<svg viewBox="0 0 200 200" xmlns="http://www.w3.org/2000/svg">
  <path fill="#f2913d" d="M43.6,-72.4C54.4,-69.4,59.4,-53.3,66.9,-39.1C74.4,-24.8,84.3,-12.4,85.8,0.9C87.3,14.1,80.4,28.3,69.5,36.6C58.5,44.9,43.6,47.3,31.4,54C19.1,60.7,9.6,71.6,-2.1,75.2C-13.8,78.9,-27.5,75.2,-40.7,69C-53.9,62.9,-66.4,54.3,-73.9,42.3C-81.3,30.4,-83.6,15.2,-79.2,2.6C-74.8,-10.1,-63.6,-20.2,-55.4,-30.8C-47.2,-41.3,-41.9,-52.3,-33.1,-56.5C-24.4,-60.6,-12.2,-57.8,2.1,-61.5C16.4,-65.2,32.9,-75.3,43.6,-72.4Z" transform="translate(100 100)" />
</svg>
