
<svg version="1.1" xmlns="http://www.w3.org/2000/svg" viewBox="0 0 1280 1024">
	<linearGradient id="SVGID_1_" gradientUnits="userSpaceOnUse" x1="712.7924" y1="218.342" x2="424.6558" y2="585.8025">
		<stop  offset="0" style="stop-color:#E36E8C"/>
		<stop  offset="1" style="stop-color:#83BF2E"/>
	</linearGradient>
	<path style="fill:url(#SVGID_1_);" d="M581.924,150.919c-139.015-15.313-225.984,95.277-219.043,206.755
		c8.804,141.422,90.03,254.404,224.14,206.649c192.964,29.565,238.134-68.839,239.947-211.011
		C828.426,239.122,748.416,148.928,581.924,150.919z"/>
	<path style="fill:#F7C8C9;" d="M779.463,516.797c221.513,31.691,66.267,321.483-35.404,350.097
		c-57.88,9.741-138.871-48.073-178.364-48.572c-41.219,23.132-125.898,74.662-191.862,9.816
		c-73.43-83.402-69.073-287.721,49.213-295.383c56.335,30.412,56.971,18.751,89.287,35.248
		c47.263,24.128,96.156,49.859,133.27-0.641C677.448,567.348,764.54,563.167,779.463,516.797z"/>
	<linearGradient id="SVGID_2_" gradientUnits="userSpaceOnUse" x1="551.0043" y1="757.3731" x2="512.0638" y2="807.034">
		<stop  offset="0" style="stop-color:#F9DEC2"/>
		<stop  offset="0.5169" style="stop-color:#EACEBA"/>
		<stop  offset="1" style="stop-color:#DBAF89"/>
	</linearGradient>
	<path style="fill:url(#SVGID_2_);" d="M572.258,766.853c0,0-18.625-14.109-30.917-11.17c2.078,9.5,10.047,11.17,10.047,11.17
		c-19.886,4.236-33.901-5.393-36.368-8.818c-5.773,8.8,9.031,14.92,10.207,15.837c-14.109,10.911-27.958,20.906-5.014,16.79
		C499.577,823.868,572.552,798.74,572.258,766.853z"/>
	<linearGradient id="SVGID_3_" gradientUnits="userSpaceOnUse" x1="767.4699" y1="750.2148" x2="732.6779" y2="794.5851">
		<stop  offset="0" style="stop-color:#F9DEC2"/>
		<stop  offset="0.5169" style="stop-color:#EACEBA"/>
		<stop  offset="1" style="stop-color:#DBAF89"/>
	</linearGradient>
	<path style="fill:url(#SVGID_3_);" d="M714.38,765.146c-4.881,8.077,56.792-60.131,39.216-15.991
		c23.445-2.35,31.224,6.175,17.53,10.864c22.102,5.544,19.555,14.919,8.898,16.624c-0.038,20.122-6.698,19.516-28.246,8.099
		c-2.019,17.477-5.855,20.141-26.316-11.03C714.38,765.146,714.38,765.146,714.38,765.146z"/>
	<linearGradient id="SVGID_4_" gradientUnits="userSpaceOnUse" x1="603.0549" y1="548.5195" x2="560.7716" y2="602.4433">
		<stop  offset="0" style="stop-color:#F9DEC2"/>
		<stop  offset="0.5169" style="stop-color:#EACEBA"/>
		<stop  offset="1" style="stop-color:#DBAF89"/>
	</linearGradient>
	<path style="fill:url(#SVGID_4_);" d="M531.434,570.207c0,0,52.937,59.862,109.23,0
		C602.774,552.542,556.002,574.179,531.434,570.207z"/>
	<path d="M951.756,599.207c4.91,16.515-2.115,72.929-5.592,85.695c-7.531,34.084-20.655,69.12-29.478,83.756
		c-77.82,129.083-117.43,130.127-252.609,70.444c-50.274-27.194-98.978,36.69-157.862,24.235
		c-116.149-6.592-141.639-160.887-117.802-252.247c16.928-74.214,118.017-62.215,73.669-102.79
		c-20.76-20.006-25.648-51.129-34.319-77.8C380.915,221.04,549.301,106.268,745.423,162.023
		c161.386,34.342,181.772,233.372,109.982,353.803C940.015,530.182,944.838,581.352,951.756,599.207z M434.79,820.801l-0.008-0.006
		c17.597,31.565,69.928,35.698,103.244,32.827c16.722-1.441,97.869-24.026,68.727-49.311c-31.46-27.297-64.067,11.566-92.681,4.825
		c-12.793-3.014,3.419-12.837-2.521-13.962c-22.521-4.068,7.612-16.399,2.261-24.182c-12.532-9.357-7.969-12.969,1.342-19.521
		c-4.074-18.238-10.8-36.966-16.145-56.382c-20.125-30.567,7.32-27.197,10.516,0.425c5.559,19.318,6.495,38.982,14.903,57.273
		c2.867,3.512-3.622-0.455-3.126,2.68c0.288,6.298,21.607,14.943,22.39,7.694c-4.387-1.734-14.39-13.147-5.7-14.822
		c18.269,3.059,28.166,19.353,45.047,7.636c39.306,11.466,83.102,9.536,124.804,2.718c19.425,5.151,46.383-56.784,53.776-16.535
		c34.238,0.501,21.56-60.134,42.473-69.988c11.082,20.662-17.617,57.878-19.62,81.828c-6.143,7.964,17.603,9.859,9.915,22.001
		c-20.194,7.256-6.898,33.015-29.874,19.044c-2.44-0.749-10.946-8.914-10.561-3.636c5.631,34.324-23.932-2.863-29.573-13.746
		c-21.411-12.195-44.682-1.97-68.374-4.864c-13.519-3.445-27.101,4.036-40.961,0.611c-12.467,1.145-27.439-21.767-36.18-4.202
		c-3.789,9.257-9.266,14.589,4.696,14.685c18.841,2.227,30.887,15.719,47.263,22.666c57.301,30.174,157.309,81.555,195.171,53.177
		c53.551-23.099,126.827-159.252,117.129-260.541c-0.194-2.025-0.627-4.059-1.32-5.971c-14.113-38.924-53.844-54.974-94.263-65.684
		c-18.122,9.209-34.08,31.845-58.296,35.3c-120.231,7.916-60.873,42.106-152.597,42.456c-33.343,1.898-44.891-32.242-73.816-37.016
		c-30.573,0.203-57.41-34.501-85.112-23.355C354.561,583.725,395.781,752.485,434.79,820.801z M838.013,522.777
		c52.067-77.403,75.149-217.809-5.873-303.143c-95.533-77.865-251.265-83.208-347.867-8.705
		c-74.927,78.866-75.485,243.573,5.3,317.145c18.747,26.592,190.978,73.09,137.797,13.048c13.249-5.353,16.004,12.343,30.43,19.697
		C716.881,568.548,797.707,576.739,838.013,522.777z M677.613,586.849c55.556-30.582-47.233-13.792-62.107-11.489
		C567.88,579.226,666.195,613.457,677.613,586.849z M773.164,752.334c-16.636-1.505-35.323,16.688-18.522-13.688
		c-10.197-7.429-20.504,27.305-35.177,28.282c11.377,0.148,29.184,37.989,25.284,20.459c-3.801-4.683-0.807-14.407,6.113-9.857
		c4.417,3.451,29.055,19.521,18.584,8.378c-6.591-1.799-20.448-16.27-6.225-16.58c3.246-0.049,13.279,8.798,11.797,2.371
		c-1.428-5.506,8.744,0.9,9.066-4.048C772.466,764.633,749.083,761.09,773.164,752.334z M537.242,787.565
		c3.949,0.741-22.461,13.888-15.881,15.973c8.82,2.795,35.192-11.167,42.332-19.202c-10.238-8.836,14.933-18.52-7.424-23.626
		c-3.453-0.373-7.482-4.001-10.333-3.248c28.727,28.386-26.552,3.751-30.565,6.022c1.618,6.44,25.242,11.885,0.35,22.703
		C520.213,790.663,533.294,786.824,537.242,787.565z M770.312,795.333c0.369,0.324,0.595,0.395,0.816-0.127
		C770.758,794.876,770.532,794.806,770.312,795.333z M519.999,773.553c-0.042,0.072-0.083,0.143-0.125,0.215
		c0.175,0.152,0.272,0.112,0.339-0.101C520.142,773.629,520.07,773.591,519.999,773.553z"/>
	<path d="M434.79,820.801c0.394,0.085,0.786,0.175,1.178,0.271C435.666,821.581,435.173,820.926,434.79,820.801z"/>
	<g>
		<path style="fill:#231815;" d="M551.774,664.331c14.417-10.991,18.619,51.3,35.187,35.091c6.681,0.955-14.472,8.061-16.908,10.995
			c-6.785,0.388,5.082-3.861,5.626-5.454c2.021-2.422-14.273-29.859-16.454-35.066C558.119,658.501,536.876,673.277,551.774,664.331
			z"/>
		<path style="fill:#231815;" d="M628.219,648.937c2.54,7.672-9.901,6.019-4.322,1.234c-0.605-21.857-39.435,3.483-23.939,27.93
			c3.275-42.923,62.447-0.176,20.203,14.446C578.168,699.87,598.073,612.018,628.219,648.937z M619.835,690.917
			c19.391-2.976,15.348-34.297-5.139-29.321C593.841,665.402,599.933,695.764,619.835,690.917z"/>
		<path style="fill:#231815;" d="M651.304,654.834c-0.123,4.601-7.119,4.487-7.077-0.124
			C644.352,650.104,651.339,650.233,651.304,654.834z M650.749,685.894c-0.125,4.6-7.113,4.489-7.077-0.124
			C643.794,681.167,650.789,681.289,650.749,685.894z"/>
		<path style="fill:#231815;" d="M700.626,648.265c10.528,2.157-17.652,12.708-18.159,14.877c57.191,23.873-45.143,48.4-15.59,9.051
			c-14.322,18.077,19.897,31.546,28.566,9.008c4.958-13.025-11.343-16.86-18.02-16.937c0.31-1.899,25.297-12.797,22.242-14.529
			c-14.144-2.13-27.744-13.661-30.639,6.479C664.946,633.816,688.91,646.084,700.626,648.265z"/>
		<path style="fill:#231815;" d="M743.846,698.574c-16.398,30.068-53.409,7.25-33.743-20.908
			C726.619,647.548,763.379,670.507,743.846,698.574z M714.073,708.876c18.996,14.176,47.011-30.647,25.68-41.591
			C721.134,653.167,692.804,698.209,714.073,708.876z"/>
	</g>
	<linearGradient id="SVGID_5_" gradientUnits="userSpaceOnUse" x1="428.5172" y1="362.625" x2="428.5172" y2="362.625">
		<stop  offset="0" style="stop-color:#E36E8C"/>
		<stop  offset="1" style="stop-color:#83BF2E"/>
	</linearGradient>
	<path style="fill:url(#SVGID_5_);" d="M428.517,362.625"/>
</svg>

