<svg xmlns="http://www.w3.org/2000/svg" xmlns:xlink="http://www.w3.org/1999/xlink" width="687.064" height="799.813" viewBox="0 0 687.064 799.813"><defs><clipPath id="a"><rect width="687.064" height="799.813" fill="none"/></clipPath></defs><g transform="translate(0 0)" clip-path="url(#a)"><path d="M310.744,787.369c-2.388,1.411-3.908,2.605-6.731,2.388s-5.428-.543-6.4-3.04-.543-3.8-2.171-2.28a8.034,8.034,0,0,1-4.777,1.628,6.947,6.947,0,0,1-2.931-1.628,1.628,1.628,0,0,0-1.737-.217c-1.846.868-4.234,3.04-5.754,1.954a20.412,20.412,0,0,1-2.605-2.5,1.52,1.52,0,0,0-1.628-.543c-2.28.651-3.474,4.342-6.079,3.8-.651-.109-2.605-1.194-3.365-.868-3.365,1.52-4.668,1.737-5.754-1.737a5.646,5.646,0,0,0-1.3-1.845c-1.954-2.171-3.582-4.017-2.822-6.622a5.645,5.645,0,0,0-.326-4.777,1.628,1.628,0,0,1,.326-2.388c2.5-2.063,3.8-3.908,1.845-6.622s-3.148-2.28-3.582-5.428a121.9,121.9,0,0,1-1.628-14.221c-.109-3.148-4.017-7.056-6.079-9.01s-4.668-8.793-6.079-11.507a78.7,78.7,0,0,1-2.931-9.01c-.326-2.063-1.846-10.313-2.388-12.7-3.691-13.461-10.1-24.968-13.57-28.334l-.651-.76a109.421,109.421,0,0,1-11.4-20.735c-3.04-5.319-6.839-17.912-7.382-21.6a74.673,74.673,0,0,0-1.411-7.708c-.217-.76-.434-2.171-.977-4.56s-2.714-3.8-1.954-5.971c1.628-5.319.543-10.639.434-16.067a48.425,48.425,0,0,0-.543-8.142c-.651-3.257-6.731-26.163-7.382-31.916a18.343,18.343,0,0,0-.434-2.5c-1.3-5.319-1.628-10.639-2.714-14.438a83.27,83.27,0,0,1-1.411-8.685,72.622,72.622,0,0,0-1.845-9.553c-.434-1.52-4.234-10.856-4.994-12.7a84.242,84.242,0,0,1-3.365-13.135c-.651-4.451-1.3-5.754-1.954-10.1a29.853,29.853,0,0,1-.217-4.885c.326-5.971.543-11.941.977-17.8a31.917,31.917,0,0,1,1.628-7.6,5.754,5.754,0,0,0-1.52-6.513c-3.691-3.691-7.273-7.382-10.639-11.4s-5.862-8.25-8.685-12.159a33.646,33.646,0,0,1-2.823-4.451c-1.3-2.5-2.605-4.885-3.691-7.491-2.605-5.862-5.211-11.833-7.708-17.8a113.654,113.654,0,0,1-4.125-12.7c-1.737-6.948-3.257-14-4.777-20.952a16.718,16.718,0,0,1-.326-3.365c.109-1.52.434-2.171-.651-4.017-.76,4.451-3.257,7.49-5.1,10.856s-3.257,3.148-5.1,4.342-3.04-.543-3.8-2.28l-1.194-2.714-.543-.326c-1.52.217-1.954,1.194-2.171,2.605a60.033,60.033,0,0,1-4.994,16.392,59.708,59.708,0,0,1-7.273,10.856c-3.148,3.908-6.3,7.816-9.336,11.724s-4.777,6.839-4.559,11.181a14.872,14.872,0,0,0,.977,4.777c1.3,3.257,2.823,6.3,4.342,9.445a9.88,9.88,0,0,0,2.063,2.5c4.017,3.908,8.25,7.708,12.158,11.833a19.975,19.975,0,0,1,4.559,10.1,41.356,41.356,0,0,0,1.3,5.319,7.708,7.708,0,0,0,3.908,4.668c3.8,1.846,7.6,3.474,12.05,3.148s4.885,1.411,4.777,4.885a8.576,8.576,0,0,1-4.994,7.6c-4.017,2.063-8.359,2.388-12.81,2.388a26.814,26.814,0,0,1-5.1-.543c-3.474-.651-5.754-3.257-7.708-5.862a67.741,67.741,0,0,1-5.319-8.359c-3.582-6.3-9.01-9.227-16.067-9.336-3.04-.109-5.971,2.605-6.622,5.645a15.85,15.85,0,0,1-4.234,8.033l-.217.326c-3.365,5.862-9.01,5.862-14.655,5.971h-2.5c-3.257-.109-4.451-1.194-4.885-4.559a3.365,3.365,0,0,0-.326-.651c-1.845.868-2.931,2.605-4.125,4.125a32.135,32.135,0,0,0-2.388,4.017c-.543,1.086-1.194,1.846-2.5,1.628a1.845,1.845,0,0,0-2.171,1.3l-2.171,4.125a8.142,8.142,0,0,0-.868,5.536c.76,3.908.977,7.708-1.52,11.29-.651.977-.543,2.605-.651,4.017a7.6,7.6,0,0,1-7.056,7.816,23.124,23.124,0,0,1-4.668-.109,3.04,3.04,0,0,1-2.063-1.086c-1.3-2.171-2.931-4.125-3.582-6.731-1.411-5.428-2.171-11.073-5.319-15.958a8.034,8.034,0,0,1-.868-3.474c-.109-1.411-.109-2.931-.109-4.342a15.524,15.524,0,0,1,2.605-9.336,4.342,4.342,0,0,0,.76-1.954c.217-5.319,2.063-10.2,3.8-15.09a7.816,7.816,0,0,0,.543-3.474c-.868-6.622,1.086-12.267,5.428-17.369-1.52-1.52-.326-2.823.434-4.342,2.063-3.908,4.234-7.816,5.971-11.941.977-2.28.977-4.994,1.411-7.49a2.5,2.5,0,0,0,0-1.3c-1.52-3.148-.76-6.622-1.628-9.77a22.47,22.47,0,0,0-2.714-6.188,20.736,20.736,0,0,1-3.04-5.754c-.868-2.823-2.28-5.536-3.148-8.468a21.277,21.277,0,0,1-.651-5.319c-.109-2.063.109-4.125.109-6.3-.109-5.645,2.171-10.639,4.559-15.632.434-.868.76-1.846,1.194-2.714s1.954-4.777,4.017-6.4a5.972,5.972,0,0,0,.868-1.3c2.605-3.8,4.451-8.142,7.816-11.507a9.879,9.879,0,0,0,1.3-2.063c1.845-3.257,4.668-5.754,7.273-8.467s6.948-7.491,10.313-11.29a42.339,42.339,0,0,1,7.491-7.165c2.388-1.628,4.559-3.582,6.948-5.319l6.3-4.777c2.605-1.846,4.885-3.908,5.754-7.382a8.033,8.033,0,0,0-3.04-8.467l-1.52-.977a9.661,9.661,0,0,1,2.5-5.211c2.171-2.28,4.451-4.234,7.708-4.994a12.484,12.484,0,0,0,7.6-4.559c1.3-1.737,2.931-3.257,4.234-4.994a25.837,25.837,0,0,1,7.816-6.731,23.447,23.447,0,0,1,3.8-1.3,7.923,7.923,0,0,0,1.954-.868c2.5-1.737,5.536-3.257,7.273-5.536s4.451-4.451,5.862-7.382a47.763,47.763,0,0,1,2.823-5.1c2.388-3.582,4.777-7.708,8.142-10.747a65.349,65.349,0,0,1,7.708-5.645c1.52-1.086,3.365-1.737,4.777-3.04a12.593,12.593,0,0,0,2.5-3.8,87.171,87.171,0,0,1,11.29-17.695c.76-.868,1.3-1.954,2.063-2.931l7.165-8.576a8.357,8.357,0,0,0,1.086-1.194c2.605-4.777,7.056-8.033,10.1-12.484a8.683,8.683,0,0,1,1.628-1.411l4.994-4.234,5.319-4.234c3.582-2.714,7.056-5.536,10.639-8.033s8.25-4.994,12.159-7.708,11.181-6.188,16.5-9.662,10.964-5.428,16.175-8.685,8.25-4.125,12.376-6.188a2.822,2.822,0,0,0,1.194-.977,54.06,54.06,0,0,0,3.04-6.079,5.753,5.753,0,0,0,0-3.148c-.868-3.582-1.845-7.273-2.605-10.856s.434-8.9,2.171-13.027a27.249,27.249,0,0,1,4.994-8.033c1.628-1.845,2.605-4.342,3.908-6.513s1.628-3.365,2.931-4.559,3.148-5.211,3.148-8.142a14.113,14.113,0,0,1,5.536-11.942,30.614,30.614,0,0,1,4.885-3.257c1.737-.868,3.691-1.411,5.536-2.171a17.586,17.586,0,0,0,2.063-1.194,7.056,7.056,0,0,1,1.846-1.086,6.839,6.839,0,0,0,4.668-3.8,17.587,17.587,0,0,1,9.119-8.468c2.063-.868,3.8-2.5,5.754-3.474a14.113,14.113,0,0,1,3.582-1.194c2.714-.651,5.536-.977,8.25-1.737a14.983,14.983,0,0,0,3.8-1.954c.977-.651,1.845-1.411,2.823-2.171s4.451-1.411,6.839-.868c.434.109.651.977,1.086,1.411l-.76.434c-3.691-1.3-5.754.651-7.816,4.234a20.3,20.3,0,0,0-1.846,5.645,10.856,10.856,0,0,1-3.365,6.079,20.843,20.843,0,0,0-5.428,7.49,25.4,25.4,0,0,0-1.411,5.754,16.935,16.935,0,0,1-2.823,6.731c-2.714,3.8-4.017,8.685-6.622,12.05a4.017,4.017,0,0,0-.868,3.04c.109.543-.326.868-.434,1.3s2.063,6.948,3.691,7.816c3.582,2.063,6.3,4.885,7.056,9.119a10.964,10.964,0,0,0,4.559,7.491,3.908,3.908,0,0,1,1.52,3.908c-.434,3.257.977,5.862,2.388,8.576a4.451,4.451,0,0,0,4.559,2.171,13.244,13.244,0,0,1,6.513,1.3c2.063.977,4.451.868,6.731,1.194l13.461,1.954,2.931.651,2.714,1.086h0l-22.363-3.691a53.955,53.955,0,0,0-7.816-.868c-4.125,0-8.033-1.194-12.05-.977l-12.05.543a12.59,12.59,0,0,0-2.823.868l-1.737.651-19.323,3.8-2.605.76c-4.994,2.171-10.53,1.954-15.524,4.017a13.135,13.135,0,0,1-4.451.868c-.76,0-1.737.76-2.5.543-3.8-1.194-6.948.868-10.1,2.28-6.079,2.823-12.05,6.079-18.021,9.336-2.822,1.52-5.428,3.365-8.142,4.885-1.086.651-2.388.868-3.474,1.52l-12.267,7.273c-5.211,3.257-10.53,6.513-15.524,10.1a99.877,99.877,0,0,0-8.468,7.273c-2.28,1.954-4.342,4.234-6.622,6.079-5.428,4.234-9.553,9.662-13.787,14.981L170.7,181.94a37.674,37.674,0,0,0-3.582,4.125c-3.8,6.079-8.25,11.833-11.29,18.346a59.053,59.053,0,0,0-2.605,7.165,3.365,3.365,0,0,1-2.605,2.5c-5.536,1.411-9.662,4.668-13.353,8.9a78.055,78.055,0,0,0-9.77,14.764,34.847,34.847,0,0,1-5.971,8.033c-1.628,1.628-4.017,2.5-6.079,3.474s-3.257,1.086-4.777,1.845A27.789,27.789,0,0,0,106,253.914a32.459,32.459,0,0,0-6.3,6.731A19.975,19.975,0,0,1,88.2,268.461c-3.148.868-5.645,2.823-7.925,5.862h1.846a7.816,7.816,0,0,1,7.925,5.645c.76,2.388,1.737,4.777,2.5,7.165a25.619,25.619,0,0,1,.977,4.017,18.455,18.455,0,0,0,3.04,7.273,13.677,13.677,0,0,0,3.257,3.148,12.92,12.92,0,0,1,3.474,3.691,59.445,59.445,0,0,0,3.8,5.319,17.479,17.479,0,0,1,2.388,4.017c1.411,4.342,3.148,8.576,3.148,13.244a21.386,21.386,0,0,0,2.823,10.53,103.783,103.783,0,0,0,7.491,11.4,7.816,7.816,0,0,1,.977,2.5,35.038,35.038,0,0,1,.868,3.582A39.187,39.187,0,0,0,127.5,351.4c1.3-2.931,2.28-5.971,3.474-9.01a47.269,47.269,0,0,0,1.737-5.1,23.122,23.122,0,0,0,1.086-4.777,5.111,5.111,0,0,1,3.474-4.559,18.563,18.563,0,0,0,7.708-6.3l5.428-8.467a1.194,1.194,0,0,1,1.086-.434c.326.109.76.76.651.977a19.43,19.43,0,0,1-1.52,3.8,32.133,32.133,0,0,1-8.359,9.662c-1.3.977-2.063,2.714-4.017,3.148s-1.086,1.194-1.3,1.954c-1.086,3.8-1.954,7.6-3.148,11.29s-1.52,6.4,0,9.77,1.194,6.079,1.845,9.119c1.194,5.319,2.171,10.747,3.582,15.958s1.845,6.731,3.148,11.073c2.388,7.6,6.731,16.609,10.1,23.774a77.946,77.946,0,0,0,12.7,19.323c4.125,4.559,7.925,9.553,12.484,13.787l1.954,1.845,10.422,8.793c.109.109.109.326.217.651s-1.3,0-1.954-.543l-6.079-4.559a2.28,2.28,0,0,0-3.474,1.194,15.093,15.093,0,0,0-.434,1.954c-.651,4.234-1.3,8.468-1.628,12.7a79.461,79.461,0,0,0-.434,11.833c.109,2.605,1.411,6.3,1.954,8.9.868,4.342,1.52,8.359,2.605,12.7a17.583,17.583,0,0,0,.977,2.931c.977,2.171,3.582,9.01,4.777,10.964a53.95,53.95,0,0,1,2.714,8.685c.651,2.28,2.605,15.307,2.605,16.935s5.211,25.945,7.382,32.025c1.52,4.234,1.628,7.056,2.605,13.244.217,1.086,0,2.171.109,3.257a45.48,45.48,0,0,1,.543,6.3c.109,4.234,1.411,12.484,2.714,12.7a16.724,16.724,0,0,1,2.714.217l15.307,5.428,7.816,2.714c1.845-2.714,1.954-2.822,4.885-2.388s7.6,1.194,11.29,1.846l1.086.434c2.822,1.954,6.188,2.28,9.553,2.822a3.473,3.473,0,0,0,2.171-.109,7.165,7.165,0,0,1,4.994-.651c2.931.434,5.536-.651,8.25-1.411s7.382-1.954,11.29-.977a1.737,1.737,0,0,0,2.171-1.737,41.139,41.139,0,0,0-.651-7.382,119.736,119.736,0,0,0-3.8-15.632,8.467,8.467,0,0,1,.434-7.382,3.691,3.691,0,0,0,.543-2.063c-.543-3.148.76-5.862,1.845-8.685s2.388-6.839,3.474-10.313a14,14,0,0,1,3.04-5.971c1.3-1.3,2.171-3.148,3.474-4.559a27.459,27.459,0,0,1,4.125-3.148,24.421,24.421,0,0,0,3.148-2.063c2.388-2.388,4.668-4.885,6.948-7.273s2.28-2.823,3.691-4.017a37.018,37.018,0,0,0,7.273-9.445,13.569,13.569,0,0,1,3.8-4.559,7.7,7.7,0,0,0,2.063-1.846c2.28-3.365,5.862-4.125,9.336-5.319l11.29-3.908,7.816-2.388c1.411-.434,2.605-1.194,4.017-1.52a8.033,8.033,0,0,1,3.474-.326c3.8.76,6.948-.543,10.2-2.171a3.691,3.691,0,0,0,1.954-4.451,75.551,75.551,0,0,1-3.257-15.09,48.852,48.852,0,0,1,1.3-16.284,115.286,115.286,0,0,0,3.257-20.843c.326-6.188.217-12.376-1.52-18.455l-.217-.434c-1.628-2.823-3.148-5.645-4.994-8.359a11.507,11.507,0,0,1-1.954-5.971,58.07,58.07,0,0,1,.434-11.4,46.137,46.137,0,0,1,5.754-17.261,100.957,100.957,0,0,1,6.622-9.987c2.388-3.257,5.862-5.428,9.336-7.491a49.937,49.937,0,0,1,5.971-2.931,8.575,8.575,0,0,1,2.823-.434,47.109,47.109,0,0,1,11.073.977c2.388.434,4.994-.109,7.273.434a20.732,20.732,0,0,1,6.4,2.822c2.931,1.846,5.428,4.234,8.9,4.994a1.954,1.954,0,0,1,.868.651l4.017,4.125a1.954,1.954,0,0,1,.217,1.737,31.921,31.921,0,0,1-3.148-2.28,44.618,44.618,0,0,0-25.945-11.616c-2.931-.326-5.971-.434-9.01-.543a9.228,9.228,0,0,0-7.816,3.148c-.326.326-.651.76-1.086.868-2.063.326-3.257,1.954-4.668,3.148-4.451,3.474-7.6,8.142-10.313,12.918s-5.211,10.964-5.211,17.152c0,3.148-1.411,6.079-.543,9.227s1.52,6.731,3.691,9.553a44.06,44.06,0,0,1,2.388,4.125c0-1.845.109-3.474,0-5.1a21.5,21.5,0,0,1,2.5-11.4,43.857,43.857,0,0,1,6.3-8.793,37.777,37.777,0,0,1,11.941-8.576c4.125-2.063,8.468-2.063,12.81-1.737,8.468.543,16.175,3.257,23.666,7.165,1.086.543,2.388.977,3.474,1.628a21.281,21.281,0,0,1,4.668,3.257,13.9,13.9,0,0,0,5.645,3.474c.217-2.063-1.846-2.822-1.954-4.451h1.086c.543-3.908-2.063-7.165-2.388-11.181A2.605,2.605,0,0,1,444.6,393.3c1.52,4.125,2.823,8.25,4.451,12.267a62.2,62.2,0,0,1,4.017,21.06,27.357,27.357,0,0,0,5.211,14.981l.326.326,7.382,7.273,1.845-1.194c1.194-.977,2.388-2.063,3.582-2.931a34.956,34.956,0,0,0,4.559-4.559c5.1-5.211,9.553-10.964,14.113-16.609,1.954-2.388,3.365-5.1,5.1-7.6s5.211-8.359,7.816-12.484c1.52-2.388,2.605-5.211,3.908-7.816a13.465,13.465,0,0,1,1.411-1.845h.108c-1.086,2.605-2.171,5.211-3.257,7.708s-2.931,6.839-4.777,10.1-4.234,7.6-7.6,10.639a40.809,40.809,0,0,0-3.691,4.668c-3.8,4.668-7.6,9.553-11.616,14.112s-6.622,6.514-10.1,9.879a9.985,9.985,0,0,0,.977,2.714,17.912,17.912,0,0,1,2.605,6.3c1.194,4.451,2.28,8.9,3.474,13.353a5.1,5.1,0,0,1,.109,1.194c.109,5.754.109,11.507.109,17.261,0,4.017,0,8.033-.217,12.05a80.237,80.237,0,0,1-.76,8.685c-.326,1.954-1.3,3.8-1.52,5.754-.434,4.451-1.628,8.793-1.954,13.136-.434,6.4-1.954,12.593-3.148,18.78a63.945,63.945,0,0,1-2.714,8.576l-3.8,11.073a22.024,22.024,0,0,0-.651,2.605c-1.086,5.319-2.388,10.53-3.148,15.849a36.584,36.584,0,0,0,.217,13.57,19.755,19.755,0,0,0,2.28,5.971,4.342,4.342,0,0,1,.217,1.411,7.7,7.7,0,0,0-1.737.76,2.413,2.413,0,0,0-.977,1.411c0,.434.651.977,1.086,1.3s.543.109.76.217c4.125,1.411,5.319,4.994,2.823,8.685a9.336,9.336,0,0,1-1.194,1.411c-2.5,2.5-2.388,5.319-.868,8.25s1.845,3.691,2.931,5.537c2.605,4.668,1.954,9.77.76,14.872v.326a15.415,15.415,0,0,1-1.845,4.451c-2.605,3.582-3.148,7.708-3.04,11.941.109,6.3.326,12.593.434,18.889a54.932,54.932,0,0,1-.543,8.359,44.508,44.508,0,0,1-1.846,8.25,98.842,98.842,0,0,1-4.234,9.119c-1.411,3.04-5.1,4.668-8.359,6.079-.543.217-1.086.217-1.52.434-4.125,2.28-7.6.543-10.856-1.954a21.82,21.82,0,0,1-5.536-7.056c-2.28-4.234-2.931-8.9-4.342-13.461a12.484,12.484,0,0,0-2.388-5.1c-2.5-2.605-3.474-5.753-4.56-8.9-.543-1.411-.868-2.931-1.3-4.451-1.194-3.8.217-7.382.326-11.073s.543-4.994.76-7.49a19.541,19.541,0,0,0-4.668-14.438c-2.171-2.605-4.342-5.319-6.3-8.033-4.777-6.622-7.165-13.9-5.862-22.037a26.38,26.38,0,0,1,1.737-6.3,20.409,20.409,0,0,0,1.3-6.948,4.234,4.234,0,0,0-.326-2.171c-2.28-4.451-1.954-9.228-1.737-13.9a7.491,7.491,0,0,1,2.171-4.234,4.559,4.559,0,0,0,1.3-3.582c0-3.257-1.52-6.188-2.063-9.336-.217-1.086-.543-2.063-.76-3.148-.977-6.3-1.954-12.593-3.148-18.889a41.471,41.471,0,0,0-2.5-7.165c-1.194-2.931-2.28-5.971-3.691-8.685s-3.691-5.862-5.211-8.9c-2.388-4.777-4.668-9.662-6.948-14.547l-1.3-2.605-1.52,1.628a8.749,8.749,0,0,1-6.839,3.365,30.714,30.714,0,0,0-5.428.76h-1.086c-3.474-.868-6.731.434-9.987.977a14.327,14.327,0,0,0-3.365,1.628,4.558,4.558,0,0,1-1.737.651c-2.823,0-5.319,1.194-7.816,2.171a17.907,17.907,0,0,1-4.342,1.411,7.273,7.273,0,0,0-4.342,2.063l-6.188,5.754a3.689,3.689,0,0,0-1.086,1.3c-1.194,3.582-4.017,6.3-5.862,9.445a37.887,37.887,0,0,1-9.119,10.2l-2.5,1.845L298.26,553.1c-2.823,1.846-3.8,4.885-4.994,7.708s-2.714,6.948-4.017,10.313a3.366,3.366,0,0,1-.543,1.194c-1.846,1.737-1.954,4.017-1.52,6.079s-.543,6.622-1.737,9.77c-.434,1.194-.868,2.171-.217,3.582s.434,2.5.651,3.691c1.194,4.885,2.714,9.662,3.474,14.547a65.463,65.463,0,0,1,.434,10.53,3.366,3.366,0,0,1-.76,2.063c-1.628,1.628-1.411,3.582-1.194,5.645s-3.365,46.9-4.017,48.634a37.887,37.887,0,0,0-2.5,10.964,10.965,10.965,0,0,0,.868,5.1c1.52,3.582,3.148,7.165,4.451,10.856,2.714,7.708,5.754,12.593,7.056,22.689.434,5.536,3.365,6.188,1.411,10.856-3.365,8.033,6.4,11.724,8.142,14.547,3.474,4.125,4.451,6.513,4.668,10.856.109,2.28-.868,5.862-.76,8.142s4.777,10.747,4.777,12.159M453.5,612.916c1.628-1.086,1.737-1.086,1.628-1.737a34.531,34.531,0,0,0-.217-4.668,55.547,55.547,0,0,1-.109-19.866c1.846-8.576,2.605-17.478,6.188-25.728,1.954-4.342,3.04-9.119,4.451-13.787s2.171-11.616,2.931-17.478a3.041,3.041,0,0,0,0-1.086c-.543-2.28.326-4.342.977-6.4a24.762,24.762,0,0,0,.868-2.605c.868-4.559,1.737-9.119,2.28-13.678a72.514,72.514,0,0,0,0-7.6c.109-5.971.326-12.05.326-18.021a40.166,40.166,0,0,0-.76-8.467c-1.086-4.777-2.5-9.553-3.8-14.221a7.269,7.269,0,0,0-.76-1.411c-.76-1.411-1.628-2.823-2.28-4.342a12.376,12.376,0,0,0-4.994-5.319l2.063,11.941a1.52,1.52,0,0,1-.977-1.086,69.692,69.692,0,0,0-5.862-14.872,34.629,34.629,0,0,1-2.823-7.056,41.578,41.578,0,0,1-1.194-10.747,26.054,26.054,0,0,0-1.52-7.49,49.711,49.711,0,0,0-2.171-4.994,8.141,8.141,0,0,0-4.234-4.451c-2.28-1.086-4.559-2.28-6.731-3.582a5.211,5.211,0,0,1-1.954-1.846,5.862,5.862,0,0,0-3.148-2.5l-8.576-3.474a47.767,47.767,0,0,0-16.5-3.474,20.735,20.735,0,0,0-7.273.651,55.374,55.374,0,0,0-8.685,4.668,13.464,13.464,0,0,0-2.171,1.954l1.954,1.086c-4.451.109-6.622,2.605-8.033,5.862-.326.76-.868,1.411-1.194,2.171-1.086,2.605-3.257,4.559-3.691,7.49s-.543,2.823-.76,4.342a10.965,10.965,0,0,0,1.628,7.816,17.588,17.588,0,0,1,2.063,4.451,25.178,25.178,0,0,0,1.628,3.691,48.527,48.527,0,0,1,6.3,17.912c.326,2.063.434,4.125.651,6.188h-.543a31.078,31.078,0,0,1-.76-3.04,44.4,44.4,0,0,0-3.365-11.724,2.389,2.389,0,0,1-.434-1.194c.217-1.194-.543-2.063-.977-3.04-1.411-2.714-3.908-4.777-4.885-7.708H377.4c0,5.428.326,10.747-.109,16.067s1.086,7.816-.868,11.616c-.217.326.326.977.434,1.52s.434,3.257-1.086,4.559L374.9,466.8a57.21,57.21,0,0,0-1.954,16.392c.543,10.1,4.125,19.323,8.142,28.442a82.837,82.837,0,0,0,7.056,13.461c3.582,5.211,4.451,11.616,7.925,16.935a1.629,1.629,0,0,1,.217.543c1.3,5.645,2.931,11.29,3.8,17.044.543,3.908,1.194,7.708,2.063,11.507l1.954,8.685,3.04-.434c2.388-.326,4.885-.217,6.513,1.411s6.4,5.319,8.142,9.227a9.01,9.01,0,0,1,10.747,3.04,5.21,5.21,0,0,0,3.474,2.28,26.917,26.917,0,0,1,6.188,2.605,2.931,2.931,0,0,1,1.52,1.846c.326,2.388,1.628,3.039,3.908,3.148a6.156,6.156,0,0,1,5.536,5.319c.217,1.3.434,2.605.76,4.342M27.082,502.838a17.151,17.151,0,0,1,1.954-2.171c2.823-2.171,3.257-4.017,1.845-7.273a46.027,46.027,0,0,1-2.605-6.3,7.816,7.816,0,0,0-2.5-4.017,7.491,7.491,0,0,1-2.714-4.668c-.543-4.559-.109-8.793,3.04-12.593a64.049,64.049,0,0,0,7.165-10.639,57.534,57.534,0,0,0,3.474-9.445c1.411-4.234,3.8-7.491,7.925-9.227a5.753,5.753,0,0,1,2.605-.217,1.194,1.194,0,0,1,1.194,1.52,1.238,1.238,0,0,1-1.52,1.194c-2.605-.434-4.234,1.086-5.319,3.04a74.8,74.8,0,0,0-3.04,6.948c-1.737,4.017-3.04,8.25-5.428,11.941a94.993,94.993,0,0,0-6.3,11.181,8.467,8.467,0,0,0-.651,6.079,4.668,4.668,0,0,0,5.1,3.474c3.691-.326,6.079-2.5,8.142-5.319a5.97,5.97,0,0,0,.868-2.5,29.093,29.093,0,0,0,.217-3.582c.109-2.063.217-2.171,2.28-2.5s3.8-1.737,3.691-3.365-.543-3.691-.868-5.645c1.411-1.194,1.845-1.194,3.04.543a1.954,1.954,0,0,0,2.931.651c2.605-1.628,4.994-3.691,5.971-6.622a39.949,39.949,0,0,0,1.52-9.879c.217-3.257,2.063-6.3,5.319-7.056a52.656,52.656,0,0,1,6.513-.868c.326,0,.76.326,1.628.868a14.225,14.225,0,0,1-2.388,1.194,13.025,13.025,0,0,1-2.171.109c-3.148.217-4.451,1.194-5.211,4.234a21.5,21.5,0,0,0-.76,5.428,21.386,21.386,0,0,1-2.714,9.662c-1.628,3.257-3.474,6.4-5.1,9.662s-2.5,4.451-2.28,7.382a15.748,15.748,0,0,0,2.388,0c1.954-.326,3.8-.76,5.1-2.388,4.777-.217,7.056-3.582,9.662-6.948s3.474-4.56,3.365-7.491,2.171-7.056,4.994-9.553a1.954,1.954,0,0,1,2.931-.109c-2.388,2.605-5.536,4.994-4.451,9.336a26.273,26.273,0,0,1,4.125-1.52,16.392,16.392,0,0,1,13.678,3.691c3.04,2.5,5.1,6.079,7.49,9.336s1.845,3.8,3.148,5.428,4.125,4.668,7.6,4.885a39.3,39.3,0,0,0,14.113-1.194,5.1,5.1,0,0,0,3.474-3.908,15.7,15.7,0,0,0,.543-3.257,4.668,4.668,0,0,0-3.365-1.411,30.94,30.94,0,0,1-11.724-3.474,6.3,6.3,0,0,1-3.148-3.257l-2.5-6.622a46.462,46.462,0,0,1-1.628-4.668,14.764,14.764,0,0,0-4.125-7.273L92,432.492a5.754,5.754,0,0,1-1.194-1.52l-4.451-9.336c-2.5-5.319-1.954-10.422.868-15.415a20.952,20.952,0,0,1,4.559-6.079,21.485,21.485,0,0,0,1.52-1.628c4.451-4.559,6.731-10.856,11.4-15.307a3.908,3.908,0,0,0,.76-1.411c1.411-3.8,2.931-7.708,4.234-11.507a9.228,9.228,0,0,0,.217-4.994c-3.474,2.063-6.948,3.582-10.856,3.365a5.645,5.645,0,0,1,1.954-1.737c1.411-.76,2.823-1.194,4.125-1.954s5.428-4.125,8.359-5.971a23.883,23.883,0,0,0,4.234-4.234,6.731,6.731,0,0,0,.543-7.925c-1.3-2.171-2.823-4.234-4.342-6.3a24.208,24.208,0,0,1-3.908-11.507c-.217-1.954.326-4.125-.217-5.971A39.732,39.732,0,0,0,99.49,304.177c-1.086-1.086-2.063-1.954-3.691-1.628s-.109-.868-.326-1.086c-3.365-3.8-4.017-8.685-5.428-13.244-.434-1.411-1.086-2.714-1.845-4.559l-1.411,2.171a26.377,26.377,0,0,1-2.822,3.691,166.316,166.316,0,0,1-15.632,12.7,71.43,71.43,0,0,0-12.267,11.29c-2.5,2.931-5.319,5.754-7.925,8.685s-6.622,5.319-7.925,9.553c-.109.434-.543.76-.868,1.086l-7.056,9.01c-1.086,1.3-1.52,2.605-.651,3.582-1.52,2.171-2.931,3.908-4.017,5.862-2.931,4.994-4.559,10.53-6.4,15.958A6.948,6.948,0,0,0,21,369.42c0,1.411.109,2.931.109,4.342s-.326,4.451,2.388,5.754c-2.063,1.3-1.628,2.931-1.194,4.559,1.086,4.777,3.8,8.793,5.971,13.027a69.477,69.477,0,0,1,3.474,6.188,16.935,16.935,0,0,1,.977,9.119c-.434,2.931-.868,5.971-1.52,8.9s-.651,4.342-2.714,5.754a.868.868,0,0,0-.326.76c.434,1.411-.543,2.171-1.194,3.148s-2.823,5.1-4.125,7.708a14.547,14.547,0,0,0-.651,2.388,9.228,9.228,0,0,1-.76,2.28,18.02,18.02,0,0,0-2.388,9.987,26.488,26.488,0,0,1-1.845,9.01,37.344,37.344,0,0,0-1.845,7.382c-.434,3.257-.217,6.622-.868,9.77s.868,6.4,1.3,9.662a2.171,2.171,0,0,0,.543.977,39.081,39.081,0,0,1,6.622,10.313,3.582,3.582,0,0,0,4.017,2.5M205.226,611.287l-.434.651c-.109.326-.109.76-.217,1.086-1.086,5.319-.109,10.53,1.194,15.632s1.954,9.119,3.8,14.438c3.365,7.273,3.582,6.731,5.428,10.856s7.816,13.678,12.267,20.409a59.49,59.49,0,0,1,5.754,11.4c1.628,4.342,5.1,12.267,5.645,16.5a62.859,62.859,0,0,0,1.628,9.119c2.171,7.165,4.668,14.547,8.9,21.06a23.553,23.553,0,0,0,1.737,2.171c1.3,1.411,1.52.977,2.28.76a6.4,6.4,0,0,0,1.628-.868c1.52-1.194,3.365-1.52,5.1-2.28a1.52,1.52,0,0,1,2.28,1.086.651.651,0,0,1-.326.868L256.356,737a2.714,2.714,0,0,0-1.845,3.04q.76,6.4,1.628,12.7c.543,4.56,3.908,7.708,6.188,11.29.326.543,1.194.651,1.954,1.086a9.228,9.228,0,0,1,6.513-2.714,3.8,3.8,0,0,0,1.954-.76L280.131,756l1.628-.977c.217,1.954,1.628,1.628,3.365,1.737l-2.714,1.954a49.6,49.6,0,0,0-4.125,3.148,3.365,3.365,0,0,0-1.086,2.28c-.109,2.5,0,4.885-.109,7.382a6.406,6.406,0,0,0,1.628,4.668,2.279,2.279,0,0,0,1.954.651c2.388-.543,3.04-1.954,2.388-4.451s-1.411-6.731,1.086-9.77,3.257-2.171,5.1-.651,4.234,6.948,5.1,10.964c.217.76-.217,1.411-1.411,1.3a14.981,14.981,0,0,1-2.171-5.1c-.109-.543-.109-1.194-.434-1.52a2.93,2.93,0,0,0-1.737-.869c-.326,0-.977.977-.868,1.411a38.106,38.106,0,0,0,1.411,6.079,3.027,3.027,0,0,0,2.063,1.194c.76.109,3.582.326,5.1.434,1.086-2.171,1.628-4.451,3.148-5.645a7.274,7.274,0,0,1,3.582-1.085,4.017,4.017,0,0,0,3.474-4.017,17.587,17.587,0,0,0-2.28-8.359,25.294,25.294,0,0,0-6.839-7.708,10.1,10.1,0,0,1-4.559-7.6c-.217-2.606,1.628-4.777.543-7.056s-1.194-11.724-7.925-10.53c-.217-.108-2.171.109-2.28-.108s-.651-1.411-.434-1.954,1.086-.651,1.737-.76h.217a4.994,4.994,0,0,0,4.342-6.513,143.616,143.616,0,0,0-5.645-14.221,1.628,1.628,0,0,0-3.04.651c0,2.5,0,4.885-.434,5.645s-.76-.977-.977-1.3c-.76-21.06,1.845-24.968,3.365-30.613s4.234-32.893,3.691-39.949-.434-8.359-1.52-12.593a3.691,3.691,0,0,0-4.017-3.04,30.28,30.28,0,0,0-6.513,1.411,24.317,24.317,0,0,1-8.576,1.411,10.857,10.857,0,0,0-3.8.434,10.1,10.1,0,0,1-6.188-.109,54.811,54.811,0,0,0-8.685-2.063c-3.691-.543-7.382-.977-11.181-.217a11.071,11.071,0,0,1-5.971-.434c-6.3-2.171-12.376-4.777-18.563-7.056-1.737-.651-3.582-1.52-5.645-1.194m219.179-2.822-.651.217c-1.954-1.845-3.8-3.691-3.908-6.839s-.109-5.319-.434-7.925a8.793,8.793,0,0,0-1.194-3.474c-1.3-2.171-2.931-4.125-4.234-6.3a5.753,5.753,0,0,0-4.017-2.931c-4.234-.868-9.01,2.28-9.553,6.513s-.326,7.49,1.52,11.181a10.53,10.53,0,0,1-.326,10.856c-1.086,1.737-1.411,4.125-1.845,6.188s0,2.931-.217,4.342a15.741,15.741,0,0,0,1.52,9.336,99.117,99.117,0,0,0,6.948,11.724c2.714,4.017,5.754,7.6,7.165,12.376a23.882,23.882,0,0,1,.651,11.833,31.7,31.7,0,0,0-.217,14.33c.76,3.257,1.411,6.514,3.908,9.119a16.935,16.935,0,0,1,2.931,5.754c1.737,4.994,2.28,10.422,4.885,15.307a15.2,15.2,0,0,0,9.01,7.816c1.628.543,3.365.76,4.885-.651a1.737,1.737,0,0,1,1.194-.543c2.931.326,4.342-1.846,6.079-3.691,4.668-4.994,5.862-11.507,6.731-17.912s.76-12.7.977-19.106a36.706,36.706,0,0,0,0-4.125c-.434-5.971.217-11.616,3.257-16.935a20.084,20.084,0,0,0,1.954-5.971c1.3-6.188-1.3-11.4-4.451-16.392a8.033,8.033,0,0,1,.217-9.553,33.213,33.213,0,0,0,2.714-3.365,2.714,2.714,0,0,0-2.5-4.342h-4.451a14.83,14.83,0,0,1-.217,2.063c-.109.76-.217,1.194-.326,1.846-1.846-1.737-1.737-3.691-1.846-5.645a36.158,36.158,0,0,0-.543-5.428c-.651-3.04-2.605-3.8-5.645-2.171.217,3.04.434,6.3-1.3,9.227a14.763,14.763,0,0,1-.76-3.908c-.217-2.605-.326-5.211-.76-7.816a7.056,7.056,0,0,0-7.056-5.754c-2.5,3.691-.76,7.6,0,11.724a9.662,9.662,0,0,1-3.257-7.708,30.614,30.614,0,0,0-.434-5.211,2.823,2.823,0,0,0-.76-1.629,33.668,33.668,0,0,0-3.691-2.822c-1.846-1.194-3.691-.434-4.017,1.737s-.217,3.04-.434,4.668a8.9,8.9,0,0,0,1.411,6.731,10.746,10.746,0,0,1,.977,3.04M337.449,14.978l-12.593,2.714a10.529,10.529,0,0,0-2.5,1.194c-1.52.76-2.931,1.737-4.559,2.5-3.908,1.737-7.491,3.691-9.01,8.142a3.691,3.691,0,0,1-1.3,1.737c-2.171,1.52-4.451,3.148-6.731,4.559s-7.6,3.908-11.29,6.188a10.747,10.747,0,0,0-5.319,8.793c-.109,1.411-.217,2.931-.326,4.342-.217,3.257-.76,6.4-3.8,8.25a1.629,1.629,0,0,0-.651.543c-.868,1.737-1.737,3.474-2.714,5.211a33.111,33.111,0,0,1-2.5,3.582,37.447,37.447,0,0,0-3.04,3.8c-2.063,3.582-4.234,7.056-3.908,11.4a1.629,1.629,0,0,1-.109.543c-.869,2.931,0,5.536,1.52,8.033a51.237,51.237,0,0,1,2.171,4.668,11.945,11.945,0,0,0,.977,1.52l1.737-1.411c-.217,1.52-.543,2.605-.651,3.8a1.52,1.52,0,0,0,1.411,1.954c1.3.109,1.52-.76,1.52-1.737a4.884,4.884,0,0,0,0-1.411A4.885,4.885,0,0,1,277.2,99.11c.434-.543.977-1.3.868-1.845-.651-2.823.217-5.319,1.086-7.925s2.605-5.428,5.754-6.513a5.971,5.971,0,0,0,3.582-3.8,31.158,31.158,0,0,1,3.365-5.536,2.388,2.388,0,0,1,1.628-.76c4.777-.109,8.25-2.823,11.833-5.536s4.342-2.5,7.056-1.628,2.063.326,2.5-1.52a63.942,63.942,0,0,1,2.171-7.816,27.688,27.688,0,0,1,2.714-4.342c1.3-2.063,2.605-4.125,3.691-6.3s2.5-3.582,1.3-6.079a4.125,4.125,0,0,1,.434-3.148c1.411-2.714,2.5-5.645,5.1-7.6a19.427,19.427,0,0,0,2.171-2.171c1.846-1.845,3.365-3.8,3.365-6.622a7.382,7.382,0,0,1,.651-2.063l.977-3.04M310.418,66.977c-3.148,1.845-5.754,3.474-8.576,4.994s-4.777,1.845-7.056,2.931a8.467,8.467,0,0,0-2.931,2.171,17.478,17.478,0,0,0-1.846,3.582c-.76,1.628-1.411,3.474-3.365,4.017-3.908,1.086-4.994,4.234-5.428,7.708-.217,1.52-.217,3.365.543,4.451a4.234,4.234,0,0,1,.326,4.994l-2.28.543c-1.194,3.04-1.086,4.994.109,7.382h1.3l18.238-3.8c2.28-.543,4.451-1.411,6.731-1.737s5.319-.868,6.948-3.474a2.931,2.931,0,0,1,1.086-.76l5.971-3.257.977-5.754c-1.3-.76-3.474-1.086-3.365-3.474l5.862,1.737a1.3,1.3,0,0,1,.868,1.954,34.313,34.313,0,0,1-1.954,3.908c-.868,1.411-.543,2.171,1.086,2.5h.868c2.171.651,4.668.543,6.188,2.931s1.845,1.086,3.257.868A7.491,7.491,0,0,0,333.541,99a11.4,11.4,0,0,1-1.3-6.622,4.994,4.994,0,0,0-.76-3.04,42.882,42.882,0,0,0-4.017-4.125c-1.737.543-3.474,1.628-4.994,1.3s-3.691.217-4.994-1.52c1.954-2.931,5.211-3.04,8.142-4.017-2.388-1.628-5.211-1.194-7.816-2.171,2.063-2.28,4.559.109,6.839-1.411a25.082,25.082,0,0,0-1.845-2.388c-2.171-2.063-5.211-3.04-6.839-5.862a.893.893,0,0,0-.651-.434c-2.063.434-3.257-1.411-4.777-1.845M12.318,489.051c-.326,2.063-.326,2.063.543,3.691a24.533,24.533,0,0,1,3.148,8.685,24.751,24.751,0,0,0,1.411,5.536c.977,2.388,2.063,4.885,4.559,6.188a4.91,4.91,0,0,0,6.513-2.388c.868-2.171.434-4.885-2.823-5.862l-.76-.217c-2.063-.868-3.8-1.954-4.668-4.234-1.737-4.451-5.536-7.382-7.925-11.4M299.02,775.97a5.972,5.972,0,0,0-.543,2.5,17.373,17.373,0,0,0,0,3.474,4.451,4.451,0,0,0,3.474,3.691,26.926,26.926,0,0,0,5.1.217c1.737-.109,3.148-2.063,2.171-3.148a11.831,11.831,0,0,1-1.628-4.017,42.342,42.342,0,0,0-3.04-6.079c-1.194-1.954-2.823-1.845-4.017,0a27.572,27.572,0,0,0-1.52,3.257m-29.094-1.086c1.52.977,4.125.868,4.125,0s.217-3.8.434-5.645.76-2.171-.434-3.04-2.28,0-3.365.434a3.691,3.691,0,0,0-1.954,2.5m-8.359,7.056a5.536,5.536,0,0,0,3.582,5.536,1.194,1.194,0,0,0,1.628-1.194,6.294,6.294,0,0,0-.434-1.3c-.868-2.605-1.954-5.211-.217-7.816a1.737,1.737,0,0,0-.109-1.52,2.823,2.823,0,0,0-1.52-.977c-.217-.109-.868.434-.977.76-.76,2.28-1.3,4.56-1.954,6.4m32.242,2.931c-1.737.434-2.388,1.954-1.846,4.234a1.3,1.3,0,0,0,2.171.651c.651-.76.977-1.954.977-3.908a1.086,1.086,0,0,0-1.3-.977m33.653-678.162c-1.411-1.52-1.411-1.52-6.4-1.086a4.017,4.017,0,0,0-3.691,2.28l5.211-.76,4.994-.434m-55.69,8.9a1.411,1.411,0,0,0,1.411,1.628,31.7,31.7,0,0,0,4.234-.651c.217,0,.543-.326.651-.434a7.925,7.925,0,0,0-.109-1.52c-.434.109-.977,0-1.194.217a3.475,3.475,0,0,0-.651,1.194c-1.628-.217-2.823-1.3-4.342-.543M87.223,278.883c-1.737-.868-1.737-.868-3.365.109.868,2.063,1.3,2.063,3.365-.109M50.747,464.951l-.543-.217-2.063,3.582c2.605-.868,2.605-.868,2.605-3.257M32.293,488.074l1.086-3.04c-2.388.434-2.388.543-1.086,3.04M84.835,276.82c-1.954-.868-1.954-.868-3.257.326,1.194.76,2.171.326,3.257-.326m1.411,5.319c-1.737.326-1.737.326-1.086,1.737l1.086-1.737M272.1,780.421a.434.434,0,0,0-.76.217,1.628,1.628,0,0,0,.651,1.52c.217.109.326.109.543-.217a1.628,1.628,0,0,0-.434-1.52m-2.5-668.392c-1.194-.651-1.194-.651-1.737.543l1.737-.543m13.353,476.678.543.326c.217-.217.543-.434.651-.651a2.822,2.822,0,0,0-.109-.977H283.6l-.543,1.52M120.008,358.13l-.76-.326c-.109,0-.217.326-.434.434l.434.217.76-.326m-.977,3.04.326.217v-.217l-.217-.434-.326.326" transform="translate(0.709 0.763)" fill="#f2f2f0"/><path d="M560.3,366.509c1.954.217,2.5,1.846,2.931,3.257s.977,4.234,1.52,6.3.76,3.04,1.194,4.451a16.721,16.721,0,0,1,.977,3.908c0,3.8,2.063,6.513,4.559,9.01l9.119,9.445c2.5,2.605,5.971,3.365,9.336,4.342a1.412,1.412,0,0,0,1.086,0c1.628-1.086,2.931-.217,4.342.434s2.605,0,2.714-1.737a7.382,7.382,0,0,0-6.839-7.165c-4.125-.109-6.622-2.822-6.3-6.948a3.47,3.47,0,0,0-.109-1.3c-.651-2.171-.543-2.931,1.194-4.125,3.8-2.822,6.948-3.04,11.4.543,2.28,1.845,4.559,3.582,6.948,5.319a4.994,4.994,0,0,0,2.5.977c3.8.217,5.971,2.605,7.925,5.536a20.734,20.734,0,0,0,3.257,3.8,2.063,2.063,0,0,0,2.931,0c.869-.868.651-1.737.109-2.714s-1.846-3.582-2.931-5.211a15.305,15.305,0,0,0-2.171-2.388,28.551,28.551,0,0,0-8.468-6.4,17.261,17.261,0,0,1-7.491-8.033,6.186,6.186,0,0,1,1.3.651l5.645,5.211c.326.326.651.76,1.086.868,3.365.326,4.994,3.474,7.6,4.994a10.639,10.639,0,0,1,3.148,3.365c1.411,1.954,2.5,4.017,3.8,5.971a4.56,4.56,0,0,1,.543,3.908,6.188,6.188,0,0,0-.109,2.931c.326,1.52,1.194,2.171,2.388,2.063a2.5,2.5,0,0,0,2.5-2.714c0-.868-.217-1.846-.217-2.714s.109-3.148.109-4.668a70.356,70.356,0,0,0-4.125-6.079c-2.5-3.04-5.211-5.862-7.925-8.576a37.792,37.792,0,0,0-3.583-2.931,2.388,2.388,0,0,1-1.086-2.823c1.3,0,1.628.977,1.954,1.737a5.211,5.211,0,0,0,2.822,2.714,8.575,8.575,0,0,1,2.714,2.171c2.714,3.257,5.319,6.731,7.925,10.1l.977.868a5.971,5.971,0,0,0-.76-5.211,24.535,24.535,0,0,0-4.56-6.4c-2.171-2.063-3.474-4.885-5.1-7.382A1.194,1.194,0,0,1,617.4,374l4.125,6.622c1.194.109,2.388-.217,2.931.326a8.191,8.191,0,0,1,1.086,2.605c.326.868,1.737,4.017,2.714,5.862a9.119,9.119,0,0,1,.977,7.056,11.725,11.725,0,0,0,.217,6.731c.434,1.3,1.086,2.931-.217,3.8s-3.148,2.823-5.536,2.063a3.149,3.149,0,0,1-2.388-2.388,1.737,1.737,0,0,0-1.628-1.628c-3.257-.326-5.211-2.388-6.731-4.994a12.484,12.484,0,0,0-7.056-5.536c-3.908-1.3-7.056-3.8-9.987-6.513a6.3,6.3,0,0,0-2.714-1.628c-1.845-.434-4.125-.434-5.1,1.52s-1.846,4.342-.434,6.731,2.28,2.822,4.451,2.714a4.886,4.886,0,0,1,4.017,1.954c1.086,1.411,2.28,2.822,3.257,4.342a5.211,5.211,0,0,1,.434,4.451,2.5,2.5,0,0,1-3.908,1.628A4.559,4.559,0,0,0,592,409.28a3.908,3.908,0,0,1-2.171-.109l-7.816-3.148a8.9,8.9,0,0,1-2.714-1.846l-10.2-10.639a16.61,16.61,0,0,1-3.8-8.359c-.651-3.257-1.52-6.513-2.388-9.77a5.212,5.212,0,0,1-.434-1.52c.326-2.822-1.086-5.1-2.171-7.49Z" transform="translate(47.951 31.357)" fill="#f2f2f0"/><path d="M603.834,363.657c-4.342-1.954-8.576-4.017-11.616-7.708a20.081,20.081,0,0,1-2.388-5.1,40.6,40.6,0,0,1-2.388-10.313c-.434-3.148-1.086-6.3-1.628-9.445s-.977-6.622-1.52-9.987c-.108-.543-.434-.977-.543-1.52s-.434-2.28-.651-3.365l.543-.217a4.234,4.234,0,0,1,.76,1.086,92.081,92.081,0,0,1,2.714,9.879c.76,4.56,1.194,9.228,1.628,13.787a36.257,36.257,0,0,0,2.605,11.073c1.086,2.605,2.714,5.211,5.428,6.622a41.781,41.781,0,0,1,3.908,1.737,7.924,7.924,0,0,1,3.04,3.365Z" transform="translate(49.902 27.044)" fill="#f2f2f0"/><path d="M487.5,301.6c-.326,4.017-.651,8.142-1.086,12.158a56.446,56.446,0,0,1-1.194,6.948c-.868,3.8-1.954,7.6-3.04,11.29q-2.931,9.879-6.188,19.758a13.68,13.68,0,0,1-2.5,4.559,11.519,11.519,0,0,1,.326-1.954c1.628-4.885,3.474-9.77,4.994-14.655s2.388-8.793,3.474-13.244,1.954-7.491,2.823-11.4a48.86,48.86,0,0,0,.543-5.536,47.2,47.2,0,0,1,.543-4.777,18.015,18.015,0,0,1,1.3-3.148Z" transform="translate(40.522 25.811)" fill="#f2f2f0"/><path d="M562.753,368.229l-5.971-4.234c-.109-.109-.326-.217-.434-.326-.543-2.605-3.04-2.931-4.777-4.017l-3.908-2.5a10.749,10.749,0,0,0-3.148-1.411,13.678,13.678,0,0,1-8.359-5.1A35.061,35.061,0,0,1,532.9,346.3l3.04,1.954a21.6,21.6,0,0,1,3.148,2.605c2.171,2.388,5.319,3.04,8.142,4.234a100.631,100.631,0,0,1,9.77,5.319c.543.326.76.977,1.086,1.52a20.3,20.3,0,0,0,2.5,2.823,5.428,5.428,0,0,1,2.28,3.582h.108" transform="translate(45.606 29.637)" fill="#f2f2f0"/><path d="M515.261,299.487c0-.434-.217-1.086,0-1.411,1.411-2.931.651-5.862,0-8.793a27.471,27.471,0,0,1-.434-4.559c-.109-.76,0-1.628-.109-2.388a24.1,24.1,0,0,1,1.194-11.507,10.638,10.638,0,0,1,4.125-5.428,25.945,25.945,0,0,0-4.017,15.632c.217,4.017.868,8.142,1.086,12.159a25.732,25.732,0,0,1-.434,5.1,3.83,3.83,0,0,1-.869,1.411h-.434" transform="translate(44.03 22.713)" fill="#f2f2f0"/><path d="M495.3,304.309a9.228,9.228,0,0,1,2.171,1.086l7.925,7.056,2.5-.434,4.342,6.948-3.148-1.737c-2.5-1.628-2.5-1.737-5.211-1.52a9.553,9.553,0,0,0-4.56-6.4l-.651-.543-3.257-4.559Z" transform="translate(42.388 26.034)" fill="#f2f2f0"/><path d="M575.76,294.1c7.056,5.319,9.227,16.392,7.925,21.06a15.957,15.957,0,0,1-.651-1.628c-.651-2.605-1.194-5.319-1.846-7.925a8.144,8.144,0,0,0-.977-2.28l-4.234-6.622a15.852,15.852,0,0,1-.977-2.28l.651-.217" transform="translate(49.209 25.169)" fill="#f2f2f0"/><path d="M468.5,193.3a26.053,26.053,0,0,1,4.451,2.5,24.643,24.643,0,0,0,8.793,4.777,16.718,16.718,0,0,1,9.662,7.6A5.211,5.211,0,0,1,487.715,206c-1.737-2.063-3.908-3.04-6.3-4.125a111.137,111.137,0,0,1-10.1-5.319c-1.194-.651-1.846-2.171-2.714-3.257Z" transform="translate(40.095 16.543)" fill="#f2f2f0"/><path d="M517.868,329.408l3.691,4.885c.326.543.543,1.194,1.086,1.52a17.37,17.37,0,0,1,5.1,5.862c.76,1.194,1.194,1.194,3.148.543l1.954,2.931a6.841,6.841,0,0,1-1.954,0,10.855,10.855,0,0,1-5.1-3.908,38.447,38.447,0,0,0-3.908-4.125A38.641,38.641,0,0,1,517,329.843l.868-.543" transform="translate(44.245 28.182)" fill="#f2f2f0"/><path d="M469.293,193.936l-1.737,2.714c-2.5-3.8-6.3-6.731-7.056-11.4.868-.868,1.628-.868,2.171,0a19.879,19.879,0,0,1,.977,1.954,24.643,24.643,0,0,0,5.536,6.839h0" transform="translate(39.41 15.798)" fill="#f2f2f0"/><path d="M517.609,223.085l-3.908-1.845a32.676,32.676,0,0,0-9.662-3.474,42.127,42.127,0,0,1-5.754-2.063h-.217l-.868-1.3,10.313,3.148c3.8,1.086,6.839,3.691,10.313,5.319l-.217.434" transform="translate(42.551 18.349)" fill="#f2f2f0"/><path d="M485.268,277.209c1.086,6.188.326,12.7,3.8,18.889-1.846-.651-2.714-.977-3.04-2.605a44.4,44.4,0,0,1-.76-8.142,42.011,42.011,0,0,0-.543-4.885c-.109-1.086-.217-2.171-.326-3.365h.76" transform="translate(41.455 23.714)" fill="#f2f2f0"/><path d="M564.3,279.3c4.234,3.474,6.839,7.6,9.445,11.941a1.662,1.662,0,0,1-2.063-.76L564.3,280.168V279.3" transform="translate(48.293 23.903)" fill="#f2f2f0"/><path d="M474.615,214.052a4.877,4.877,0,0,1-.434-.868,52.762,52.762,0,0,0-5.428-13.027,6.3,6.3,0,0,1-.651-3.257c.217.217.543.326.651.543,1.954,4.451,3.908,8.9,5.862,13.461a12.374,12.374,0,0,1,.434,3.04h-.434" transform="translate(40.059 16.851)" fill="#f2f2f0"/><path d="M357.5,105c6.3,1.737,12.593,3.257,18.129,6.622l-.217.651-3.365-1.411-5.862-2.063c-2.931-.977-6.079-1.845-8.576-3.8H357.5" transform="translate(30.595 8.986)" fill="#f2f2f0"/><path d="M427.633,148.067l-8.033-7.056c.543,0,.977-.217,1.194-.109,2.063,1.628,4.125,3.257,5.971,4.994s.543,1.411.76,2.171Z" transform="translate(35.91 12.056)" fill="#f2f2f0"/><path d="M615.459,372a20.841,20.841,0,0,0-1.845-3.474,16.392,16.392,0,0,0-2.714-2.28l.326-.543a5.388,5.388,0,0,1,1.411.326,44.286,44.286,0,0,1,3.474,4.017c.326.326,0,1.086,0,1.737h-.651" transform="translate(52.281 31.297)" fill="#f2f2f0"/><path d="M447.5,169.1a19.107,19.107,0,0,1,6.4,5.536c-3.474-.543-4.885-3.148-6.4-5.536" transform="translate(38.297 14.472)" fill="#f2f2f0"/><path d="M556.909,272.609a16.066,16.066,0,0,1,6.405,6.622l-1.086-.651a46.733,46.733,0,0,1-4.017-4.017,11.721,11.721,0,0,1-1.3-2.063H556.8" transform="translate(47.651 23.321)" fill="#f2f2f0"/><path d="M439.7,161.9c4.125,2.931,4.559,3.365,4.559,5.1a10.2,10.2,0,0,1-4.559-5.1" transform="translate(37.63 13.856)" fill="#f2f2f0"/><path d="M514.842,297.4c-.109,3.691-2.931,4.885-4.342,7.056.868-2.388,1.737-4.885,4.342-7.056" transform="translate(43.689 25.452)" fill="#f2f2f0"/><path d="M521.6,263.685c.76-1.737,0-4.559,3.257-4.885-.217,2.388-1.845,3.474-3.257,4.885" transform="translate(44.639 22.148)" fill="#f2f2f0"/><path d="M510.129,305.4l-1.628,4.668c-1.954-1.628-1.846-1.954,1.628-4.668" transform="translate(43.409 26.136)" fill="#f2f2f0"/><path d="M493.768,301.845c-3.691-2.063-4.342-2.931-4.668-5.645a41.029,41.029,0,0,1,4.668,5.645" transform="translate(41.857 25.349)" fill="#f2f2f0"/><path d="M408.5,130.2a6.079,6.079,0,0,1,1.411.76c.651.543,1.086,1.3,1.628,1.845l1.737,1.411C410.671,134.651,409.477,133.565,408.5,130.2Z" transform="translate(34.96 11.143)" fill="#f2f2f0"/><path d="M486.477,302.079a8.033,8.033,0,0,1-.651-6.079c.868,1.086.868,1.086.651,6.079h0" transform="translate(41.55 25.332)" fill="#f2f2f0"/><path d="M617.154,376.55l-1.954-3.04c2.28-.434,2.714.109,1.954,3.04" transform="translate(52.649 31.954)" fill="#f2f2f0"/><path d="M344.109,100.7c2.605-.109,5.754.76,7.165,2.171h0l-7.165-2.171H344" transform="translate(29.44 8.617)" fill="#f2f2f0"/><path d="M602.1,360a10.1,10.1,0,0,1,6.079,4.342h.108A16.284,16.284,0,0,1,602.208,360H602.1" transform="translate(51.528 30.809)" fill="#f2f2f0"/><path d="M525.246,256.648c-.868-1.411-.868-1.411.76-3.148.326,1.52.326,1.52-.76,3.148" transform="translate(44.901 21.695)" fill="#f2f2f0"/><path d="M565.225,360.229l-4.125-.651c1.628-1.411,2.171-1.411,4.125.651" transform="translate(48.019 30.688)" fill="#f2f2f0"/><path d="M350.7,102.7a12.593,12.593,0,0,1,7.382,2.605h.109l-7.382-2.605H350.7" transform="translate(30.013 8.789)" fill="#f2f2f0"/><path d="M408.808,130.414c-2.063.217-2.605-1.954-3.908-2.714,1.737.326,2.714,1.737,3.908,2.823h.109" transform="translate(34.652 10.929)" fill="#f2f2f0"/><path d="M399.4,123.7l3.148,1.52C400.811,125.871,400.16,124.786,399.4,123.7Z" transform="translate(34.181 10.586)" fill="#f2f2f0"/><path d="M469.109,364.382a4.994,4.994,0,0,1,1.3-3.582c0,1.845,0,1.845-1.411,3.474h.109" transform="translate(40.137 30.878)" fill="#f2f2f0"/><path d="M455.926,177.2l2.28,2.388-.434.326-2.171-2.388.326-.326" transform="translate(38.991 15.165)" fill="#f2f2f0"/><path d="M399.665,123.854l-3.365-1.3.326-.651a6.84,6.84,0,0,1,3.04,1.954h.109" transform="translate(33.916 10.432)" fill="#f2f2f0"/><path d="M533.873,241.054c-1.3-.651-1.194-1.194.109-1.954v1.954" transform="translate(45.61 20.462)" fill="#f2f2f0"/><path d="M427,147.509a2.388,2.388,0,0,1,2.388,1.52,2.388,2.388,0,0,1-2.28-1.628H427" transform="translate(36.543 12.615)" fill="#f2f2f0"/><path d="M530.368,233.428l-.868-1.411.326-.217,1.086,1.411-.543.326" transform="translate(45.315 19.838)" fill="#f2f2f0"/><path d="M377.611,113.586l-1.411-.651.217-.434,1.411.651-.217.434" transform="translate(32.195 9.628)" fill="#f2f2f0"/><path d="M495.528,304.243l-.434.217H493.9l.217-.76,1.3.543.217.217h0" transform="translate(42.268 25.991)" fill="#f2f2f0"/><path d="M528.5,245.871l.217-2.171.76.217-.977,1.845Z" transform="translate(45.229 20.856)" fill="#f2f2f0"/><path d="M526.626,228.3l.651.868-.326.217-.651-.868.326-.217" transform="translate(45.041 19.538)" fill="#f2f2f0"/><path d="M519.6,223.66l-1.3-.434V222.9l1.411.217v.543" transform="translate(44.356 19.076)" fill="#f2f2f0"/><path d="M607.709,364l1.411.543-.326.543L607.709,364H607.6" transform="translate(51.999 31.151)" fill="#f2f2f0"/><path d="M380.517,114.8l1.086.434a1.845,1.845,0,0,1-.109.434l-1.194-.326V114.8" transform="translate(32.546 9.825)" fill="#f2f2f0"/><path d="M528.432,245.7v1.737c-.868-.76-.108-1.194.108-1.737h0" transform="translate(45.189 21.027)" fill="#f2f2f0"/><path d="M457.226,182l.868,1.086-.326.217-.868-1.086.326-.217" transform="translate(39.102 15.576)" fill="#f2f2f0"/><path d="M446.468,168.326l-.651.326-.217-.326.651-.326.326.434" transform="translate(38.135 14.378)" fill="#f2f2f0"/><path d="M554.9,271.1l2.171,1.628h.109a2.171,2.171,0,0,1-2.171-1.628Z" transform="translate(47.489 23.201)" fill="#f2f2f0"/><path d="M555.02,271.094l-1.52-.76.326-.434,1.086,1.194h.109" transform="translate(47.369 23.098)" fill="#f2f2f0"/><path d="M532,242.4l1.628.76-.326.543-1.194-1.3Z" transform="translate(45.529 20.745)" fill="#f2f2f0"/><path d="M532.194,242.394,531,241.526l.434-.326.651,1.3h.108" transform="translate(45.443 20.642)" fill="#f2f2f0"/><path d="M525.108,226.5l.434.217-.326.326H525v-.326" transform="translate(44.93 19.384)" fill="#f2f2f0"/><path d="M282.349,76.583v-.76c-.543-.109-1.194-.434-1.628-.217a20.083,20.083,0,0,0-9.77,7.382c1.411,1.194,1.954.109,2.5-.651a11.4,11.4,0,0,1,6.731-4.777,17.259,17.259,0,0,0,2.171-.977M258.9,101.225c.76,1.086,1.086,1.194,1.845.651a2.251,2.251,0,0,0,.109-3.365l-1.954,2.714m4.125-3.691-.326-.326-.326.326c.109.109.217.326.326.326l.326-.326" transform="translate(22.157 6.464)" fill="#f2f2f0"/><path d="M426.634,427.637,426.2,425.9h.434l.326,1.737h-.326" transform="translate(36.475 36.449)" fill="#f2f2f0"/><path d="M32.744,381.111c-.326-.326-.651-.543-.543-.651a2.606,2.606,0,0,1,.543-.76c.217.109.543.326.434.434a3.04,3.04,0,0,1-.434.977" transform="translate(2.754 32.495)" fill="#f2f2f0"/><path d="M281.4,76.579a17.369,17.369,0,0,1-2.171.977,11.4,11.4,0,0,0-6.731,4.777c-.543.76-1.086,1.845-2.5.651a20.083,20.083,0,0,1,9.77-7.382c.434-.109,1.086.217,1.628.217Z" transform="translate(23.107 6.468)" fill="#f2f2f0"/><path d="M258.9,99.414l1.954-2.714c1.194,1.3,1.086,2.388-.109,3.365s-1.086.434-1.845-.651" transform="translate(22.157 8.276)" fill="#f2f2f0"/><path d="M262.751,95.826l-.326.326-.326-.326.326-.326.326.326" transform="translate(22.431 8.173)" fill="#f2f2f0"/><path d="M285.137,80.768c-2.714-1.3-6.079-1.3-7.925,1.194s-2.823,3.365-4.017,5.211-1.737,2.063-.543,3.257c3.04-.977,5.428-3.257,8.359-3.148l3.04-3.257a6.3,6.3,0,0,0,1.411-1.628,1.628,1.628,0,0,0-.434-1.52m-6.4,5.536c0-.217,0-.434.109-.434l2.388-1.628c-.434,1.3-.977,2.28-2.5,2.063m2.388-3.908-3.474,2.388c.651-1.845,1.52-3.257,3.582-3.04,0,.326,0,.543-.109.651" transform="translate(23.277 6.838)" fill="#f2f2f0"/></g></svg>