<svg xmlns="http://www.w3.org/2000/svg" xmlns:xlink="http://www.w3.org/1999/xlink" width="574.498" height="668.774" viewBox="0 0 574.498 668.774"><defs><clipPath id="a"><rect width="574.498" height="668.774" fill="none"/></clipPath></defs><g transform="translate(0 0)" clip-path="url(#a)"><path d="M261.19,659.83c-2,1.18-3.268,2.179-5.628,2s-4.539-.454-5.356-2.542-.454-3.177-1.815-1.906a6.718,6.718,0,0,1-3.994,1.362,5.809,5.809,0,0,1-2.451-1.362,1.362,1.362,0,0,0-1.452-.182c-1.543.726-3.54,2.542-4.811,1.634a17.063,17.063,0,0,1-2.179-2.088,1.271,1.271,0,0,0-1.362-.454c-1.906.545-2.9,3.631-5.083,3.177-.545-.091-2.179-1-2.814-.726-2.814,1.271-3.9,1.452-4.811-1.452a4.722,4.722,0,0,0-1.089-1.543c-1.634-1.815-3-3.359-2.36-5.537a4.72,4.72,0,0,0-.272-3.994,1.362,1.362,0,0,1,.272-2c2.088-1.725,3.177-3.268,1.543-5.537s-2.632-1.906-3-4.539a101.935,101.935,0,0,1-1.362-11.891c-.091-2.632-3.359-5.9-5.083-7.534s-3.9-7.353-5.083-9.622a65.815,65.815,0,0,1-2.451-7.534c-.272-1.725-1.543-8.623-2-10.62-3.086-11.256-8.442-20.878-11.347-23.692l-.545-.635a91.492,91.492,0,0,1-9.531-17.338c-2.542-4.448-5.719-14.977-6.173-18.064a62.449,62.449,0,0,0-1.18-6.445c-.182-.635-.363-1.815-.817-3.812s-2.269-3.177-1.634-4.992c1.362-4.448.454-8.9.363-13.434a40.491,40.491,0,0,0-.454-6.808c-.545-2.723-5.628-21.876-6.173-26.687a15.337,15.337,0,0,0-.363-2.088c-1.089-4.448-1.362-8.9-2.269-12.073a69.627,69.627,0,0,1-1.18-7.262,60.722,60.722,0,0,0-1.543-7.988c-.363-1.271-3.54-9.077-4.176-10.62a70.438,70.438,0,0,1-2.814-10.983c-.545-3.722-1.089-4.811-1.634-8.442a24.961,24.961,0,0,1-.182-4.085c.272-4.992.454-9.985.817-14.887a26.688,26.688,0,0,1,1.362-6.354,4.811,4.811,0,0,0-1.271-5.446c-3.086-3.086-6.082-6.173-8.9-9.531s-4.9-6.9-7.262-10.167a28.136,28.136,0,0,1-2.36-3.722c-1.089-2.088-2.179-4.085-3.086-6.263-2.179-4.9-4.357-9.894-6.445-14.887a95.038,95.038,0,0,1-3.449-10.62c-1.452-5.809-2.723-11.71-3.994-17.519a13.979,13.979,0,0,1-.272-2.814c.091-1.271.363-1.815-.545-3.359-.635,3.722-2.723,6.263-4.266,9.077s-2.723,2.632-4.266,3.631-2.542-.454-3.177-1.906l-1-2.269-.454-.272c-1.271.182-1.634,1-1.815,2.179a50.2,50.2,0,0,1-4.176,13.707,49.926,49.926,0,0,1-6.082,9.077c-2.632,3.268-5.265,6.536-7.806,9.8s-3.994,5.719-3.812,9.35a12.436,12.436,0,0,0,.817,3.994c1.089,2.723,2.36,5.265,3.631,7.9a8.261,8.261,0,0,0,1.725,2.088c3.359,3.268,6.9,6.445,10.166,9.894a16.7,16.7,0,0,1,3.812,8.442,34.581,34.581,0,0,0,1.089,4.448,6.445,6.445,0,0,0,3.268,3.9c3.177,1.543,6.354,2.9,10.076,2.632s4.085,1.18,3.994,4.085a7.171,7.171,0,0,1-4.176,6.354c-3.359,1.725-6.989,2-10.711,2a22.42,22.42,0,0,1-4.266-.454c-2.9-.545-4.811-2.723-6.445-4.9a56.645,56.645,0,0,1-4.448-6.989c-3-5.265-7.534-7.716-13.434-7.806-2.542-.091-4.992,2.179-5.537,4.72a13.253,13.253,0,0,1-3.54,6.717l-.182.272c-2.814,4.9-7.534,4.9-12.254,4.992H46.151c-2.723-.091-3.722-1-4.085-3.812a2.813,2.813,0,0,0-.272-.545c-1.543.726-2.451,2.178-3.449,3.449a26.869,26.869,0,0,0-2,3.359c-.454.908-1,1.543-2.088,1.362a1.543,1.543,0,0,0-1.815,1.089l-1.815,3.449a6.808,6.808,0,0,0-.726,4.629c.635,3.268.817,6.445-1.271,9.44-.545.817-.454,2.179-.545,3.359a6.354,6.354,0,0,1-5.9,6.536,19.337,19.337,0,0,1-3.9-.091,2.542,2.542,0,0,1-1.725-.908c-1.089-1.815-2.451-3.449-3-5.628-1.18-4.539-1.815-9.259-4.448-13.344a6.717,6.717,0,0,1-.726-2.9c-.091-1.18-.091-2.451-.091-3.631a12.98,12.98,0,0,1,2.179-7.806,3.631,3.631,0,0,0,.635-1.634c.182-4.448,1.725-8.533,3.177-12.617a6.535,6.535,0,0,0,.454-2.9,17.858,17.858,0,0,1,4.539-14.524c-1.271-1.271-.272-2.36.363-3.631,1.725-3.268,3.54-6.536,4.992-9.985.817-1.906.817-4.176,1.18-6.263a2.088,2.088,0,0,0,0-1.089c-1.271-2.632-.635-5.537-1.362-8.17a18.789,18.789,0,0,0-2.269-5.174,17.339,17.339,0,0,1-2.542-4.811c-.726-2.36-1.906-4.629-2.632-7.08a17.791,17.791,0,0,1-.545-4.448c-.091-1.725.091-3.449.091-5.265-.091-4.72,1.815-8.9,3.812-13.071.363-.726.635-1.543,1-2.269S23,291.657,24.728,290.3a4.993,4.993,0,0,0,.726-1.089c2.179-3.177,3.722-6.808,6.536-9.622a8.262,8.262,0,0,0,1.089-1.725c1.543-2.723,3.9-4.811,6.082-7.08s5.809-6.263,8.623-9.44a35.4,35.4,0,0,1,6.263-5.991c2-1.362,3.812-3,5.809-4.448l5.265-3.994c2.179-1.543,4.085-3.268,4.811-6.173a6.717,6.717,0,0,0-2.542-7.08l-1.271-.817a8.079,8.079,0,0,1,2.088-4.357,12.892,12.892,0,0,1,6.445-4.176,10.439,10.439,0,0,0,6.354-3.812c1.089-1.452,2.451-2.723,3.54-4.176a21.6,21.6,0,0,1,6.536-5.628A19.6,19.6,0,0,1,94.26,209.6a6.625,6.625,0,0,0,1.634-.726c2.088-1.452,4.629-2.723,6.082-4.629s3.722-3.722,4.9-6.173a39.937,39.937,0,0,1,2.36-4.266c2-3,3.994-6.445,6.808-8.986a54.643,54.643,0,0,1,6.445-4.72c1.271-.908,2.814-1.452,3.994-2.542a10.529,10.529,0,0,0,2.088-3.177,72.889,72.889,0,0,1,9.44-14.8c.635-.726,1.089-1.634,1.725-2.451l5.991-7.171a6.989,6.989,0,0,0,.908-1c2.179-3.994,5.9-6.717,8.442-10.439a7.26,7.26,0,0,1,1.362-1.18l4.176-3.54,4.448-3.54c3-2.269,5.9-4.629,8.9-6.717s6.9-4.176,10.166-6.445,9.35-5.174,13.8-8.079,9.168-4.539,13.525-7.262,6.9-3.449,10.348-5.174a2.36,2.36,0,0,0,1-.817,45.2,45.2,0,0,0,2.542-5.083,4.811,4.811,0,0,0,0-2.632c-.726-3-1.543-6.082-2.179-9.077s.363-7.443,1.815-10.893a22.784,22.784,0,0,1,4.176-6.717c1.362-1.543,2.178-3.631,3.268-5.446s1.362-2.814,2.451-3.812A11.715,11.715,0,0,0,237.5,45.3a11.8,11.8,0,0,1,4.629-9.985,25.6,25.6,0,0,1,4.085-2.723c1.452-.726,3.086-1.18,4.629-1.815a14.706,14.706,0,0,0,1.725-1,5.9,5.9,0,0,1,1.543-.908,5.719,5.719,0,0,0,3.9-3.177,14.705,14.705,0,0,1,7.625-7.08c1.725-.726,3.177-2.088,4.811-2.9a11.8,11.8,0,0,1,3-1c2.269-.545,4.629-.817,6.9-1.452a12.527,12.527,0,0,0,3.177-1.634c.817-.545,1.543-1.18,2.36-1.815s3.722-1.18,5.719-.726c.363.091.545.817.908,1.18l-.635.363c-3.086-1.089-4.811.545-6.536,3.54a16.973,16.973,0,0,0-1.543,4.72,9.077,9.077,0,0,1-2.814,5.083,17.427,17.427,0,0,0-4.539,6.263,21.24,21.24,0,0,0-1.18,4.811,14.16,14.16,0,0,1-2.36,5.628c-2.269,3.177-3.359,7.262-5.537,10.076a3.359,3.359,0,0,0-.726,2.542c.091.454-.272.726-.363,1.089s1.725,5.809,3.086,6.536c3,1.725,5.265,4.085,5.9,7.625a9.168,9.168,0,0,0,3.812,6.263,3.268,3.268,0,0,1,1.271,3.268c-.363,2.723.817,4.9,2,7.171a3.722,3.722,0,0,0,3.812,1.815,11.074,11.074,0,0,1,5.446,1.089c1.725.817,3.722.726,5.628,1l11.256,1.634,2.451.545,2.269.908h0l-18.7-3.086a45.115,45.115,0,0,0-6.536-.726c-3.449,0-6.717-1-10.076-.817l-10.076.454a10.529,10.529,0,0,0-2.36.726L264,89.326,247.847,92.5l-2.179.635c-4.176,1.815-8.8,1.634-12.98,3.359a10.983,10.983,0,0,1-3.722.726c-.635,0-1.452.635-2.088.454-3.177-1-5.809.726-8.442,1.906-5.083,2.36-10.076,5.083-15.068,7.806-2.36,1.271-4.539,2.814-6.808,4.085-.908.545-2,.726-2.9,1.271L183.4,118.827c-4.357,2.723-8.8,5.446-12.98,8.442a83.51,83.51,0,0,0-7.08,6.082c-1.906,1.634-3.631,3.54-5.537,5.083-4.539,3.54-7.988,8.079-11.528,12.527l-2.179,2.632a31.5,31.5,0,0,0-3,3.449c-3.177,5.083-6.9,9.894-9.44,15.34a49.378,49.378,0,0,0-2.179,5.991,2.814,2.814,0,0,1-2.179,2.088c-4.629,1.18-8.079,3.9-11.165,7.443a65.266,65.266,0,0,0-8.17,12.345,29.137,29.137,0,0,1-4.992,6.717c-1.362,1.362-3.359,2.088-5.083,2.9s-2.723.908-3.994,1.543a23.238,23.238,0,0,0-3.9,2.36,27.141,27.141,0,0,0-5.265,5.628,16.7,16.7,0,0,1-9.622,6.536,12.3,12.3,0,0,0-6.626,4.9h1.543a6.536,6.536,0,0,1,6.626,4.72c.635,2,1.452,3.994,2.088,5.991a21.423,21.423,0,0,1,.817,3.359,15.432,15.432,0,0,0,2.542,6.082,11.437,11.437,0,0,0,2.723,2.632,10.8,10.8,0,0,1,2.9,3.086,49.708,49.708,0,0,0,3.177,4.448,14.615,14.615,0,0,1,2,3.359c1.18,3.631,2.632,7.171,2.632,11.074a17.882,17.882,0,0,0,2.36,8.8,86.784,86.784,0,0,0,6.263,9.531,6.535,6.535,0,0,1,.817,2.088,29.3,29.3,0,0,1,.726,3,32.767,32.767,0,0,0,2.269-3.722c1.089-2.451,1.906-4.992,2.9-7.534a39.521,39.521,0,0,0,1.452-4.266,19.335,19.335,0,0,0,.908-3.994,4.273,4.273,0,0,1,2.9-3.812,15.522,15.522,0,0,0,6.445-5.265l4.539-7.08a1,1,0,0,1,.908-.363c.272.091.635.635.545.817a16.248,16.248,0,0,1-1.271,3.177,26.869,26.869,0,0,1-6.989,8.079c-1.089.817-1.725,2.269-3.359,2.632s-.908,1-1.089,1.634c-.908,3.177-1.634,6.354-2.632,9.44s-1.271,5.356,0,8.17,1,5.083,1.543,7.625c1,4.448,1.815,8.986,3,13.344s1.543,5.628,2.632,9.259c2,6.354,5.628,13.888,8.442,19.879a65.176,65.176,0,0,0,10.62,16.157c3.449,3.812,6.626,7.988,10.439,11.528l1.634,1.543,8.714,7.353c.091.091.091.272.182.545s-1.089,0-1.634-.454l-5.083-3.812a1.906,1.906,0,0,0-2.9,1,12.617,12.617,0,0,0-.363,1.634c-.545,3.54-1.089,7.08-1.362,10.62a66.448,66.448,0,0,0-.363,9.894c.091,2.179,1.18,5.265,1.634,7.443.726,3.631,1.271,6.989,2.179,10.62a14.7,14.7,0,0,0,.817,2.451c.817,1.815,3,7.534,3.994,9.168a45.117,45.117,0,0,1,2.269,7.262c.545,1.906,2.179,12.8,2.179,14.161s4.357,21.695,6.173,26.778c1.271,3.54,1.362,5.9,2.179,11.074.182.908,0,1.815.091,2.723a38.029,38.029,0,0,1,.454,5.265c.091,3.54,1.18,10.439,2.269,10.62a13.977,13.977,0,0,1,2.269.182l12.8,4.539,6.536,2.269c1.543-2.269,1.634-2.36,4.085-2s6.354,1,9.44,1.543l.908.363c2.36,1.634,5.174,1.906,7.988,2.36a2.9,2.9,0,0,0,1.815-.091,5.991,5.991,0,0,1,4.176-.545c2.451.363,4.629-.545,6.9-1.18s6.173-1.634,9.44-.817a1.452,1.452,0,0,0,1.815-1.452,34.4,34.4,0,0,0-.545-6.173,100.12,100.12,0,0,0-3.177-13.071,7.08,7.08,0,0,1,.363-6.173,3.086,3.086,0,0,0,.454-1.725c-.454-2.632.635-4.9,1.543-7.262s2-5.719,2.9-8.623a11.709,11.709,0,0,1,2.542-4.992c1.089-1.089,1.815-2.632,2.9-3.812a22.963,22.963,0,0,1,3.449-2.632,20.419,20.419,0,0,0,2.632-1.725c2-2,3.9-4.085,5.809-6.082s1.906-2.36,3.086-3.359a30.953,30.953,0,0,0,6.082-7.9,11.346,11.346,0,0,1,3.177-3.812,6.443,6.443,0,0,0,1.725-1.543c1.906-2.814,4.9-3.449,7.806-4.448l9.44-3.268,6.536-2c1.18-.363,2.178-1,3.359-1.271a6.717,6.717,0,0,1,2.9-.272c3.177.635,5.809-.454,8.533-1.815a3.086,3.086,0,0,0,1.634-3.722,63.174,63.174,0,0,1-2.723-12.617,40.848,40.848,0,0,1,1.089-13.616,96.393,96.393,0,0,0,2.723-17.428,46.614,46.614,0,0,0-1.271-15.431l-.182-.363c-1.362-2.36-2.632-4.72-4.176-6.99a9.623,9.623,0,0,1-1.634-4.992,48.561,48.561,0,0,1,.363-9.531,38.578,38.578,0,0,1,4.811-14.433,84.42,84.42,0,0,1,5.537-8.351c2-2.723,4.9-4.539,7.806-6.263a41.754,41.754,0,0,1,4.992-2.451,7.171,7.171,0,0,1,2.36-.363,39.393,39.393,0,0,1,9.259.817c2,.363,4.176-.091,6.082.363a17.336,17.336,0,0,1,5.356,2.36c2.451,1.543,4.539,3.54,7.443,4.176a1.634,1.634,0,0,1,.726.545l3.359,3.449a1.634,1.634,0,0,1,.182,1.452,26.692,26.692,0,0,1-2.632-1.906,37.308,37.308,0,0,0-21.695-9.713c-2.451-.272-4.992-.363-7.534-.454A7.716,7.716,0,0,0,328,310.992c-.272.272-.545.635-.908.726-1.725.272-2.723,1.634-3.9,2.632-3.722,2.9-6.354,6.808-8.623,10.8s-4.357,9.168-4.357,14.342c0,2.632-1.18,5.083-.454,7.716s1.271,5.628,3.086,7.988a36.85,36.85,0,0,1,2,3.449c0-1.543.091-2.9,0-4.266a17.973,17.973,0,0,1,2.088-9.531,36.672,36.672,0,0,1,5.265-7.353,31.588,31.588,0,0,1,9.985-7.171c3.449-1.725,7.08-1.725,10.711-1.452a49.182,49.182,0,0,1,19.788,5.991c.908.454,2,.817,2.9,1.362a17.794,17.794,0,0,1,3.9,2.723,11.619,11.619,0,0,0,4.72,2.9c.182-1.725-1.543-2.36-1.634-3.722h.908c.454-3.268-1.725-5.991-2-9.35a2.178,2.178,0,0,1,1.634,1.543c1.271,3.449,2.36,6.9,3.722,10.257a52.012,52.012,0,0,1,3.359,17.61,22.875,22.875,0,0,0,4.357,12.527l.272.272,6.172,6.082,1.543-1c1-.817,2-1.725,3-2.451a29.226,29.226,0,0,0,3.812-3.812c4.266-4.357,7.988-9.168,11.8-13.888,1.634-2,2.814-4.266,4.266-6.354s4.357-6.989,6.536-10.439c1.271-2,2.179-4.357,3.268-6.536a11.258,11.258,0,0,1,1.18-1.543h.091c-.908,2.179-1.815,4.357-2.723,6.445s-2.451,5.719-3.994,8.442-3.54,6.354-6.354,8.9a34.125,34.125,0,0,0-3.086,3.9c-3.177,3.9-6.354,7.988-9.713,11.8a116.937,116.937,0,0,1-8.442,8.26,8.349,8.349,0,0,0,.817,2.269,14.977,14.977,0,0,1,2.179,5.265c1,3.722,1.906,7.443,2.9,11.165a4.266,4.266,0,0,1,.091,1c.091,4.811.091,9.622.091,14.433,0,3.359,0,6.717-.182,10.076a67.1,67.1,0,0,1-.635,7.262c-.272,1.634-1.089,3.177-1.271,4.811-.363,3.722-1.362,7.353-1.634,10.983-.363,5.356-1.634,10.53-2.632,15.7a53.46,53.46,0,0,1-2.269,7.171l-3.177,9.259a18.41,18.41,0,0,0-.545,2.179c-.908,4.448-2,8.8-2.632,13.253a30.59,30.59,0,0,0,.182,11.346,16.518,16.518,0,0,0,1.906,4.992,3.631,3.631,0,0,1,.182,1.18,6.442,6.442,0,0,0-1.452.635,2.018,2.018,0,0,0-.817,1.18c0,.363.545.817.908,1.089s.454.091.635.182c3.449,1.18,4.448,4.175,2.36,7.262a7.809,7.809,0,0,1-1,1.18c-2.088,2.088-2,4.448-.726,6.9s1.543,3.086,2.451,4.629c2.179,3.9,1.634,8.169.635,12.436v.272A12.889,12.889,0,0,1,387,550.63c-2.178,3-2.632,6.445-2.542,9.985.091,5.265.272,10.529.363,15.794a45.934,45.934,0,0,1-.454,6.989,37.216,37.216,0,0,1-1.543,6.9,82.664,82.664,0,0,1-3.54,7.625c-1.18,2.542-4.266,3.9-6.99,5.083-.454.182-.908.182-1.271.363-3.449,1.906-6.354.454-9.077-1.634a18.245,18.245,0,0,1-4.629-5.9c-1.906-3.54-2.451-7.443-3.631-11.256a10.438,10.438,0,0,0-2-4.266c-2.088-2.179-2.9-4.811-3.812-7.443-.454-1.18-.726-2.451-1.089-3.722-1-3.177.182-6.173.272-9.259s.454-4.175.635-6.263a16.339,16.339,0,0,0-3.9-12.073c-1.815-2.179-3.631-4.448-5.265-6.717-3.994-5.537-5.991-11.619-4.9-18.427a22.06,22.06,0,0,1,1.452-5.265,17.066,17.066,0,0,0,1.089-5.809,3.541,3.541,0,0,0-.272-1.815c-1.906-3.722-1.634-7.716-1.452-11.619a6.263,6.263,0,0,1,1.815-3.54,3.812,3.812,0,0,0,1.089-3c0-2.723-1.271-5.174-1.725-7.806-.182-.908-.454-1.725-.635-2.632-.817-5.265-1.634-10.53-2.632-15.794a34.673,34.673,0,0,0-2.088-5.991c-1-2.451-1.906-4.992-3.086-7.262s-3.086-4.9-4.357-7.443c-2-3.994-3.9-8.079-5.809-12.163l-1.089-2.179-1.271,1.362a7.315,7.315,0,0,1-5.719,2.814,25.688,25.688,0,0,0-4.539.635h-.908c-2.9-.726-5.628.363-8.351.817a11.981,11.981,0,0,0-2.814,1.362,3.812,3.812,0,0,1-1.452.545c-2.36,0-4.448,1-6.536,1.815a14.977,14.977,0,0,1-3.631,1.18,6.082,6.082,0,0,0-3.631,1.725l-5.174,4.811a3.085,3.085,0,0,0-.908,1.089c-1,3-3.359,5.265-4.9,7.9a31.68,31.68,0,0,1-7.625,8.533l-2.088,1.543-5.628,3.722c-2.36,1.543-3.177,4.085-4.176,6.445s-2.269,5.809-3.359,8.623a2.814,2.814,0,0,1-.454,1,5.134,5.134,0,0,0-1.271,5.083c.363,1.725-.454,5.537-1.452,8.169a3.443,3.443,0,0,0-.182,3,10.07,10.07,0,0,1,.545,3.086c1,4.085,2.269,8.079,2.9,12.164a54.737,54.737,0,0,1,.363,8.8,2.814,2.814,0,0,1-.635,1.725c-1.362,1.362-1.18,3-1,4.72s-2.814,39.214-3.359,40.666a31.68,31.68,0,0,0-2.088,9.168,9.168,9.168,0,0,0,.726,4.266c1.271,3,2.632,5.991,3.722,9.077,2.269,6.445,4.811,10.53,5.9,18.971.363,4.629,2.814,5.174,1.18,9.077-2.814,6.717,5.356,9.8,6.808,12.164,2.9,3.449,3.722,5.446,3.9,9.077.091,1.906-.726,4.9-.635,6.808s3.994,8.986,3.994,10.167m118.367-142.24c1.362-.908,1.452-.908,1.362-1.452a28.874,28.874,0,0,0-.182-3.9,46.446,46.446,0,0,1-.091-16.611c1.543-7.171,2.179-14.614,5.174-21.513,1.634-3.631,2.542-7.625,3.722-11.528s1.815-9.713,2.451-14.614a2.542,2.542,0,0,0,0-.908c-.454-1.906.272-3.631.817-5.356a20.707,20.707,0,0,0,.726-2.179c.726-3.812,1.452-7.625,1.906-11.437a60.625,60.625,0,0,0,0-6.354c.091-4.993.272-10.076.272-15.068a33.583,33.583,0,0,0-.635-7.08c-.908-3.994-2.088-7.988-3.177-11.891a6.082,6.082,0,0,0-.635-1.18c-.635-1.18-1.362-2.36-1.906-3.631a10.348,10.348,0,0,0-4.176-4.448l1.725,9.985a1.271,1.271,0,0,1-.817-.908,58.27,58.27,0,0,0-4.9-12.436,28.958,28.958,0,0,1-2.36-5.9,34.765,34.765,0,0,1-1-8.986,21.786,21.786,0,0,0-1.271-6.263,41.573,41.573,0,0,0-1.815-4.176,6.808,6.808,0,0,0-3.54-3.722c-1.906-.908-3.812-1.906-5.628-3a4.357,4.357,0,0,1-1.634-1.543,4.9,4.9,0,0,0-2.632-2.088l-7.171-2.9a39.941,39.941,0,0,0-13.8-2.9,17.337,17.337,0,0,0-6.082.545,46.3,46.3,0,0,0-7.262,3.9,11.257,11.257,0,0,0-1.815,1.634l1.634.908c-3.722.091-5.537,2.179-6.717,4.9-.272.635-.726,1.18-1,1.815-.908,2.179-2.723,3.812-3.086,6.263s-.454,2.36-.635,3.631a9.168,9.168,0,0,0,1.362,6.536,14.707,14.707,0,0,1,1.725,3.722,21.054,21.054,0,0,0,1.362,3.086,40.576,40.576,0,0,1,5.265,14.977c.272,1.725.363,3.449.545,5.174h-.454a25.991,25.991,0,0,1-.635-2.542,37.125,37.125,0,0,0-2.814-9.8,2,2,0,0,1-.363-1c.182-1-.454-1.725-.817-2.542-1.18-2.269-3.268-3.994-4.085-6.445h-.545c0,4.539.272,8.986-.091,13.434s.908,6.536-.726,9.713c-.182.272.272.817.363,1.271s.363,2.723-.908,3.812l-.726-1.18a47.838,47.838,0,0,0-1.634,13.707c.454,8.442,3.449,16.157,6.808,23.782a69.263,69.263,0,0,0,5.9,11.256c3,4.357,3.722,9.713,6.626,14.16a1.363,1.363,0,0,1,.182.454c1.089,4.72,2.451,9.44,3.177,14.251.454,3.268,1,6.445,1.725,9.622l1.634,7.262,2.542-.363c2-.272,4.085-.182,5.446,1.18s5.356,4.448,6.808,7.716a7.534,7.534,0,0,1,8.986,2.542,4.357,4.357,0,0,0,2.9,1.906,22.507,22.507,0,0,1,5.174,2.178,2.451,2.451,0,0,1,1.271,1.543c.272,2,1.362,2.542,3.268,2.632a5.148,5.148,0,0,1,4.629,4.448c.182,1.089.363,2.179.635,3.631M24,421.915a14.344,14.344,0,0,1,1.634-1.815c2.36-1.815,2.723-3.359,1.543-6.082A38.488,38.488,0,0,1,25,408.754a6.536,6.536,0,0,0-2.088-3.359,6.263,6.263,0,0,1-2.269-3.9c-.454-3.812-.091-7.353,2.542-10.53a53.555,53.555,0,0,0,5.991-8.9,48.109,48.109,0,0,0,2.9-7.9c1.18-3.54,3.177-6.263,6.626-7.716a4.811,4.811,0,0,1,2.179-.182,1,1,0,0,1,1,1.271,1.035,1.035,0,0,1-1.271,1c-2.179-.363-3.54.908-4.448,2.542a62.54,62.54,0,0,0-2.542,5.809c-1.452,3.359-2.542,6.9-4.539,9.985a79.431,79.431,0,0,0-5.265,9.35,7.08,7.08,0,0,0-.545,5.083,3.9,3.9,0,0,0,4.266,2.9c3.086-.272,5.083-2.088,6.808-4.448a4.992,4.992,0,0,0,.726-2.088,24.327,24.327,0,0,0,.182-3c.091-1.725.182-1.815,1.906-2.088s3.177-1.452,3.086-2.814-.454-3.086-.726-4.72c1.18-1,1.543-1,2.542.454a1.634,1.634,0,0,0,2.451.545c2.179-1.362,4.176-3.086,4.992-5.537a33.4,33.4,0,0,0,1.271-8.26c.182-2.723,1.725-5.265,4.448-5.9a44.029,44.029,0,0,1,5.446-.726c.272,0,.635.272,1.362.726a11.894,11.894,0,0,1-2,1,10.889,10.889,0,0,1-1.815.091c-2.632.182-3.722,1-4.357,3.54a17.973,17.973,0,0,0-.635,4.539,17.882,17.882,0,0,1-2.269,8.079c-1.362,2.723-2.9,5.356-4.266,8.079s-2.088,3.722-1.906,6.172a13.163,13.163,0,0,0,2,0c1.634-.272,3.177-.635,4.266-2,3.994-.182,5.9-3,8.079-5.809s2.9-3.812,2.814-6.263,1.815-5.9,4.176-7.988a1.634,1.634,0,0,1,2.451-.091c-2,2.179-4.629,4.176-3.722,7.806a21.967,21.967,0,0,1,3.449-1.271,13.707,13.707,0,0,1,11.437,3.086c2.542,2.088,4.266,5.083,6.263,7.806s1.543,3.177,2.632,4.539,3.449,3.9,6.354,4.085a32.86,32.86,0,0,0,11.8-1,4.266,4.266,0,0,0,2.9-3.268,13.127,13.127,0,0,0,.454-2.723,3.9,3.9,0,0,0-2.814-1.18,25.871,25.871,0,0,1-9.8-2.9,5.265,5.265,0,0,1-2.632-2.723l-2.088-5.537a38.851,38.851,0,0,1-1.362-3.9A12.345,12.345,0,0,0,88,372.445l-9.713-9.35a4.811,4.811,0,0,1-1-1.271l-3.722-7.806c-2.088-4.448-1.634-8.714.726-12.89a17.519,17.519,0,0,1,3.812-5.083,17.974,17.974,0,0,0,1.271-1.362c3.722-3.812,5.628-9.077,9.531-12.8a3.267,3.267,0,0,0,.635-1.18c1.18-3.177,2.451-6.445,3.54-9.622a7.716,7.716,0,0,0,.182-4.176c-2.9,1.725-5.809,3-9.077,2.814a4.72,4.72,0,0,1,1.634-1.452c1.18-.635,2.36-1,3.449-1.634s4.539-3.449,6.989-4.992a19.97,19.97,0,0,0,3.54-3.54,5.628,5.628,0,0,0,.454-6.626c-1.089-1.815-2.36-3.54-3.631-5.265a20.242,20.242,0,0,1-3.268-9.622c-.182-1.634.272-3.449-.182-4.992A33.222,33.222,0,0,0,84.547,255.8c-.908-.908-1.725-1.634-3.086-1.362s-.091-.726-.272-.908c-2.814-3.177-3.359-7.262-4.539-11.074-.363-1.18-.908-2.269-1.543-3.812l-1.18,1.815a22.055,22.055,0,0,1-2.36,3.086A139.062,139.062,0,0,1,58.5,254.168a59.727,59.727,0,0,0-10.257,9.44c-2.088,2.451-4.448,4.811-6.626,7.262s-5.537,4.448-6.626,7.988c-.091.363-.454.635-.726.908l-5.9,7.534c-.908,1.089-1.271,2.179-.545,3-1.271,1.815-2.451,3.268-3.359,4.9-2.451,4.176-3.812,8.8-5.356,13.344a5.809,5.809,0,0,0-.182,1.815c0,1.18.091,2.451.091,3.631s-.272,3.722,2,4.811c-1.725,1.089-1.362,2.451-1,3.812.908,3.994,3.177,7.353,4.992,10.893a58.1,58.1,0,0,1,2.9,5.174,14.161,14.161,0,0,1,.817,7.625c-.363,2.451-.726,4.992-1.271,7.443s-.545,3.631-2.269,4.811a.726.726,0,0,0-.272.635c.363,1.18-.454,1.815-1,2.632s-2.36,4.266-3.449,6.445a12.164,12.164,0,0,0-.545,2,7.716,7.716,0,0,1-.635,1.906,15.068,15.068,0,0,0-2,8.351,22.148,22.148,0,0,1-1.543,7.534A31.226,31.226,0,0,0,14.2,394.23c-.363,2.723-.182,5.537-.726,8.17s.726,5.356,1.089,8.079a1.815,1.815,0,0,0,.454.817,32.678,32.678,0,0,1,5.537,8.623,3,3,0,0,0,3.359,2.088M172.96,512.6l-.363.545c-.091.272-.091.635-.182.908-.908,4.448-.091,8.8,1,13.071s1.634,7.625,3.177,12.073c2.814,6.082,3,5.628,4.539,9.077s6.536,11.437,10.257,17.065a49.742,49.742,0,0,1,4.811,9.531c1.362,3.631,4.266,10.257,4.72,13.8a52.558,52.558,0,0,0,1.362,7.625c1.815,5.991,3.9,12.164,7.443,17.61a19.692,19.692,0,0,0,1.452,1.815c1.089,1.18,1.271.817,1.906.635a5.357,5.357,0,0,0,1.362-.726c1.271-1,2.814-1.271,4.266-1.906a1.271,1.271,0,0,1,1.906.908.545.545,0,0,1-.272.726l-4.629,2.36a2.269,2.269,0,0,0-1.543,2.542q.635,5.355,1.362,10.62c.454,3.812,3.268,6.445,5.174,9.44.272.454,1,.545,1.634.908a7.716,7.716,0,0,1,5.446-2.269,3.176,3.176,0,0,0,1.634-.635l6.172-4.72,1.362-.817c.182,1.634,1.362,1.362,2.814,1.452l-2.269,1.634a41.472,41.472,0,0,0-3.449,2.632,2.814,2.814,0,0,0-.908,1.906c-.091,2.088,0,4.085-.091,6.172a5.356,5.356,0,0,0,1.362,3.9,1.906,1.906,0,0,0,1.634.545c2-.454,2.542-1.634,2-3.722s-1.18-5.628.908-8.169,2.723-1.815,4.266-.545,3.54,5.809,4.266,9.168c.182.635-.182,1.18-1.18,1.089a12.527,12.527,0,0,1-1.815-4.266c-.091-.454-.091-1-.363-1.271a2.45,2.45,0,0,0-1.452-.726c-.272,0-.817.817-.726,1.18a31.861,31.861,0,0,0,1.18,5.083,2.531,2.531,0,0,0,1.725,1c.635.091,3,.272,4.266.363.908-1.815,1.362-3.722,2.632-4.72a6.082,6.082,0,0,1,3-.908,3.359,3.359,0,0,0,2.9-3.359,14.705,14.705,0,0,0-1.906-6.989,21.15,21.15,0,0,0-5.719-6.445,8.442,8.442,0,0,1-3.812-6.354c-.182-2.179,1.362-3.994.454-5.9s-1-9.8-6.626-8.8c-.182-.091-1.815.091-1.906-.091s-.545-1.18-.363-1.634.908-.545,1.452-.635h.182a4.175,4.175,0,0,0,3.631-5.446,120.093,120.093,0,0,0-4.72-11.891,1.362,1.362,0,0,0-2.542.545c0,2.088,0,4.085-.363,4.72s-.635-.817-.817-1.089c-.635-17.61,1.543-20.878,2.814-25.6s3.54-27.5,3.086-33.4-.363-6.99-1.271-10.53a3.086,3.086,0,0,0-3.359-2.542,25.326,25.326,0,0,0-5.446,1.18,20.332,20.332,0,0,1-7.171,1.18,9.078,9.078,0,0,0-3.177.363,8.442,8.442,0,0,1-5.174-.091,45.827,45.827,0,0,0-7.262-1.725,26.927,26.927,0,0,0-9.35-.182,9.258,9.258,0,0,1-4.992-.363c-5.265-1.815-10.348-3.994-15.522-5.9-1.452-.545-3-1.271-4.72-1m183.269-2.36-.545.182c-1.634-1.543-3.177-3.086-3.268-5.719s-.091-4.448-.363-6.626a7.352,7.352,0,0,0-1-2.9c-1.089-1.815-2.451-3.449-3.54-5.265a4.811,4.811,0,0,0-3.359-2.451c-3.54-.726-7.534,1.906-7.988,5.446s-.272,6.263,1.271,9.35a8.8,8.8,0,0,1-.272,9.077,16.312,16.312,0,0,0-1.543,5.174c-.363,1.725,0,2.451-.182,3.631a13.162,13.162,0,0,0,1.271,7.806,82.875,82.875,0,0,0,5.809,9.8c2.269,3.359,4.811,6.354,5.991,10.348a19.97,19.97,0,0,1,.545,9.894,26.505,26.505,0,0,0-.182,11.982c.635,2.723,1.18,5.446,3.268,7.625a14.161,14.161,0,0,1,2.451,4.811c1.452,4.175,1.906,8.714,4.085,12.8a12.708,12.708,0,0,0,7.534,6.536,3.774,3.774,0,0,0,4.085-.545,1.453,1.453,0,0,1,1-.454c2.451.272,3.631-1.543,5.083-3.086,3.9-4.176,4.9-9.622,5.628-14.978s.635-10.62.817-15.976a30.676,30.676,0,0,0,0-3.449c-.363-4.992.182-9.713,2.723-14.16a16.794,16.794,0,0,0,1.634-4.992c1.089-5.174-1.089-9.531-3.722-13.707a6.717,6.717,0,0,1,.182-7.988A27.776,27.776,0,0,0,386,519.587a2.269,2.269,0,0,0-2.088-3.631h-3.722a12.4,12.4,0,0,1-.182,1.725c-.091.635-.182,1-.272,1.543-1.543-1.452-1.452-3.086-1.543-4.72a30.232,30.232,0,0,0-.454-4.539c-.545-2.542-2.179-3.177-4.72-1.815.182,2.542.363,5.265-1.089,7.716a12.344,12.344,0,0,1-.635-3.268c-.182-2.179-.272-4.357-.635-6.536a5.9,5.9,0,0,0-5.9-4.811c-2.088,3.086-.635,6.354,0,9.8a8.079,8.079,0,0,1-2.723-6.445,25.6,25.6,0,0,0-.363-4.357,2.36,2.36,0,0,0-.635-1.362,28.147,28.147,0,0,0-3.086-2.36c-1.543-1-3.086-.363-3.359,1.452s-.182,2.542-.363,3.9a7.443,7.443,0,0,0,1.18,5.628,8.987,8.987,0,0,1,.817,2.542M283.52,13.985l-10.53,2.269a8.8,8.8,0,0,0-2.088,1c-1.271.635-2.451,1.452-3.812,2.088-3.268,1.452-6.263,3.086-7.534,6.808a3.086,3.086,0,0,1-1.089,1.452c-1.815,1.271-3.722,2.632-5.628,3.812s-6.354,3.268-9.44,5.174a8.986,8.986,0,0,0-4.448,7.353c-.091,1.18-.182,2.451-.272,3.631-.182,2.723-.635,5.356-3.177,6.9a1.362,1.362,0,0,0-.545.454c-.726,1.452-1.452,2.9-2.269,4.357a27.685,27.685,0,0,1-2.088,3,31.313,31.313,0,0,0-2.542,3.177c-1.725,3-3.54,5.9-3.268,9.531a1.362,1.362,0,0,1-.091.454c-.726,2.451,0,4.629,1.271,6.717a42.842,42.842,0,0,1,1.815,3.9,9.987,9.987,0,0,0,.817,1.271l1.452-1.18c-.182,1.271-.454,2.179-.545,3.177a1.271,1.271,0,0,0,1.18,1.634c1.089.091,1.271-.635,1.271-1.452a4.085,4.085,0,0,0,0-1.18,4.085,4.085,0,0,1,1.18-3.994c.363-.454.817-1.089.726-1.543-.545-2.36.182-4.448.908-6.626a8.173,8.173,0,0,1,4.811-5.446,4.992,4.992,0,0,0,3-3.177,26.053,26.053,0,0,1,2.814-4.629,2,2,0,0,1,1.362-.635c3.994-.091,6.9-2.36,9.894-4.629s3.631-2.088,5.9-1.362,1.725.272,2.088-1.271a53.459,53.459,0,0,1,1.815-6.536,23.151,23.151,0,0,1,2.269-3.631c1.089-1.725,2.179-3.449,3.086-5.265s2.088-3,1.089-5.083a3.45,3.45,0,0,1,.363-2.632c1.18-2.269,2.088-4.72,4.266-6.354a16.252,16.252,0,0,0,1.815-1.815c1.543-1.543,2.814-3.177,2.814-5.537a6.171,6.171,0,0,1,.545-1.725l.817-2.542m-22.6,43.571c-2.632,1.543-4.811,2.9-7.171,4.176s-3.994,1.543-5.9,2.451a7.08,7.08,0,0,0-2.451,1.815,14.612,14.612,0,0,0-1.543,3c-.635,1.362-1.18,2.9-2.814,3.359-3.268.908-4.176,3.54-4.539,6.445a5.627,5.627,0,0,0,.454,3.722,3.54,3.54,0,0,1,.272,4.176l-1.906.454c-1,2.542-.908,4.176.091,6.173H236.5l15.25-3.177c1.906-.454,3.722-1.18,5.628-1.452s4.448-.726,5.809-2.9a2.45,2.45,0,0,1,.908-.635l4.992-2.723.817-4.811c-1.089-.635-2.9-.908-2.814-2.9l4.9,1.452a1.089,1.089,0,0,1,.726,1.634,28.69,28.69,0,0,1-1.634,3.268c-.726,1.18-.454,1.815.908,2.088h.726c1.815.545,3.9.454,5.174,2.451s1.543.908,2.723.726a6.263,6.263,0,0,0-.363-2,9.531,9.531,0,0,1-1.089-5.537,4.176,4.176,0,0,0-.635-2.542,35.853,35.853,0,0,0-3.359-3.449c-1.452.454-2.9,1.362-4.176,1.089s-3.086.182-4.176-1.271c1.634-2.451,4.357-2.542,6.808-3.359-2-1.362-4.357-1-6.536-1.815,1.725-1.906,3.812.091,5.719-1.18a20.97,20.97,0,0,0-1.543-2c-1.815-1.725-4.357-2.542-5.719-4.9a.746.746,0,0,0-.545-.363c-1.725.363-2.723-1.18-3.994-1.543M11.657,410.387c-.272,1.725-.272,1.725.454,3.086a20.514,20.514,0,0,1,2.632,7.262,20.7,20.7,0,0,0,1.18,4.629c.817,2,1.725,4.085,3.812,5.174a4.106,4.106,0,0,0,5.446-2,3.438,3.438,0,0,0-2.36-4.9l-.635-.182a6.281,6.281,0,0,1-3.9-3.54c-1.452-3.722-4.629-6.173-6.626-9.531M251.387,650.3a4.993,4.993,0,0,0-.454,2.088,14.524,14.524,0,0,0,0,2.9,3.722,3.722,0,0,0,2.9,3.086,22.5,22.5,0,0,0,4.266.182c1.452-.091,2.632-1.725,1.815-2.632a9.893,9.893,0,0,1-1.362-3.359,35.4,35.4,0,0,0-2.542-5.083c-1-1.634-2.36-1.543-3.359,0a23.045,23.045,0,0,0-1.271,2.723M227.06,649.3c1.271.817,3.449.726,3.449,0s.182-3.177.363-4.72.635-1.815-.363-2.542-1.906,0-2.814.363a3.086,3.086,0,0,0-1.634,2.088m-6.989,5.9a4.629,4.629,0,0,0,3,4.629,1,1,0,0,0,1.362-1,5.265,5.265,0,0,0-.363-1.089c-.726-2.179-1.634-4.357-.182-6.536a1.452,1.452,0,0,0-.091-1.271,2.36,2.36,0,0,0-1.271-.817c-.182-.091-.726.363-.817.635-.635,1.906-1.089,3.813-1.634,5.356m26.959,2.451c-1.452.363-2,1.634-1.543,3.54a1.089,1.089,0,0,0,1.815.545,4.892,4.892,0,0,0,.817-3.268.908.908,0,0,0-1.089-.817M274.171,85.695c-1.18-1.271-1.18-1.271-5.356-.908a3.358,3.358,0,0,0-3.086,1.906l4.357-.635,4.176-.363M227.7,93.138a1.18,1.18,0,0,0,1.18,1.362,26.507,26.507,0,0,0,3.54-.545c.182,0,.454-.272.545-.363a6.625,6.625,0,0,0-.091-1.271c-.363.091-.817,0-1,.182a2.906,2.906,0,0,0-.545,1c-1.362-.182-2.36-1.089-3.631-.454M74.29,234.652c-1.452-.726-1.452-.726-2.814.091.726,1.725,1.089,1.725,2.814-.091m-30.5,155.584-.454-.182-1.725,3c2.179-.726,2.179-.726,2.179-2.723M28.359,409.57l.908-2.542c-2,.363-2,.454-.908,2.542M72.293,232.928c-1.634-.726-1.634-.726-2.723.272,1,.635,1.815.272,2.723-.272m1.18,4.448c-1.452.272-1.452.272-.908,1.452l.908-1.452m155.4,416.645a.363.363,0,0,0-.635.182,1.362,1.362,0,0,0,.545,1.271c.182.091.272.091.454-.182a1.362,1.362,0,0,0-.363-1.271M226.788,95.135c-1-.545-1-.545-1.452.454l1.452-.454m11.165,398.581.454.272c.182-.182.454-.363.545-.545a2.36,2.36,0,0,0-.091-.817H238.5l-.454,1.271M101.7,300.916l-.635-.272c-.091,0-.182.272-.363.363l.363.182.635-.272m-.817,2.542.272.182v-.182l-.182-.363-.272.272" transform="translate(-0.765 -0.823)" fill="#f2c185"/><path d="M560.3,366.491c1.634.182,2.088,1.543,2.451,2.723s.817,3.54,1.271,5.265.635,2.542,1,3.722a13.986,13.986,0,0,1,.817,3.268c0,3.177,1.725,5.446,3.812,7.534l7.625,7.9c2.088,2.179,4.993,2.814,7.806,3.631a1.18,1.18,0,0,0,.908,0c1.362-.908,2.451-.182,3.631.363s2.179,0,2.269-1.452a6.173,6.173,0,0,0-5.719-5.991c-3.449-.091-5.537-2.36-5.265-5.809a2.9,2.9,0,0,0-.091-1.089c-.545-1.815-.454-2.451,1-3.449,3.177-2.36,5.81-2.542,9.531.454,1.906,1.543,3.812,3,5.809,4.448a4.176,4.176,0,0,0,2.088.817c3.177.182,4.992,2.179,6.626,4.629a17.339,17.339,0,0,0,2.723,3.177,1.725,1.725,0,0,0,2.451,0c.726-.726.545-1.452.091-2.269s-1.543-3-2.451-4.357a12.8,12.8,0,0,0-1.815-2,23.871,23.871,0,0,0-7.08-5.356,14.433,14.433,0,0,1-6.263-6.717,5.175,5.175,0,0,1,1.089.545l4.72,4.357c.272.272.545.635.908.726,2.814.272,4.175,2.9,6.354,4.176a8.9,8.9,0,0,1,2.632,2.814c1.18,1.634,2.088,3.359,3.177,4.992a3.813,3.813,0,0,1,.454,3.268,5.174,5.174,0,0,0-.091,2.451c.272,1.271,1,1.815,2,1.725a2.088,2.088,0,0,0,2.088-2.269c0-.726-.182-1.543-.182-2.269s.091-2.632.091-3.9a58.813,58.813,0,0,0-3.449-5.083c-2.088-2.542-4.357-4.9-6.626-7.171a31.588,31.588,0,0,0-3-2.451,2,2,0,0,1-.908-2.36c1.089,0,1.362.817,1.634,1.452a4.357,4.357,0,0,0,2.36,2.269,7.169,7.169,0,0,1,2.269,1.815c2.269,2.723,4.448,5.628,6.626,8.442l.817.726a4.992,4.992,0,0,0-.635-4.357,20.514,20.514,0,0,0-3.812-5.356c-1.815-1.725-2.9-4.085-4.266-6.172a1,1,0,0,1,.272-1.543l3.449,5.537c1,.091,2-.182,2.451.272a6.846,6.846,0,0,1,.908,2.179c.272.726,1.452,3.359,2.269,4.9a7.625,7.625,0,0,1,.817,5.9,9.8,9.8,0,0,0,.182,5.628c.363,1.089.908,2.451-.182,3.177s-2.632,2.36-4.629,1.725a2.633,2.633,0,0,1-2-2,1.452,1.452,0,0,0-1.362-1.362c-2.723-.272-4.357-2-5.628-4.176a10.439,10.439,0,0,0-5.9-4.629,23.364,23.364,0,0,1-8.351-5.446A5.266,5.266,0,0,0,587.8,383.1c-1.543-.363-3.449-.363-4.266,1.271S581.995,388,583.175,390s1.906,2.36,3.722,2.269a4.085,4.085,0,0,1,3.359,1.634c.908,1.18,1.906,2.36,2.723,3.631a4.357,4.357,0,0,1,.363,3.722,2.088,2.088,0,0,1-3.268,1.362,3.812,3.812,0,0,0-3.268-.363,3.268,3.268,0,0,1-1.815-.091l-6.536-2.632a7.445,7.445,0,0,1-2.269-1.543l-8.533-8.9a13.888,13.888,0,0,1-3.177-6.99c-.545-2.723-1.271-5.446-2-8.169a4.356,4.356,0,0,1-.363-1.271c.272-2.36-.908-4.266-1.816-6.263Z" transform="translate(-51.703 -33.81)" fill="#f2c185"/><path d="M600.437,355.849c-3.631-1.634-7.171-3.359-9.713-6.445a16.792,16.792,0,0,1-2-4.266,33.948,33.948,0,0,1-2-8.623c-.363-2.632-.908-5.265-1.362-7.9s-.817-5.537-1.271-8.351c-.091-.454-.363-.817-.454-1.271s-.363-1.906-.545-2.814l.454-.182a3.542,3.542,0,0,1,.635.908,76.964,76.964,0,0,1,2.269,8.26c.635,3.813,1,7.716,1.362,11.528A30.318,30.318,0,0,0,590,345.955a10.45,10.45,0,0,0,4.539,5.537,34.918,34.918,0,0,1,3.268,1.452,6.626,6.626,0,0,1,2.542,2.814Z" transform="translate(-53.807 -29.159)" fill="#f2c185"/><path d="M485.21,301.6c-.272,3.359-.545,6.808-.908,10.167a47.2,47.2,0,0,1-1,5.809c-.726,3.177-1.634,6.354-2.542,9.44q-2.451,8.26-5.174,16.521a11.438,11.438,0,0,1-2.088,3.812,9.632,9.632,0,0,1,.272-1.634c1.362-4.085,2.9-8.169,4.175-12.254s2-7.353,2.9-11.074,1.634-6.263,2.36-9.531a40.848,40.848,0,0,0,.454-4.629,39.467,39.467,0,0,1,.454-3.994,15.068,15.068,0,0,1,1.089-2.632Z" transform="translate(-43.693 -27.831)" fill="#f2c185"/><path d="M557.862,364.636l-4.992-3.54c-.091-.091-.272-.182-.363-.272-.454-2.179-2.542-2.451-3.994-3.359l-3.268-2.088a8.987,8.987,0,0,0-2.632-1.18,11.437,11.437,0,0,1-6.99-4.266A29.325,29.325,0,0,1,532.9,346.3l2.542,1.634a18.058,18.058,0,0,1,2.632,2.179c1.815,2,4.448,2.542,6.808,3.54a84.14,84.14,0,0,1,8.169,4.448c.454.272.635.817.908,1.271a16.978,16.978,0,0,0,2.088,2.36,4.539,4.539,0,0,1,1.906,3h.091" transform="translate(-49.174 -31.955)" fill="#f2c185"/><path d="M515.134,293.9c0-.363-.182-.908,0-1.18,1.18-2.451.545-4.9,0-7.353a22.967,22.967,0,0,1-.363-3.812c-.091-.635,0-1.362-.091-2a20.152,20.152,0,0,1,1-9.622,8.9,8.9,0,0,1,3.449-4.539,21.694,21.694,0,0,0-3.359,13.071c.182,3.359.726,6.808.908,10.167a21.508,21.508,0,0,1-.363,4.266,3.2,3.2,0,0,1-.726,1.18h-.363" transform="translate(-47.475 -24.49)" fill="#f2c185"/><path d="M495.3,304.291a7.714,7.714,0,0,1,1.815.908l6.626,5.9,2.088-.363,3.631,5.809-2.632-1.452c-2.088-1.362-2.088-1.452-4.357-1.271a7.988,7.988,0,0,0-3.812-5.356l-.545-.454-2.723-3.812Z" transform="translate(-45.705 -28.071)" fill="#f2c185"/><path d="M575.635,294.1c5.9,4.448,7.716,13.707,6.626,17.61a13.342,13.342,0,0,1-.545-1.362c-.545-2.179-1-4.448-1.543-6.626a6.807,6.807,0,0,0-.817-1.906l-3.54-5.537a13.248,13.248,0,0,1-.817-1.906l.545-.182" transform="translate(-53.059 -27.139)" fill="#f2c185"/><path d="M468.5,193.3a21.786,21.786,0,0,1,3.722,2.088,20.606,20.606,0,0,0,7.353,3.994,13.979,13.979,0,0,1,8.079,6.354,4.357,4.357,0,0,1-3.086-1.815,13.634,13.634,0,0,0-5.265-3.449,92.938,92.938,0,0,1-8.442-4.448c-1-.545-1.543-1.815-2.269-2.723Z" transform="translate(-43.232 -17.837)" fill="#f2c185"/><path d="M517.726,329.391l3.086,4.085c.272.454.454,1,.908,1.271a14.524,14.524,0,0,1,4.266,4.9c.635,1,1,1,2.632.454l1.634,2.451a5.719,5.719,0,0,1-1.634,0,9.077,9.077,0,0,1-4.266-3.268,32.139,32.139,0,0,0-3.268-3.449A32.313,32.313,0,0,1,517,329.754l.726-.454" transform="translate(-47.707 -30.387)" fill="#f2c185"/><path d="M467.853,192.406l-1.452,2.269c-2.088-3.177-5.265-5.628-5.9-9.531.726-.726,1.362-.726,1.815,0a16.616,16.616,0,0,1,.817,1.634,20.605,20.605,0,0,0,4.629,5.719h0" transform="translate(-42.493 -17.034)" fill="#f2c185"/><path d="M514.265,221.662,511,220.119a27.323,27.323,0,0,0-8.079-2.9,35.225,35.225,0,0,1-4.811-1.725h-.182L497.2,214.4l8.623,2.632c3.177.908,5.719,3.086,8.623,4.448l-.182.363" transform="translate(-45.88 -19.784)" fill="#f2c185"/><path d="M485.126,277.191c.908,5.174.272,10.62,3.177,15.794-1.543-.545-2.269-.817-2.542-2.179a37.126,37.126,0,0,1-.635-6.808,35.139,35.139,0,0,0-.454-4.085c-.091-.908-.182-1.815-.272-2.814h.635" transform="translate(-44.699 -25.57)" fill="#f2c185"/><path d="M564.3,279.3c3.54,2.9,5.719,6.354,7.9,9.985a1.389,1.389,0,0,1-1.725-.635l-6.172-8.623V279.3" transform="translate(-52.072 -25.773)" fill="#f2c185"/><path d="M473.545,211.242a4.08,4.08,0,0,1-.363-.726,44.116,44.116,0,0,0-4.539-10.893,5.265,5.265,0,0,1-.545-2.723c.182.182.454.272.545.454,1.634,3.722,3.268,7.443,4.9,11.256a10.347,10.347,0,0,1,.363,2.542h-.363" transform="translate(-43.193 -18.169)" fill="#f2c185"/><path d="M357.5,105c5.265,1.452,10.53,2.723,15.159,5.537l-.182.545-2.814-1.18-4.9-1.725c-2.451-.817-5.083-1.543-7.171-3.177H357.5" transform="translate(-32.989 -9.689)" fill="#f2c185"/><path d="M426.317,146.888l-6.717-5.9c.454,0,.817-.182,1-.091,1.725,1.362,3.449,2.723,4.992,4.176s.454,1.18.635,1.815Z" transform="translate(-38.719 -12.999)" fill="#f2c185"/><path d="M614.712,370.965a17.431,17.431,0,0,0-1.543-2.9,13.7,13.7,0,0,0-2.269-1.906l.272-.454a4.506,4.506,0,0,1,1.18.272,37.026,37.026,0,0,1,2.9,3.359c.272.272,0,.908,0,1.452h-.545" transform="translate(-56.372 -33.746)" fill="#f2c185"/><path d="M447.5,169.1a15.976,15.976,0,0,1,5.356,4.629c-2.9-.454-4.085-2.632-5.356-4.629" transform="translate(-41.294 -15.604)" fill="#f2c185"/><path d="M556.891,272.591a13.434,13.434,0,0,1,5.356,5.537l-.908-.545a39.082,39.082,0,0,1-3.359-3.359,9.8,9.8,0,0,1-1.089-1.725H556.8" transform="translate(-51.38 -25.145)" fill="#f2c185"/><path d="M439.7,161.9c3.449,2.451,3.812,2.814,3.812,4.266A8.533,8.533,0,0,1,439.7,161.9" transform="translate(-40.574 -14.94)" fill="#f2c185"/><path d="M514.131,297.4c-.091,3.086-2.451,4.085-3.631,5.9a12.211,12.211,0,0,1,3.631-5.9" transform="translate(-47.107 -27.443)" fill="#f2c185"/><path d="M521.6,262.885c.635-1.452,0-3.812,2.723-4.085-.182,2-1.543,2.9-2.723,4.085" transform="translate(-48.132 -23.881)" fill="#f2c185"/><path d="M509.653,305.4l-1.362,3.9c-1.634-1.362-1.543-1.634,1.362-3.9" transform="translate(-46.805 -28.181)" fill="#f2c185"/><path d="M493,300.92c-3.086-1.725-3.631-2.451-3.9-4.72a34.31,34.31,0,0,1,3.9,4.72" transform="translate(-45.133 -27.332)" fill="#f2c185"/><path d="M408.5,130.2a5.084,5.084,0,0,1,1.18.635c.545.454.908,1.089,1.362,1.543l1.452,1.18C410.315,133.922,409.317,133.014,408.5,130.2Z" transform="translate(-37.695 -12.014)" fill="#f2c185"/><path d="M486.317,301.083a6.717,6.717,0,0,1-.545-5.083c.726.908.726.908.545,5.083h0" transform="translate(-44.801 -27.314)" fill="#f2c185"/><path d="M616.834,376.03l-1.634-2.542c1.906-.363,2.269.091,1.634,2.542" transform="translate(-56.769 -34.454)" fill="#f2c185"/><path d="M344.091,100.7c2.179-.091,4.811.635,5.991,1.815h0l-5.991-1.815H344" transform="translate(-31.743 -9.291)" fill="#f2c185"/><path d="M602.1,360a8.442,8.442,0,0,1,5.083,3.631h.091A13.615,13.615,0,0,1,602.191,360H602.1" transform="translate(-55.56 -33.22)" fill="#f2c185"/><path d="M525.151,256.132c-.726-1.18-.726-1.18.635-2.632.272,1.271.272,1.271-.635,2.632" transform="translate(-48.415 -23.392)" fill="#f2c185"/><path d="M564.549,359.961l-3.449-.545c1.362-1.18,1.815-1.18,3.449.545" transform="translate(-51.776 -33.089)" fill="#f2c185"/><path d="M350.7,102.7a10.53,10.53,0,0,1,6.172,2.179h.091l-6.173-2.179H350.7" transform="translate(-32.361 -9.477)" fill="#f2c185"/><path d="M408.168,129.969c-1.725.182-2.179-1.634-3.268-2.269,1.452.272,2.269,1.452,3.268,2.36h.091" transform="translate(-37.363 -11.784)" fill="#f2c185"/><path d="M399.4,123.7l2.632,1.271C400.58,125.515,400.035,124.608,399.4,123.7Z" transform="translate(-36.855 -11.415)" fill="#f2c185"/><path d="M469.091,363.8a4.176,4.176,0,0,1,1.089-3c0,1.543,0,1.543-1.18,2.9h.091" transform="translate(-43.278 -33.293)" fill="#f2c185"/><path d="M455.872,177.2l1.906,2-.363.272-1.815-2,.272-.272" transform="translate(-42.041 -16.351)" fill="#f2c185"/><path d="M399.114,123.534l-2.814-1.089.272-.545a5.719,5.719,0,0,1,2.542,1.634h.091" transform="translate(-36.569 -11.249)" fill="#f2c185"/><path d="M533.721,240.734c-1.089-.545-1-1,.091-1.634v1.634" transform="translate(-49.179 -22.063)" fill="#f2c185"/><path d="M427,147.491a2,2,0,0,1,2,1.271,2,2,0,0,1-1.906-1.362H427" transform="translate(-39.402 -13.602)" fill="#f2c185"/><path d="M530.226,233.162l-.726-1.18.272-.182.908,1.18-.454.272" transform="translate(-48.861 -21.39)" fill="#f2c185"/><path d="M377.38,113.408l-1.18-.545.182-.363,1.18.545-.182.363" transform="translate(-34.715 -10.381)" fill="#f2c185"/><path d="M495.262,304.154l-.363.182h-1l.182-.635,1.089.454.182.182h0" transform="translate(-45.575 -28.024)" fill="#f2c185"/><path d="M528.5,245.515l.182-1.815.635.182-.817,1.543Z" transform="translate(-48.768 -22.488)" fill="#f2c185"/><path d="M526.572,228.3l.545.726-.272.182-.545-.726.272-.182" transform="translate(-48.565 -21.067)" fill="#f2c185"/><path d="M519.389,223.535l-1.089-.363V222.9l1.18.182v.454" transform="translate(-47.827 -20.568)" fill="#f2c185"/><path d="M607.691,364l1.18.454-.272.454-.908-.908H607.6" transform="translate(-56.067 -33.589)" fill="#f2c185"/><path d="M380.482,114.8l.908.363a1.545,1.545,0,0,1-.091.363l-1-.272V114.8" transform="translate(-35.093 -10.593)" fill="#f2c185"/><path d="M528.365,245.7v1.452c-.726-.635-.091-1,.091-1.452h0" transform="translate(-48.724 -22.672)" fill="#f2c185"/><path d="M457.172,182l.726.908-.272.182-.726-.908.272-.182" transform="translate(-42.161 -16.794)" fill="#f2c185"/><path d="M446.326,168.272l-.545.272-.182-.272.545-.272.272.363" transform="translate(-41.118 -15.502)" fill="#f2c185"/><path d="M554.9,271.1l1.815,1.362h.091a1.815,1.815,0,0,1-1.815-1.362Z" transform="translate(-51.204 -25.016)" fill="#f2c185"/><path d="M554.771,270.9l-1.271-.635.272-.363.908,1h.091" transform="translate(-51.075 -24.905)" fill="#f2c185"/><path d="M532,242.4l1.362.635-.272.454-1-1.089Z" transform="translate(-49.091 -22.368)" fill="#f2c185"/><path d="M532,242.2l-1-.726.363-.272.545,1.089H532" transform="translate(-48.999 -22.257)" fill="#f2c185"/><path d="M525.091,226.5l.363.182-.272.272H525v-.272" transform="translate(-48.445 -20.901)" fill="#f2c185"/><path d="M278.507,76.411v-.635c-.454-.091-1-.363-1.362-.182a16.793,16.793,0,0,0-8.17,6.173c1.18,1,1.634.091,2.088-.545a9.531,9.531,0,0,1,5.628-3.994,14.434,14.434,0,0,0,1.815-.817M258.9,97.016c.635.908.908,1,1.543.545a1.882,1.882,0,0,0,.091-2.814L258.9,97.016m3.449-3.086-.272-.272-.272.272c.091.091.182.272.272.272l.272-.272" transform="translate(-23.89 -6.97)" fill="#f2c185"/><path d="M426.563,427.352,426.2,425.9h.363l.272,1.452h-.272" transform="translate(-39.328 -39.301)" fill="#f2c185"/><path d="M32.652,380.88c-.272-.272-.545-.454-.454-.545a2.179,2.179,0,0,1,.454-.635c.182.091.454.272.363.363a2.542,2.542,0,0,1-.363.817" transform="translate(-2.97 -35.037)" fill="#f2c185"/><path d="M279.531,76.415a14.528,14.528,0,0,1-1.815.817,9.531,9.531,0,0,0-5.628,3.994c-.454.635-.908,1.543-2.088.545a16.793,16.793,0,0,1,8.17-6.173c.363-.091.908.182,1.362.182Z" transform="translate(-24.915 -6.974)" fill="#f2c185"/><path d="M258.9,98.969l1.634-2.269c1,1.089.908,2-.091,2.814s-.908.363-1.543-.545" transform="translate(-23.89 -8.923)" fill="#f2c185"/><path d="M262.645,95.772l-.272.272-.272-.272.272-.272.272.272" transform="translate(-24.186 -8.812)" fill="#f2c185"/><path d="M282.982,80.627c-2.269-1.089-5.083-1.089-6.626,1S274,84.439,273,85.982s-1.452,1.725-.454,2.723c2.542-.817,4.539-2.723,6.989-2.632l2.542-2.723a5.264,5.264,0,0,0,1.18-1.362,1.362,1.362,0,0,0-.363-1.271m-5.356,4.629c0-.182,0-.363.091-.363l2-1.362c-.363,1.089-.817,1.906-2.088,1.725m2-3.268-2.9,2c.545-1.543,1.271-2.723,3-2.542,0,.272,0,.454-.091.545" transform="translate(-25.098 -7.373)" fill="#f2c185"/></g></svg>