<svg xmlns="http://www.w3.org/2000/svg" xmlns:xlink="http://www.w3.org/1999/xlink" viewBox="0 0 587.84 571.31"><defs><style>.cls-1,.cls-4,.cls-5{fill:none;}.cls-2{clip-path:url(#clip-path);}.cls-3{fill:#ecbd83;}.cls-4{stroke:#231815;}.cls-4,.cls-5{stroke-miterlimit:10;}.cls-5{stroke:#ecbd83;}</style><clipPath id="clip-path" transform="translate(0 -5.82)"><rect class="cls-1" x="92.9" width="501.59" height="583.9"/></clipPath></defs><g id="レイヤー_2" data-name="レイヤー 2"><g id="レイヤー_1-2" data-name="レイヤー 1"><g class="cls-2"><path class="cls-3" d="M320.27,575.37c-1.74,1-2.85,1.9-4.91,1.75s-4-.4-4.68-2.22-.39-2.78-1.58-1.67a5.88,5.88,0,0,1-3.49,1.19,5,5,0,0,1-2.14-1.19,1.22,1.22,0,0,0-1.27-.16c-1.34.64-3.09,2.22-4.2,1.43a15.55,15.55,0,0,1-1.9-1.82,1.12,1.12,0,0,0-1.19-.4c-1.66.48-2.53,3.17-4.44,2.78-.47-.08-1.9-.88-2.45-.64-2.46,1.11-3.41,1.27-4.2-1.27a4.23,4.23,0,0,0-1-1.34c-1.42-1.59-2.61-2.94-2.06-4.84a4.08,4.08,0,0,0-.23-3.48,1.19,1.19,0,0,1,.14-1.68l.09-.07c1.83-1.51,2.78-2.85,1.35-4.84s-2.3-1.66-2.62-4a90.34,90.34,0,0,1-1.19-10.38c-.08-2.3-2.93-5.15-4.44-6.58s-3.4-6.42-4.43-8.4a56.13,56.13,0,0,1-2.14-6.58c-.24-1.5-1.35-7.53-1.75-9.27-2.69-9.83-7.37-18.23-9.91-20.68l-.47-.56a79.88,79.88,0,0,1-8.32-15.14c-2.22-3.88-5-13.07-5.39-15.77a56.1,56.1,0,0,0-1-5.62c-.16-.56-.32-1.59-.72-3.33s-2-2.78-1.42-4.36c1.19-3.88.39-7.77.31-11.73a34.68,34.68,0,0,0-.39-5.94c-.48-2.38-4.92-19.1-5.39-23.3a14,14,0,0,0-.32-1.83c-.95-3.88-1.19-7.77-2-10.54a61.55,61.55,0,0,1-1-6.34,51.67,51.67,0,0,0-1.35-7c-.31-1.11-3.09-7.93-3.64-9.27a61.34,61.34,0,0,1-2.46-9.59c-.48-3.25-.95-4.2-1.43-7.37a22.46,22.46,0,0,1-.16-3.57c.24-4.36.4-8.72.72-13a23.49,23.49,0,0,1,1.19-5.55,4.21,4.21,0,0,0-1.11-4.75c-2.7-2.7-5.31-5.39-7.77-8.32s-4.28-6-6.34-8.88a24.41,24.41,0,0,1-2.06-3.25c-1-1.82-1.91-3.57-2.7-5.47-1.9-4.28-3.8-8.64-5.63-13a83.68,83.68,0,0,1-3-9.28c-1.26-5.07-2.37-10.22-3.48-15.29a11.28,11.28,0,0,1-.24-2.46,3.67,3.67,0,0,0-.48-2.93c-.55,3.25-2.37,5.47-3.72,7.92s-2.38,2.3-3.73,3.17-2.22-.39-2.77-1.66l-.87-2-.4-.24c-1.11.16-1.43.87-1.58,1.9a37.65,37.65,0,0,1-9,19.9c-2.3,2.85-4.6,5.7-6.82,8.55s-3.48,5-3.32,8.16a10.64,10.64,0,0,0,.71,3.49c.95,2.38,2.06,4.6,3.17,6.9a7.15,7.15,0,0,0,1.51,1.82c2.93,2.86,6,5.63,8.87,8.64a14.57,14.57,0,0,1,3.33,7.37,30.08,30.08,0,0,0,.95,3.88,5.65,5.65,0,0,0,2.85,3.41c2.78,1.35,5.55,2.53,8.8,2.3s3.57,1,3.49,3.56a6.27,6.27,0,0,1-3.65,5.55c-2.93,1.51-6.1,1.75-9.35,1.75a19.34,19.34,0,0,1-3.72-.4c-2.54-.47-4.2-2.38-5.63-4.28a49.63,49.63,0,0,1-3.89-6.1,12.77,12.77,0,0,0-11.72-6.81,5.22,5.22,0,0,0-4.84,4.12,11.52,11.52,0,0,1-3.09,5.86l-.16.24c-2.45,4.28-6.58,4.28-10.7,4.36h-1.81c-2.37-.08-3.25-.88-3.56-3.33a2.16,2.16,0,0,0-.24-.48,9.21,9.21,0,0,0-3,3,24.23,24.23,0,0,0-1.75,2.94c-.39.79-.87,1.34-1.82,1.19a1.33,1.33,0,0,0-1.58.95l-1.59,3a5.92,5.92,0,0,0-.63,4c.55,2.85.71,5.63-1.11,8.24a6.66,6.66,0,0,0-.48,2.93,5.55,5.55,0,0,1-5.15,5.71,16.89,16.89,0,0,1-3.41-.08,2.23,2.23,0,0,1-1.5-.79c-1-1.59-2.14-3-2.62-4.91-1-4-1.59-8.09-3.88-11.65a5.93,5.93,0,0,1-.64-2.54c-.08-1-.08-2.14-.08-3.17a11.3,11.3,0,0,1,1.91-6.81,3.39,3.39,0,0,0,.55-1.43c.16-3.88,1.51-7.45,2.77-11a5.66,5.66,0,0,0,.4-2.54,15.61,15.61,0,0,1,4-12.68c-1.11-1.11-.23-2.06.32-3.17,1.51-2.85,3.09-5.7,4.36-8.72.71-1.66.71-3.64,1-5.46a1.91,1.91,0,0,0,0-.95c-1.11-2.3-.56-4.84-1.19-7.14a16.51,16.51,0,0,0-2-4.51,15,15,0,0,1-2.22-4.21c-.64-2.06-1.67-4-2.3-6.18a15.86,15.86,0,0,1-.48-3.88c-.07-1.51.08-3,.08-4.6-.08-4.12,1.59-7.77,3.33-11.41.32-.63.56-1.35.88-2s1.42-3.5,2.93-4.68a4.24,4.24,0,0,0,.63-1c1.91-2.78,3.25-5.95,5.71-8.4a7,7,0,0,0,1-1.51c1.35-2.38,3.41-4.2,5.31-6.18s5.07-5.47,7.53-8.24a30.79,30.79,0,0,1,5.47-5.23c1.74-1.19,3.33-2.62,5.07-3.89l4.6-3.48c1.9-1.35,3.56-2.86,4.2-5.39a5.87,5.87,0,0,0-2.22-6.18l-1.11-.72a7,7,0,0,1,1.82-3.8,11.3,11.3,0,0,1,5.63-3.65,9.12,9.12,0,0,0,5.55-3.33c.95-1.26,2.14-2.37,3.09-3.64a18.83,18.83,0,0,1,5.7-4.92,18.23,18.23,0,0,1,2.78-.95,6,6,0,0,0,1.42-.63c1.83-1.27,4.05-2.38,5.31-4s3.25-3.25,4.28-5.39a34.65,34.65,0,0,1,2.06-3.73c1.75-2.62,3.49-5.63,6-7.84a48.32,48.32,0,0,1,5.62-4.13,32,32,0,0,0,3.49-2.21,9.16,9.16,0,0,0,1.82-2.78,63.82,63.82,0,0,1,8.25-12.92c.55-.63,1-1.43,1.5-2.14l5.23-6.26a7.3,7.3,0,0,0,.8-.87c1.9-3.49,5.15-5.87,7.37-9.12a6.16,6.16,0,0,1,1.19-1l3.64-3.09,3.88-3.09c2.62-2,5.16-4,7.78-5.86s6-3.65,8.87-5.63S261.15,97,265,94.46s8-4,11.81-6.34,6-3,9-4.51a2.13,2.13,0,0,0,.88-.72A40.71,40.71,0,0,0,289,78.46a4.28,4.28,0,0,0,0-2.3c-.64-2.62-1.35-5.31-1.91-7.93s.32-6.5,1.59-9.51a19.87,19.87,0,0,1,3.64-5.86,31.27,31.27,0,0,0,2.86-4.76c.95-1.58,1.19-2.45,2.14-3.33a10.22,10.22,0,0,0,2.29-5.94,10.34,10.34,0,0,1,4-8.72,21.9,21.9,0,0,1,3.57-2.37c1.26-.64,2.69-1,4-1.59a12.45,12.45,0,0,0,1.5-.87,5.09,5.09,0,0,1,1.35-.79,5,5,0,0,0,3.41-2.78,12.86,12.86,0,0,1,6.65-6.18c1.51-.63,2.78-1.82,4.2-2.53a10.22,10.22,0,0,1,2.62-.87c2-.48,4-.72,6-1.27a10.71,10.71,0,0,0,2.77-1.43c.71-.47,1.35-1,2.06-1.58a8,8,0,0,1,5-.64c.31.08.47.72.79,1l-.56.32c-2.69-1-4.2.48-5.7,3.09A14.65,14.65,0,0,0,340,15.77a7.89,7.89,0,0,1-2.46,4.44,15.15,15.15,0,0,0-4,5.47,18.29,18.29,0,0,0-1,4.2,12.26,12.26,0,0,1-2.06,4.91c-2,2.78-2.93,6.34-4.84,8.8a3,3,0,0,0-.63,2.22c.08.4-.24.63-.32.95s1.51,5.07,2.7,5.71C330,54,332,56,332.56,59.12a8,8,0,0,0,3.33,5.47A2.88,2.88,0,0,1,337,67.45c-.32,2.37.71,4.27,1.74,6.26a3.27,3.27,0,0,0,3.33,1.58,9.78,9.78,0,0,1,4.76.95c1.5.71,3.25.64,4.91.87l9.83,1.43,2.14.48,2,.79h0l-16.33-2.69a39,39,0,0,0-5.7-.64c-3,0-5.87-.87-8.8-.71l-8.8.39a9.28,9.28,0,0,0-2.06.64l-1.27.47L308.62,80l-1.9.56c-3.65,1.58-7.68,1.42-11.33,2.93a9.53,9.53,0,0,1-3.25.63c-.56,0-1.27.56-1.83.4-2.77-.87-5.07.63-7.37,1.66-4.43,2.06-8.79,4.44-13.15,6.82-2.06,1.11-4,2.46-6,3.57-.79.47-1.74.63-2.53,1.11l-9,5.31c-3.8,2.38-7.68,4.75-11.33,7.37a70.9,70.9,0,0,0-6.18,5.31c-1.66,1.43-3.17,3.09-4.83,4.44-4,3.09-7,7-10.07,10.93l-1.9,2.3a27.69,27.69,0,0,0-2.62,3c-2.77,4.44-6,8.64-8.24,13.4a41.85,41.85,0,0,0-1.9,5.23,2.47,2.47,0,0,1-1.91,1.82c-4,1-7.05,3.4-9.75,6.5a57.06,57.06,0,0,0-7.13,10.78,25.25,25.25,0,0,1-4.36,5.86,15.31,15.31,0,0,1-4.43,2.53c-1.51.71-2.38.8-3.49,1.35a20.08,20.08,0,0,0-3.41,2.06,23.76,23.76,0,0,0-4.59,4.91,14.58,14.58,0,0,1-8.4,5.71,10.73,10.73,0,0,0-5.79,4.28h1.35a5.7,5.7,0,0,1,5.78,4.12c.56,1.75,1.27,3.49,1.83,5.23a19.85,19.85,0,0,1,.71,2.93,13.4,13.4,0,0,0,2.22,5.31,9.81,9.81,0,0,0,2.38,2.3,9.45,9.45,0,0,1,2.53,2.7,44.07,44.07,0,0,0,2.77,3.88,12.78,12.78,0,0,1,1.75,2.93c1,3.17,2.3,6.26,2.3,9.67a15.55,15.55,0,0,0,2.06,7.68,74.94,74.94,0,0,0,5.46,8.32,5.55,5.55,0,0,1,.72,1.83,25.63,25.63,0,0,1,.63,2.62,30,30,0,0,0,2-3.25c.95-2.14,1.67-4.36,2.53-6.58a33.28,33.28,0,0,0,1.27-3.72,16.79,16.79,0,0,0,.79-3.49,3.75,3.75,0,0,1,2.54-3.33,13.48,13.48,0,0,0,5.62-4.6l4-6.18a.89.89,0,0,1,.79-.32c.24.08.55.56.48.72a15.12,15.12,0,0,1-1.11,2.77,23.53,23.53,0,0,1-6.11,7.06c-.95.71-1.5,2-2.93,2.29s-.79.88-1,1.43c-.79,2.77-1.43,5.55-2.3,8.24s-1.11,4.68,0,7.13.88,4.44,1.35,6.66c.87,3.89,1.58,7.85,2.62,11.65s1.35,4.92,2.3,8.09c1.74,5.54,4.91,12.12,7.37,17.35A56.75,56.75,0,0,0,214,316.37c3,3.33,5.78,7,9.11,10.06l1.43,1.35,7.61,6.42c.08.08.08.24.16.48s-1,0-1.43-.4L226.43,331a1.66,1.66,0,0,0-2.31.43,1.57,1.57,0,0,0-.22.45,11.23,11.23,0,0,0-.32,1.42c-.47,3.09-1,6.18-1.19,9.27a58,58,0,0,0-.31,8.64c.08,1.91,1,4.6,1.42,6.5.64,3.17,1.11,6.1,1.91,9.27a12.21,12.21,0,0,0,.71,2.14c.71,1.59,2.62,6.58,3.49,8a39.83,39.83,0,0,1,2,6.34c.47,1.66,1.9,11.17,1.9,12.36s3.8,18.94,5.39,23.38c1.11,3.09,1.19,5.15,1.9,9.67a23.56,23.56,0,0,1,.08,2.38,33.58,33.58,0,0,1,.4,4.59c.08,3.09,1,9.12,2,9.28a11.93,11.93,0,0,1,2,.16l11.18,4,5.7,2c1.35-2,1.43-2.06,3.57-1.75s5.55.88,8.24,1.35l.79.32c2.06,1.42,4.52,1.66,7,2.06a2.59,2.59,0,0,0,1.58-.08,5.21,5.21,0,0,1,3.65-.48c2.14.32,4-.47,6-1s5.39-1.42,8.24-.71a1.28,1.28,0,0,0,1.55-.91,1.47,1.47,0,0,0,0-.36,30.43,30.43,0,0,0-.48-5.39,86.21,86.21,0,0,0-2.77-11.41,6.16,6.16,0,0,1,.32-5.39,2.75,2.75,0,0,0,.39-1.51c-.39-2.29.56-4.27,1.35-6.34s1.75-5,2.53-7.53a10.25,10.25,0,0,1,2.22-4.35c.95-.95,1.59-2.3,2.53-3.33a20.32,20.32,0,0,1,3-2.3,16.88,16.88,0,0,0,2.3-1.51c1.75-1.74,3.41-3.56,5.07-5.31s1.67-2.06,2.7-2.93a27.23,27.23,0,0,0,5.31-6.9,9.87,9.87,0,0,1,2.77-3.32,5.9,5.9,0,0,0,1.51-1.35c1.66-2.46,4.28-3,6.81-3.89l8.25-2.85,5.7-1.74c1-.32,1.9-.88,2.94-1.11a5.71,5.71,0,0,1,2.53-.24c2.77.55,5.07-.4,7.45-1.59a2.69,2.69,0,0,0,1.42-3.25,55.28,55.28,0,0,1-2.37-11,35.53,35.53,0,0,1,.95-11.89,84.13,84.13,0,0,0,2.37-15.22,40.74,40.74,0,0,0-1.1-13.47l-.16-.32c-1.19-2.06-2.3-4.12-3.65-6.1a8.47,8.47,0,0,1-1.43-4.36,42.9,42.9,0,0,1,.32-8.32,33.71,33.71,0,0,1,4.2-12.6,73.68,73.68,0,0,1,4.84-7.29c1.74-2.38,4.27-4,6.81-5.47a36.68,36.68,0,0,1,4.36-2.14,6.25,6.25,0,0,1,2.06-.32,34.24,34.24,0,0,1,8.08.72c1.75.31,3.65-.08,5.31.31a15.11,15.11,0,0,1,4.68,2.07c2.14,1.34,4,3.09,6.5,3.64a1.42,1.42,0,0,1,.63.48l2.93,3a1.43,1.43,0,0,1,.16,1.27,23.52,23.52,0,0,1-2.29-1.67,32.66,32.66,0,0,0-18.95-8.48c-2.14-.24-4.35-.32-6.57-.39a6.72,6.72,0,0,0-5.7,2.3c-.23.24-.47.56-.79.64-1.51.24-2.38,1.43-3.4,2.3a30.8,30.8,0,0,0-7.53,9.43c-2,3.48-3.81,8-3.81,12.52,0,2.3-1,4.44-.39,6.73s1.11,4.92,2.69,7a32.29,32.29,0,0,1,1.75,3c0-1.35.08-2.53,0-3.72a15.78,15.78,0,0,1,1.82-8.33,32.29,32.29,0,0,1,4.6-6.42,27.73,27.73,0,0,1,8.71-6.26c3-1.5,6.19-1.5,9.36-1.26a42.89,42.89,0,0,1,17.27,5.23c.8.39,1.75.71,2.53,1.19a15.19,15.19,0,0,1,3.41,2.37,10,10,0,0,0,4.12,2.53c.16-1.5-1.35-2.06-1.43-3.25h.8c.39-2.85-1.51-5.23-1.75-8.16a1.91,1.91,0,0,1,1.43,1.35c1.11,3,2.06,6,3.25,8.95A45.43,45.43,0,0,1,424.17,312,20,20,0,0,0,428,323l.24.23,5.39,5.31,1.35-.87c.87-.71,1.74-1.51,2.62-2.14a24.87,24.87,0,0,0,3.32-3.33c3.73-3.8,7-8,10.31-12.12,1.42-1.75,2.45-3.73,3.72-5.55s3.81-6.1,5.71-9.11c1.11-1.75,1.9-3.81,2.85-5.71a9.63,9.63,0,0,1,1-1.35h.08c-.79,1.9-1.58,3.81-2.38,5.63s-2.14,5-3.48,7.37-3.09,5.55-5.55,7.77a31.47,31.47,0,0,0-2.7,3.4c-2.77,3.41-5.54,7-8.48,10.31a102.36,102.36,0,0,1-7.37,7.21,7,7,0,0,0,.72,2,13.27,13.27,0,0,1,1.9,4.6c.87,3.25,1.66,6.5,2.53,9.74a3.7,3.7,0,0,1,.08.88c.08,4.2.08,8.4.08,12.6,0,2.93,0,5.86-.16,8.8a58.74,58.74,0,0,1-.55,6.34c-.24,1.42-1,2.77-1.11,4.2-.32,3.25-1.19,6.42-1.43,9.59a113.18,113.18,0,0,1-2.3,13.7,45.5,45.5,0,0,1-2,6.26l-2.77,8.09a15.54,15.54,0,0,0-.48,1.9c-.79,3.88-1.74,7.68-2.3,11.57a26.85,26.85,0,0,0,.16,9.91,14.63,14.63,0,0,0,1.67,4.36,3.26,3.26,0,0,1,.16,1,5.31,5.31,0,0,0-1.27.55,1.8,1.8,0,0,0-.72,1c0,.32.48.71.8.95s.39.08.55.16c3,1,3.89,3.65,2.06,6.34a6.59,6.59,0,0,1-.87,1c-1.82,1.82-1.75,3.89-.63,6s1.34,2.69,2.14,4c1.9,3.4,1.42,7.13.55,10.86v.23a11.08,11.08,0,0,1-1.35,3.26c-1.9,2.62-2.29,5.63-2.21,8.72.08,4.59.23,9.19.31,13.79a40.15,40.15,0,0,1-.39,6.1,32.75,32.75,0,0,1-1.35,6,73.13,73.13,0,0,1-3.09,6.66c-1,2.22-3.73,3.41-6.1,4.44-.4.16-.8.16-1.11.32-3,1.66-5.55.39-7.93-1.43a16,16,0,0,1-4-5.15c-1.66-3.09-2.14-6.5-3.17-9.83a9.05,9.05,0,0,0-1.75-3.72c-1.82-1.91-2.53-4.21-3.33-6.5-.39-1-.63-2.14-.95-3.25-.87-2.78.16-5.39.24-8.09s.4-3.64.56-5.46a14.3,14.3,0,0,0-3.41-10.55c-1.58-1.9-3.17-3.88-4.6-5.86-3.48-4.83-5.23-10.14-4.27-16.09a19.37,19.37,0,0,1,1.26-4.6,14.85,14.85,0,0,0,1-5.07,3.06,3.06,0,0,0-.23-1.58c-1.67-3.25-1.43-6.74-1.27-10.15a5.48,5.48,0,0,1,1.58-3.09,3.28,3.28,0,0,0,.95-2.62c0-2.37-1.11-4.51-1.5-6.81-.16-.79-.4-1.51-.56-2.3-.71-4.6-1.42-9.19-2.29-13.79a30.31,30.31,0,0,0-1.83-5.23c-.87-2.14-1.66-4.36-2.69-6.34s-2.7-4.28-3.81-6.5c-1.74-3.49-3.4-7.05-5.07-10.62l-.95-1.9L367,370.74a6.4,6.4,0,0,1-5,2.46,22,22,0,0,0-4,.55h-.8c-2.53-.63-4.91.32-7.29.71a10.48,10.48,0,0,0-2.45,1.19,3.28,3.28,0,0,1-1.27.48,15.78,15.78,0,0,0-5.71,1.58,12.65,12.65,0,0,1-3.17,1,5.31,5.31,0,0,0-3.17,1.51l-4.52,4.2a2.79,2.79,0,0,0-.79.95c-.87,2.62-2.93,4.6-4.28,6.9a27.68,27.68,0,0,1-6.65,7.45l-1.83,1.35-4.91,3.25c-2.06,1.34-2.78,3.56-3.65,5.62s-2,5.07-2.93,7.53a2.38,2.38,0,0,1-.4.87,4.5,4.5,0,0,0-1.11,4.44c.32,1.51-.39,4.84-1.26,7.13a3,3,0,0,0-.16,2.62,8.56,8.56,0,0,1,.47,2.7c.88,3.56,2,7.05,2.54,10.62a48.1,48.1,0,0,1,.31,7.68,2.46,2.46,0,0,1-.55,1.51c-1.19,1.19-1,2.62-.88,4.12s-2.45,34.24-2.93,35.5a27.58,27.58,0,0,0-1.82,8,8,8,0,0,0,.63,3.72c1.11,2.62,2.3,5.23,3.25,7.93,2,5.62,4.2,9.19,5.15,16.56.32,4,2.46,4.52,1,7.93-2.45,5.86,4.68,8.55,5.95,10.62,2.53,3,3.25,4.75,3.4,7.92.08,1.66-.63,4.28-.55,5.94s3.49,7.85,3.49,8.88M424.48,448c1.19-.79,1.27-.79,1.19-1.26a25.87,25.87,0,0,0-.16-3.41,40.6,40.6,0,0,1-.08-14.5c1.35-6.26,1.9-12.76,4.52-18.78A84.56,84.56,0,0,0,433.2,400c1-3.41,1.58-8.48,2.14-12.76a2.1,2.1,0,0,0,0-.79c-.4-1.67.24-3.17.71-4.68a16.26,16.26,0,0,0,.63-1.9c.64-3.33,1.27-6.66,1.67-10a51.19,51.19,0,0,0,0-5.54c.08-4.36.24-8.8.24-13.16A29.13,29.13,0,0,0,438,345c-.79-3.49-1.82-7-2.77-10.38a4.88,4.88,0,0,0-.56-1c-.55-1-1.19-2.06-1.66-3.17a9.08,9.08,0,0,0-3.65-3.89l1.51,8.72a1.07,1.07,0,0,1-.71-.79,51,51,0,0,0-4.28-10.86,24.62,24.62,0,0,1-2.06-5.15,30.51,30.51,0,0,1-.88-7.85,18.87,18.87,0,0,0-1.1-5.46,39.46,39.46,0,0,0-1.59-3.65,6,6,0,0,0-3.09-3.25,55.05,55.05,0,0,1-4.91-2.62,3.78,3.78,0,0,1-1.43-1.35,4.28,4.28,0,0,0-2.3-1.82l-6.26-2.53a34.81,34.81,0,0,0-12.05-2.53,15.11,15.11,0,0,0-5.31.47,41.15,41.15,0,0,0-6.34,3.41,9.27,9.27,0,0,0-1.58,1.42l1.42.8c-3.25.08-4.83,1.9-5.86,4.28-.24.55-.63,1-.87,1.58-.8,1.9-2.38,3.33-2.7,5.47s-.39,2.06-.55,3.17a8,8,0,0,0,1.19,5.7,13.13,13.13,0,0,1,1.5,3.25,19.08,19.08,0,0,0,1.19,2.7,35.47,35.47,0,0,1,4.6,13.07c.24,1.51.32,3,.47,4.52H377c-.22-.73-.41-1.47-.56-2.22a32.2,32.2,0,0,0-2.45-8.55,1.66,1.66,0,0,1-.32-.88c.16-.87-.4-1.5-.71-2.22-1-2-2.86-3.48-3.57-5.62h-.48c0,4,.24,7.84-.08,11.73s.8,5.7-.63,8.48c-.16.23.24.71.32,1.11s.31,2.37-.8,3.32l-.63-1a42,42,0,0,0-1.43,12c.4,7.37,3,14.11,5.95,20.77a60,60,0,0,0,5.15,9.82c2.62,3.81,3.25,8.48,5.78,12.37a1.11,1.11,0,0,1,.16.39c1,4.12,2.14,8.24,2.78,12.44.39,2.86.87,5.63,1.5,8.41l1.43,6.34,2.22-.32c1.75-.24,3.57-.16,4.75,1s4.68,3.88,5.95,6.74a6.56,6.56,0,0,1,7.84,2.22,3.82,3.82,0,0,0,2.54,1.66,19.62,19.62,0,0,1,4.51,1.9,2.11,2.11,0,0,1,1.11,1.35c.24,1.74,1.19,2.22,2.86,2.3a4.5,4.5,0,0,1,4,3.88c.16.95.31,1.9.55,3.17M113.18,367.65a11.93,11.93,0,0,1,1.43-1.58c2.06-1.59,2.38-2.94,1.35-5.31a33.48,33.48,0,0,1-1.9-4.6,5.67,5.67,0,0,0-1.83-2.93,5.51,5.51,0,0,1-2-3.41c-.39-3.33-.08-6.42,2.22-9.19a46.77,46.77,0,0,0,5.23-7.77,42.26,42.26,0,0,0,2.54-6.9,10.28,10.28,0,0,1,5.78-6.74,4.37,4.37,0,0,1,1.9-.16.89.89,0,0,1,.91.84,1.12,1.12,0,0,1,0,.27.92.92,0,0,1-.91.9l-.2,0c-1.91-.32-3.09.79-3.89,2.22q-1.23,2.48-2.22,5.07c-1.26,2.93-2.22,6-4,8.72a70.26,70.26,0,0,0-4.6,8.16,6.21,6.21,0,0,0-.47,4.44,3.4,3.4,0,0,0,3.72,2.53c2.7-.24,4.44-1.82,6-3.88a4.44,4.44,0,0,0,.63-1.83,20.82,20.82,0,0,0,.16-2.62c.08-1.5.16-1.58,1.66-1.82s2.78-1.27,2.7-2.46-.4-2.69-.64-4.12c1-.87,1.35-.87,2.22.4a1.42,1.42,0,0,0,1.92.61,1,1,0,0,0,.22-.14,9.49,9.49,0,0,0,4.36-4.83,29.35,29.35,0,0,0,1.11-7.21,5.37,5.37,0,0,1,3.88-5.15,40.3,40.3,0,0,1,4.76-.64c.24,0,.55.24,1.19.64a10.19,10.19,0,0,1-1.75.87,9.25,9.25,0,0,1-1.58.08c-2.3.16-3.25.87-3.81,3.09a15.57,15.57,0,0,0-.55,4,15.6,15.6,0,0,1-2,7.06c-1.19,2.38-2.53,4.67-3.73,7.05s-1.82,3.25-1.66,5.39a12.78,12.78,0,0,0,1.75,0,5.47,5.47,0,0,0,3.72-1.75c3.49-.16,5.15-2.62,7-5.07s2.54-3.33,2.46-5.47,1.59-5.15,3.65-7a1.42,1.42,0,0,1,2-.2l.14.12c-1.75,1.9-4,3.65-3.25,6.82a18.13,18.13,0,0,1,3-1.11,12,12,0,0,1,10,2.69c2.22,1.82,3.73,4.44,5.47,6.82s1.35,2.77,2.3,4,3,3.4,5.55,3.57a28.85,28.85,0,0,0,10.3-.88,3.71,3.71,0,0,0,2.53-2.85,11.28,11.28,0,0,0,.4-2.38,3.44,3.44,0,0,0-2.46-1,22.68,22.68,0,0,1-8.55-2.53,4.57,4.57,0,0,1-2.3-2.38l-1.83-4.83a34.34,34.34,0,0,1-1.18-3.41,10.77,10.77,0,0,0-3-5.3l-8.48-8.17a4,4,0,0,1-.87-1.1l-3.25-6.82a11.62,11.62,0,0,1,.63-11.25,15.27,15.27,0,0,1,3.33-4.44c.39-.38.76-.78,1.11-1.19,3.25-3.33,4.91-7.93,8.32-11.18a2.87,2.87,0,0,0,.56-1c1-2.77,2.14-5.62,3.09-8.4a6.83,6.83,0,0,0,.16-3.64c-2.54,1.5-5.08,2.62-7.93,2.45a4,4,0,0,1,1.43-1.26c1-.56,2.06-.88,3-1.43s4-3,6.1-4.36a17.06,17.06,0,0,0,3.09-3.09,4.92,4.92,0,0,0,.4-5.79c-.95-1.58-2.06-3.09-3.17-4.59a17.79,17.79,0,0,1-2.86-8.4c-.15-1.43.24-3-.15-4.36a29,29,0,0,0-7.53-13.79c-.8-.8-1.51-1.43-2.7-1.19s-.08-.64-.23-.79c-2.46-2.78-2.94-6.35-4-9.67-.31-1-.79-2-1.34-3.33l-1,1.58a19.33,19.33,0,0,1-2.07,2.7,122,122,0,0,1-11.4,9.27,52.29,52.29,0,0,0-9,8.24c-1.82,2.14-3.88,4.2-5.78,6.34s-4.84,3.89-5.79,7c-.08.32-.4.55-.63.79L117,250.12c-.8.95-1.11,1.9-.48,2.62a50,50,0,0,0-2.93,4.28c-2.14,3.64-3.33,7.68-4.68,11.65a4.94,4.94,0,0,0-.16,1.58c0,1,.08,2.14.08,3.17s-.24,3.25,1.75,4.2c-1.51.95-1.19,2.14-.88,3.33.8,3.49,2.78,6.42,4.36,9.51a48.75,48.75,0,0,1,2.53,4.52,12.32,12.32,0,0,1,.72,6.66c-.32,2.14-.64,4.35-1.11,6.49s-.48,3.17-2,4.2a.65.65,0,0,0-.24.56c.32,1-.4,1.58-.87,2.3s-2.06,3.72-3,5.62a10.81,10.81,0,0,0-.48,1.75,6.74,6.74,0,0,1-.55,1.66,13.14,13.14,0,0,0-1.75,7.3,19.22,19.22,0,0,1-1.35,6.57,27.08,27.08,0,0,0-1.34,5.39c-.32,2.38-.16,4.83-.64,7.13s.64,4.68,1,7.06a1.56,1.56,0,0,0,.39.71,28.58,28.58,0,0,1,4.84,7.53,2.62,2.62,0,0,0,2.93,1.82m130.13,79.1-.32.47c-.08.24-.08.56-.16.79-.79,3.89-.08,7.69.88,11.42s1.42,6.65,2.77,10.54c2.46,5.31,2.62,4.91,4,7.92s5.71,10,9,14.9a44.17,44.17,0,0,1,4.2,8.32c1.19,3.17,3.72,9,4.12,12.05a45.55,45.55,0,0,0,1.19,6.66c1.58,5.23,3.4,10.62,6.5,15.37a15,15,0,0,0,1.27,1.59c.95,1,1.11.71,1.66.55a4.69,4.69,0,0,0,1.19-.63,16.16,16.16,0,0,1,3.72-1.67,1.12,1.12,0,0,1,1.52.39,1,1,0,0,1,.15.41.48.48,0,0,1-.24.63h0l-4,2.06a2,2,0,0,0-1.35,2.22q.55,4.68,1.19,9.27c.4,3.33,2.85,5.63,4.52,8.25.24.39.87.47,1.42.79a6.7,6.7,0,0,1,4.76-2,2.78,2.78,0,0,0,1.43-.56l5.38-4.12,1.19-.71c.16,1.43,1.19,1.19,2.46,1.27l-2,1.42a37.39,37.39,0,0,0-3,2.3,2.42,2.42,0,0,0-.79,1.67c-.08,1.82,0,3.56-.08,5.38a4.65,4.65,0,0,0,1.19,3.41,1.63,1.63,0,0,0,1.42.47c1.75-.39,2.22-1.42,1.75-3.24s-1-4.92.79-7.14,2.38-1.58,3.73-.47,3.09,5.07,3.72,8c.16.56-.16,1-1,.95a11,11,0,0,1-1.59-3.72c-.07-.4-.07-.88-.31-1.11a2.21,2.21,0,0,0-1.27-.64c-.24,0-.71.72-.63,1a27,27,0,0,0,1,4.44,2.21,2.21,0,0,0,1.5.88c.56.07,2.62.23,3.73.31.79-1.58,1.19-3.25,2.3-4.12a5.25,5.25,0,0,1,2.61-.79,2.94,2.94,0,0,0,2.54-2.93,12.84,12.84,0,0,0-1.67-6.11,18.52,18.52,0,0,0-5-5.62,7.39,7.39,0,0,1-3.33-5.55c-.16-1.9,1.19-3.49.4-5.15s-.88-8.56-5.79-7.69c-.16-.07-1.58.08-1.66-.07s-.48-1-.32-1.43.79-.48,1.27-.56h.16a3.64,3.64,0,0,0,3.33-3.93,3.84,3.84,0,0,0-.16-.82,106.69,106.69,0,0,0-4.12-10.38,1.19,1.19,0,0,0-2.22.47c0,1.83,0,3.57-.32,4.12s-.55-.71-.71-.95c-.56-15.37,1.34-18.22,2.45-22.35s3.1-24,2.7-29.16-.32-6.1-1.11-9.19a2.68,2.68,0,0,0-2.93-2.22,22.09,22.09,0,0,0-4.76,1,17.81,17.81,0,0,1-6.26,1,7.86,7.86,0,0,0-2.77.32,7.42,7.42,0,0,1-4.52-.08,39.5,39.5,0,0,0-6.34-1.51,23.55,23.55,0,0,0-8.16-.16,8,8,0,0,1-4.36-.32c-4.6-1.58-9-3.48-13.55-5.15a8.12,8.12,0,0,0-4.13-.87m160-2.06-.47.16c-1.43-1.35-2.78-2.7-2.86-5s-.07-3.89-.31-5.79a6.32,6.32,0,0,0-.88-2.53c-.95-1.59-2.14-3-3.09-4.6a4.19,4.19,0,0,0-2.93-2.14c-3.09-.63-6.58,1.67-7,4.76a13,13,0,0,0,1.11,8.16,7.69,7.69,0,0,1-.24,7.92,14.39,14.39,0,0,0-1.35,4.52,26.4,26.4,0,0,0-.16,3.17,11.57,11.57,0,0,0,1.11,6.82,74.24,74.24,0,0,0,5.07,8.55c2,2.94,4.21,5.55,5.24,9a17.45,17.45,0,0,1,.47,8.64,23.24,23.24,0,0,0-.16,10.46c.56,2.38,1,4.75,2.86,6.66a12.47,12.47,0,0,1,2.14,4.2c1.26,3.64,1.66,7.6,3.56,11.17a11.13,11.13,0,0,0,6.58,5.71,3.31,3.31,0,0,0,3.57-.48,1.24,1.24,0,0,1,.87-.39c2.14.23,3.17-1.35,4.44-2.7,3.4-3.64,4.28-8.4,4.91-13.08a132.8,132.8,0,0,0,.71-13.94,25.36,25.36,0,0,0,0-3c-.31-4.35.16-8.48,2.38-12.36a14.88,14.88,0,0,0,1.43-4.36c.95-4.51-.95-8.32-3.25-12a5.87,5.87,0,0,1,.16-7,24.39,24.39,0,0,0,2-2.46,2,2,0,0,0-.37-2.78,1.93,1.93,0,0,0-1.45-.39h-3.25a10.91,10.91,0,0,1-.16,1.5c-.08.56-.16.88-.24,1.35-1.34-1.27-1.26-2.7-1.34-4.12a27.53,27.53,0,0,0-.4-4c-.48-2.22-1.9-2.78-4.12-1.59.16,2.22.32,4.6-1,6.74a10.67,10.67,0,0,1-.56-2.86c-.16-1.9-.23-3.8-.55-5.7a5.14,5.14,0,0,0-5.15-4.2c-1.83,2.69-.56,5.54,0,8.55a7,7,0,0,1-2.38-5.62A22.1,22.1,0,0,0,408,436a2.08,2.08,0,0,0-.55-1.19,26,26,0,0,0-2.7-2.06,1.77,1.77,0,0,0-2.93,1.27c-.24,1.59-.16,2.22-.32,3.41a6.52,6.52,0,0,0,1,4.91,8.22,8.22,0,0,1,.71,2.22M339.77,11.49l-9.2,2a7.84,7.84,0,0,0-1.82.88c-1.11.55-2.14,1.26-3.33,1.82-2.85,1.27-5.47,2.69-6.57,5.94a2.75,2.75,0,0,1-1,1.27c-1.58,1.11-3.25,2.3-4.91,3.33s-5.55,2.85-8.24,4.52a7.84,7.84,0,0,0-3.88,6.42c-.08,1-.16,2.14-.24,3.17-.16,2.37-.56,4.67-2.78,6a1.14,1.14,0,0,0-.47.4c-.64,1.26-1.27,2.53-2,3.8a23.64,23.64,0,0,1-1.83,2.62,29.58,29.58,0,0,0-2.22,2.77c-1.5,2.62-3.09,5.15-2.85,8.33a1.09,1.09,0,0,1-.08.39A7.06,7.06,0,0,0,289.52,71a35,35,0,0,1,1.59,3.4,8,8,0,0,0,.71,1.11l1.27-1c-.16,1.11-.4,1.9-.48,2.77a1.12,1.12,0,0,0,.75,1.39,1.35,1.35,0,0,0,.28,0c.95.08,1.11-.55,1.11-1.27a3.56,3.56,0,0,0,0-1,3.56,3.56,0,0,1,1-3.48c.32-.4.72-1,.64-1.35-.48-2.06.15-3.88.79-5.79a7.13,7.13,0,0,1,4.2-4.75A4.36,4.36,0,0,0,304,58.25a23.14,23.14,0,0,1,2.45-4,1.75,1.75,0,0,1,1.19-.55c3.49-.08,6-2.06,8.64-4s3.17-1.83,5.15-1.19,1.51.24,1.83-1.11a45.12,45.12,0,0,1,1.58-5.71,21.26,21.26,0,0,1,2-3.17c.95-1.5,1.9-3,2.7-4.59s1.82-2.62.95-4.44a3,3,0,0,1,.31-2.3c1-2,1.83-4.12,3.73-5.55A13.1,13.1,0,0,0,336.12,20c1.35-1.35,2.46-2.78,2.46-4.84a5,5,0,0,1,.48-1.5l.71-2.22M320,49.46c-2.3,1.35-4.2,2.53-6.26,3.64s-3.49,1.35-5.15,2.14a6.21,6.21,0,0,0-2.14,1.59,13,13,0,0,0-1.35,2.62c-.56,1.19-1,2.53-2.46,2.93-2.85.79-3.64,3.09-4,5.63a4.94,4.94,0,0,0,.4,3.25,3.08,3.08,0,0,1,.23,3.64l-1.66.4a5.85,5.85,0,0,0,.08,5.39h1L312,77.92c1.66-.4,3.25-1,4.91-1.27s3.89-.64,5.08-2.53a2,2,0,0,1,.79-.56l4.36-2.38.71-4.2c-.95-.55-2.53-.79-2.46-2.53l4.28,1.27a1,1,0,0,1,.76,1.11,1.75,1.75,0,0,1-.12.32A27.09,27.09,0,0,1,328.91,70c-.64,1-.4,1.58.79,1.82h.64c1.58.48,3.4.4,4.51,2.14s1.35.8,2.38.64a5.47,5.47,0,0,0-.32-1.75A8.36,8.36,0,0,1,336,68a3.62,3.62,0,0,0-.55-2.22,30.86,30.86,0,0,0-2.93-3c-1.27.39-2.54,1.18-3.65,1s-2.7.16-3.65-1.11c1.43-2.14,3.81-2.22,5.95-2.94-1.75-1.19-3.81-.87-5.71-1.58,1.51-1.66,3.33.08,5-1a18.85,18.85,0,0,0-1.34-1.75c-1.59-1.5-3.81-2.22-5-4.28a.62.62,0,0,0-.47-.31c-1.51.31-2.38-1-3.49-1.35M102.41,357.58c-.24,1.51-.24,1.51.39,2.7a18,18,0,0,1,2.3,6.34,18.16,18.16,0,0,0,1,4c.72,1.75,1.51,3.57,3.33,4.52a3.59,3.59,0,0,0,4.76-1.75,3,3,0,0,0-1.35-4,3,3,0,0,0-.71-.26l-.56-.15a5.5,5.5,0,0,1-3.4-3.1c-1.27-3.24-4-5.38-5.79-8.32m209.3,209.47a4.38,4.38,0,0,0-.39,1.82,11.89,11.89,0,0,0,0,2.53,3.25,3.25,0,0,0,2.53,2.7,20.12,20.12,0,0,0,3.72.16c1.27-.08,2.3-1.51,1.59-2.3A8.5,8.5,0,0,1,318,569a30.66,30.66,0,0,0-2.22-4.44c-.87-1.43-2.06-1.35-2.93,0a19,19,0,0,0-1.11,2.38m-21.24-.79c1.11.71,3,.63,3,0s.16-2.78.32-4.12.56-1.59-.32-2.22-1.66,0-2.45.31A2.73,2.73,0,0,0,289.6,562m-6.1,5.15a4,4,0,0,0,2.62,4,.88.88,0,0,0,1.13-.5.8.8,0,0,0,.06-.37,4.43,4.43,0,0,0-.32-.95c-.63-1.91-1.43-3.81-.16-5.71a1.24,1.24,0,0,0-.08-1.11,2.06,2.06,0,0,0-1.11-.71c-.16-.08-.63.31-.71.55-.56,1.66-.95,3.33-1.43,4.68M307,569.19c-1.27.31-1.75,1.42-1.35,3.09a1,1,0,0,0,1.14.71.9.9,0,0,0,.45-.24,4.22,4.22,0,0,0,.71-2.85.79.79,0,0,0-.85-.73l-.1,0M331.61,74.1c-1-1.11-1-1.11-4.68-.79a2.94,2.94,0,0,0-2.7,1.66l3.81-.55,3.64-.32M291,80.6a1,1,0,0,0,.86,1.18h.17a23.08,23.08,0,0,0,3.09-.48c.16,0,.4-.24.48-.31a5.81,5.81,0,0,0-.08-1.11c-.32.08-.71,0-.87.15a2.52,2.52,0,0,0-.48.88c-1.19-.16-2.06-1-3.17-.4M157.09,204.15c-1.27-.63-1.27-.63-2.45.08.63,1.51,1,1.51,2.45-.08M130.46,340l-.39-.16-1.51,2.62c1.9-.63,1.9-.63,1.9-2.38M117,356.87l.79-2.22c-1.74.32-1.74.4-.79,2.22m38.36-154.22c-1.43-.64-1.43-.64-2.38.24a2.06,2.06,0,0,0,2.38-.24m1,3.88c-1.27.24-1.27.24-.79,1.27l.79-1.27M292.06,570.3a.33.33,0,0,0-.45,0,.31.31,0,0,0-.11.2,1.2,1.2,0,0,0,.48,1.11c.16.08.24.08.39-.16a1.17,1.17,0,0,0-.31-1.11m-1.82-488c-.88-.47-.88-.47-1.27.4l1.27-.4m9.74,348,.4.24c.16-.16.4-.32.48-.48a2.42,2.42,0,0,0-.08-.71h-.32l-.39,1.11M181,262l-.55-.24c-.08,0-.16.24-.32.32l.32.16L181,262m-.71,2.22.24.16v-.16l-.16-.32-.24.24" transform="translate(0 -5.82)"/><path class="cls-3" d="M537,290.46c1.42.16,1.82,1.35,2.14,2.38s.71,3.09,1.11,4.59.55,2.22.87,3.25a12.22,12.22,0,0,1,.71,2.86c0,2.77,1.51,4.75,3.33,6.57l6.66,6.9c1.82,1.9,4.36,2.46,6.81,3.17a1,1,0,0,0,.8,0c1.19-.79,2.14-.16,3.17.32s1.9,0,2-1.27a5.39,5.39,0,0,0-5-5.23,4.39,4.39,0,0,1-4.6-5.07,2.54,2.54,0,0,0-.08-.95c-.48-1.59-.4-2.14.87-3,2.78-2.06,5.07-2.22,8.32.39,1.67,1.35,3.33,2.62,5.08,3.89A3.65,3.65,0,0,0,571,310c2.77.16,4.36,1.9,5.78,4a15.41,15.41,0,0,0,2.38,2.78,1.51,1.51,0,0,0,2.13,0h0c.63-.64.48-1.27.08-2s-1.35-2.62-2.14-3.8a11.41,11.41,0,0,0-1.58-1.75,20.84,20.84,0,0,0-6.19-4.67A12.59,12.59,0,0,1,566,298.7a4.46,4.46,0,0,1,.95.48L571,303c.24.24.47.56.79.64,2.46.23,3.65,2.53,5.55,3.64a7.84,7.84,0,0,1,2.3,2.46c1,1.43,1.82,2.93,2.77,4.36a3.34,3.34,0,0,1,.4,2.85,4.43,4.43,0,0,0-.08,2.14c.23,1.11.87,1.59,1.74,1.51a1.82,1.82,0,0,0,1.83-1.82v-.16c0-.64-.16-1.35-.16-2s.08-2.3.08-3.41a53.24,53.24,0,0,0-3-4.44c-1.83-2.22-3.81-4.28-5.79-6.26a28.41,28.41,0,0,0-2.62-2.14,1.74,1.74,0,0,1-.79-2.06c1,0,1.19.71,1.42,1.27a3.86,3.86,0,0,0,2.07,2,6.46,6.46,0,0,1,2,1.58c2,2.38,3.88,4.92,5.78,7.38l.71.63a4.37,4.37,0,0,0-.55-3.81,17.85,17.85,0,0,0-3.33-4.67c-1.58-1.51-2.53-3.57-3.72-5.39a.87.87,0,0,1,.07-1.23.83.83,0,0,1,.16-.12l3,4.84c.87.08,1.74-.16,2.14.23a6,6,0,0,1,.79,1.91c.24.63,1.27,2.93,2,4.28a6.63,6.63,0,0,1,.71,5.15,8.56,8.56,0,0,0,.16,4.91c.32.95.79,2.14-.16,2.77s-2.29,2.06-4,1.51a2.28,2.28,0,0,1-1.74-1.75,1.27,1.27,0,0,0-1.19-1.19c-2.38-.23-3.81-1.74-4.92-3.64a9.06,9.06,0,0,0-5.15-4,20.43,20.43,0,0,1-7.29-4.76,4.58,4.58,0,0,0-2-1.19c-1.35-.32-3-.32-3.73,1.11s-1.34,3.17-.31,4.91,1.66,2.07,3.25,2a3.55,3.55,0,0,1,2.93,1.42c.79,1,1.67,2.06,2.38,3.17a3.83,3.83,0,0,1,.32,3.25,1.82,1.82,0,0,1-2.1,1.5,1.8,1.8,0,0,1-.76-.31,3.33,3.33,0,0,0-2.85-.32,2.83,2.83,0,0,1-1.58-.07l-5.71-2.3a6.56,6.56,0,0,1-2-1.35l-7.45-7.77a12.19,12.19,0,0,1-2.78-6.1c-.47-2.38-1.11-4.76-1.74-7.14a3.83,3.83,0,0,1-.32-1.11c.24-2.06-.79-3.72-1.58-5.46Z" transform="translate(0 -5.82)"/><path class="cls-3" d="M570.15,285.23c-3.17-1.43-6.26-2.93-8.48-5.63a14.68,14.68,0,0,1-1.74-3.72,29.66,29.66,0,0,1-1.75-7.53c-.32-2.3-.79-4.6-1.19-6.9s-.71-4.83-1.11-7.29c-.08-.4-.31-.71-.39-1.11s-.32-1.66-.48-2.46l.4-.16a3.35,3.35,0,0,1,.55.8,66.24,66.24,0,0,1,2,7.21c.56,3.33.88,6.74,1.19,10.06a26.54,26.54,0,0,0,1.91,8.09,9.12,9.12,0,0,0,4,4.83c1,.38,1.93.8,2.86,1.27a5.87,5.87,0,0,1,2.22,2.46Z" transform="translate(0 -5.82)"/><path class="cls-3" d="M478.38,239c-.24,2.94-.47,5.95-.79,8.88a43.3,43.3,0,0,1-.87,5.07c-.64,2.78-1.43,5.55-2.22,8.24q-2.14,7.21-4.52,14.43a10.22,10.22,0,0,1-1.82,3.33,7.75,7.75,0,0,1,.23-1.43c1.19-3.57,2.53-7.13,3.65-10.7s1.74-6.42,2.53-9.67,1.43-5.47,2.06-8.32a36.59,36.59,0,0,0,.4-4,34.17,34.17,0,0,1,.39-3.49,14.35,14.35,0,0,1,.95-2.29Z" transform="translate(0 -5.82)"/><path class="cls-3" d="M537,290.46l-4.36-3.09c-.08-.08-.24-.16-.32-.24-.39-1.9-2.22-2.14-3.49-2.93L526,282.38a7.45,7.45,0,0,0-2.3-1,10,10,0,0,1-6.1-3.73,25.46,25.46,0,0,1-2.38-3.17l2.22,1.43a15,15,0,0,1,2.3,1.9c1.59,1.75,3.88,2.22,5.94,3.09a74.6,74.6,0,0,1,7.14,3.88c.39.24.55.72.79,1.11a13.76,13.76,0,0,0,1.82,2.06,4,4,0,0,1,1.67,2.62h.08" transform="translate(0 -5.82)"/><path class="cls-3" d="M501.21,235.22c0-.32-.16-.79,0-1,1-2.14.47-4.28,0-6.42a19.56,19.56,0,0,1-.32-3.33c-.08-.55,0-1.19-.08-1.75a17.52,17.52,0,0,1,.87-8.4,7.8,7.8,0,0,1,3-4,19,19,0,0,0-2.93,11.41c.16,2.93.63,5.95.79,8.88a18.51,18.51,0,0,1-.31,3.72,2.75,2.75,0,0,1-.64,1h-.31" transform="translate(0 -5.82)"/><path class="cls-3" d="M485.43,241.16a6.78,6.78,0,0,1,1.59.8l5.78,5.15,1.83-.32,3.17,5.07-2.3-1.26c-1.82-1.19-1.82-1.27-3.81-1.11a6.94,6.94,0,0,0-3.32-4.68l-.48-.4-2.38-3.33Z" transform="translate(0 -5.82)"/><path class="cls-3" d="M549.15,233.08c5.15,3.88,6.74,12,5.79,15.38-.18-.39-.34-.79-.48-1.19-.47-1.91-.87-3.89-1.35-5.79a5.82,5.82,0,0,0-.71-1.66L549.31,235a11.05,11.05,0,0,1-.71-1.66l.47-.16" transform="translate(0 -5.82)"/><path class="cls-3" d="M464.19,153.19a18.55,18.55,0,0,1,3.25,1.83,18,18,0,0,0,6.42,3.48,12.22,12.22,0,0,1,7.06,5.55,3.81,3.81,0,0,1-2.7-1.58,11.84,11.84,0,0,0-4.59-3,79.58,79.58,0,0,1-7.37-3.89c-.88-.47-1.35-1.58-2-2.37Z" transform="translate(0 -5.82)"/><path class="cls-3" d="M503.27,261.06l2.69,3.56c.24.4.4.88.79,1.11a12.79,12.79,0,0,1,3.73,4.28c.55.87.87.87,2.3.4l1.42,2.14a4.83,4.83,0,0,1-1.42,0,8,8,0,0,1-3.73-2.86,28,28,0,0,0-2.85-3,28.37,28.37,0,0,1-3.57-5.31l.64-.39" transform="translate(0 -5.82)"/><path class="cls-3" d="M464.27,153.12l-1.26,2c-1.83-2.78-4.6-4.92-5.15-8.33.63-.63,1.18-.63,1.58,0a15.84,15.84,0,0,1,.71,1.43,17.92,17.92,0,0,0,4.05,5h0" transform="translate(0 -5.82)"/><path class="cls-3" d="M501.84,176.26,499,174.91a24,24,0,0,0-7.06-2.53,31.88,31.88,0,0,1-4.2-1.51h-.15l-.64-1,7.53,2.29c2.77.8,5,2.7,7.53,3.89l-.16.32" transform="translate(0 -5.82)"/><path class="cls-3" d="M477.43,219.69c.79,4.51.24,9.27,2.77,13.79-1.34-.48-2-.72-2.22-1.91a32.91,32.91,0,0,1-.55-5.94,30.46,30.46,0,0,0-.4-3.57c-.08-.79-.16-1.58-.23-2.45h.55" transform="translate(0 -5.82)"/><path class="cls-3" d="M540.12,221.35c3.09,2.53,5,5.55,6.9,8.72a1.22,1.22,0,0,1-1.51-.56L540.12,222v-.64" transform="translate(0 -5.82)"/><path class="cls-3" d="M468.63,168.57a3.68,3.68,0,0,1-.31-.63,38.36,38.36,0,0,0-4-9.51,4.57,4.57,0,0,1-.47-2.38c.16.16.39.24.47.39,1.43,3.25,2.86,6.5,4.28,9.83a8.82,8.82,0,0,1,.32,2.22h-.32" transform="translate(0 -5.82)"/><path class="cls-3" d="M376.22,83.21c4.6,1.27,9.2,2.38,13.24,4.84l-.16.47-2.46-1L382.57,86c-2.14-.71-4.44-1.35-6.27-2.78h-.08" transform="translate(0 -5.82)"/><path class="cls-3" d="M431.31,116.9l-5.87-5.15c.4,0,.71-.16.87-.08,1.51,1.19,3,2.37,4.36,3.64s.4,1,.56,1.59Z" transform="translate(0 -5.82)"/><path class="cls-3" d="M580.38,294.42a15.36,15.36,0,0,0-1.35-2.53,11.62,11.62,0,0,0-2-1.66l.24-.4a3.68,3.68,0,0,1,1,.24,32.23,32.23,0,0,1,2.53,2.93c.24.24,0,.79,0,1.27h-.48" transform="translate(0 -5.82)"/><path class="cls-3" d="M447.55,134a14,14,0,0,1,4.68,4c-2.53-.4-3.57-2.3-4.68-4" transform="translate(0 -5.82)"/><path class="cls-3" d="M534.25,216a11.67,11.67,0,0,1,4.68,4.84l-.79-.48a35.34,35.34,0,0,1-2.94-2.93,9.37,9.37,0,0,1-1-1.51h-.08" transform="translate(0 -5.82)"/><path class="cls-3" d="M441.37,128.31c3,2.14,3.33,2.46,3.33,3.72a7.41,7.41,0,0,1-3.33-3.72" transform="translate(0 -5.82)"/><path class="cls-3" d="M500.65,235.7c-.08,2.69-2.14,3.56-3.17,5.15a10.66,10.66,0,0,1,3.17-5.15" transform="translate(0 -5.82)"/><path class="cls-3" d="M506.28,208.67c.55-1.27,0-3.33,2.37-3.57-.15,1.75-1.34,2.54-2.37,3.57" transform="translate(0 -5.82)"/><path class="cls-3" d="M497,242l-1.18,3.4c-1.43-1.19-1.35-1.43,1.18-3.4" transform="translate(0 -5.82)"/><path class="cls-3" d="M483.93,238.87c-2.7-1.51-3.18-2.14-3.41-4.12a28.71,28.71,0,0,1,3.41,4.12" transform="translate(0 -5.82)"/><path class="cls-3" d="M416.64,103.19a4.24,4.24,0,0,1,1,.55,16,16,0,0,1,1.19,1.35l1.27,1C418.23,106.44,417.36,105.64,416.64,103.19Z" transform="translate(0 -5.82)"/><path class="cls-3" d="M478.38,239a5.84,5.84,0,0,1-.48-4.43c.64.79.64.79.48,4.43h0" transform="translate(0 -5.82)"/><path class="cls-3" d="M581.88,298.23,580.46,296c1.66-.32,2,.08,1.42,2.22" transform="translate(0 -5.82)"/><path class="cls-3" d="M365.61,79.81a7.78,7.78,0,0,1,5.23,1.58h0l-5.23-1.58h-.08" transform="translate(0 -5.82)"/><path class="cls-3" d="M570.08,285.31a7.34,7.34,0,0,1,4.43,3.17h.08a12.08,12.08,0,0,1-4.44-3.17h-.07" transform="translate(0 -5.82)"/><path class="cls-3" d="M509.13,203.2c-.63-1-.63-1,.55-2.3.24,1.11.24,1.11-.55,2.3" transform="translate(0 -5.82)"/><path class="cls-3" d="M540.59,285.39l-3-.48c1.19-1,1.59-1,3,.48" transform="translate(0 -5.82)"/><path class="cls-3" d="M370.84,81.39a9.18,9.18,0,0,1,5.38,1.9h.08l-5.39-1.9h-.07" transform="translate(0 -5.82)"/><path class="cls-3" d="M416.64,103.19c-1.5.15-1.9-1.43-2.85-2,1.27.24,2,1.27,2.85,2.07h.08" transform="translate(0 -5.82)"/><path class="cls-3" d="M409.43,98l2.3,1.11C410.46,99.62,410,98.83,409.43,98Z" transform="translate(0 -5.82)"/><path class="cls-3" d="M464.67,288.56a3.67,3.67,0,0,1,.95-2.62c0,1.35,0,1.35-1,2.53h.08" transform="translate(0 -5.82)"/><path class="cls-3" d="M454.21,140.44l1.66,1.74-.31.24L454,140.67l.24-.23" transform="translate(0 -5.82)"/><path class="cls-3" d="M409.43,98l-2.46-1,.24-.47A5,5,0,0,1,409.43,98h.08" transform="translate(0 -5.82)"/><path class="cls-3" d="M516,190.92c-1-.48-.88-.87.08-1.43v1.43" transform="translate(0 -5.82)"/><path class="cls-3" d="M431.31,116.9a1.72,1.72,0,0,1,1.74,1.11,1.75,1.75,0,0,1-1.66-1.19h-.08" transform="translate(0 -5.82)"/><path class="cls-3" d="M513.17,184.9l-.63-1,.24-.16.79,1-.4.23" transform="translate(0 -5.82)"/><path class="cls-3" d="M392.07,90l-1-.47.16-.32,1,.47-.16.32" transform="translate(0 -5.82)"/><path class="cls-3" d="M485.51,241.09l-.31.15h-.88l.16-.55.95.4.16.16h0" transform="translate(0 -5.82)"/><path class="cls-3" d="M511.75,194.72l.15-1.58.56.16-.71,1.34Z" transform="translate(0 -5.82)"/><path class="cls-3" d="M510.24,180.93l.48.64-.24.16-.48-.64.24-.16" transform="translate(0 -5.82)"/><path class="cls-3" d="M504.61,177.21l-.95-.32v-.24l1,.16v.4" transform="translate(0 -5.82)"/><path class="cls-3" d="M574.51,288.48l1,.39-.23.4-.8-.79h-.08" transform="translate(0 -5.82)"/><path class="cls-3" d="M394.45,91l.8.32a1.87,1.87,0,0,1-.08.32l-.88-.24V91" transform="translate(0 -5.82)"/><path class="cls-3" d="M511.67,194.72V196c-.64-.55-.08-.87.08-1.27h0" transform="translate(0 -5.82)"/><path class="cls-3" d="M455.24,144.24l.63.79-.23.16-.64-.79.24-.16" transform="translate(0 -5.82)"/><path class="cls-3" d="M446.68,133.38l-.48.24-.15-.24.47-.24.24.32" transform="translate(0 -5.82)"/><path class="cls-3" d="M532.67,214.85l1.58,1.19h.08a1.57,1.57,0,0,1-1.58-1.19Z" transform="translate(0 -5.82)"/><path class="cls-3" d="M532.67,214.78l-1.11-.56.24-.32.79.88h.08" transform="translate(0 -5.82)"/><path class="cls-3" d="M514.52,192.11l1.19.55-.24.4-.87-.95Z" transform="translate(0 -5.82)"/><path class="cls-3" d="M514.6,192l-.87-.63.31-.24.48,1h.08" transform="translate(0 -5.82)"/><path class="cls-3" d="M509.05,179.51l.32.15-.24.24H509v-.24" transform="translate(0 -5.82)"/><path class="cls-3" d="M315.2,60.63v-.56c-.4-.08-.87-.31-1.19-.16a14.7,14.7,0,0,0-7.13,5.39c1,.88,1.43.08,1.82-.47a8.33,8.33,0,0,1,4.92-3.49,13.15,13.15,0,0,0,1.58-.71m-17.12,18c.56.79.8.87,1.35.47a1.64,1.64,0,0,0,.21-2.31.86.86,0,0,0-.13-.14l-1.43,2m3-2.7-.23-.23-.24.23c.08.08.16.24.24.24l.23-.24" transform="translate(0 -5.82)"/><path class="cls-3" d="M431,338.8l-.32-1.27H431l.24,1.27H431" transform="translate(0 -5.82)"/><path class="cls-3" d="M118.81,302c-.23-.24-.47-.4-.39-.47a1.82,1.82,0,0,1,.39-.56c.16.08.4.24.32.32a2.16,2.16,0,0,1-.32.71" transform="translate(0 -5.82)"/><path class="cls-3" d="M315.2,60.63a13.15,13.15,0,0,1-1.58.71,8.33,8.33,0,0,0-4.92,3.49c-.39.55-.79,1.35-1.82.47A14.7,14.7,0,0,1,314,59.91c.32-.07.79.16,1.19.16Z" transform="translate(0 -5.82)"/><path class="cls-3" d="M298.08,78.62l1.43-2c.87,1,.79,1.74-.08,2.45s-.79.32-1.35-.47" transform="translate(0 -5.82)"/><path class="cls-3" d="M301.09,75.92l-.23.24-.24-.24.24-.23.23.23" transform="translate(0 -5.82)"/><path class="cls-3" d="M318.05,64c-2-1-4.43-1-5.78.87s-2.06,2.46-2.93,3.8-1.27,1.51-.4,2.38c2.22-.71,4-2.38,6.1-2.3l2.22-2.38a4.47,4.47,0,0,0,1-1.18A1.17,1.17,0,0,0,318,64m-4.68,4c0-.16,0-.32.08-.32l1.75-1.19c-.32,1-.72,1.67-1.83,1.51m1.75-2.86L312.52,67c.47-1.35,1.11-2.38,2.62-2.22,0,.24,0,.4-.08.48" transform="translate(0 -5.82)"/></g><line class="cls-4" x1="185.34" y1="14.18" x2="185.34" y2="23"/><line class="cls-4" x1="477.57" y1="14.18" x2="477.57" y2="23"/><line class="cls-4" x1="185.34" y1="19.04" x2="477.57" y2="19.04"/><line class="cls-5" x1="185.34" y1="14.18" x2="185.34" y2="23"/><line class="cls-5" x1="477.57" y1="14.18" x2="477.57" y2="23"/><line class="cls-5" x1="185.34" y1="19.04" x2="477.57" y2="19.04"/><line class="cls-4" x1="366.96" y1="521.24" x2="384.59" y2="521.24"/><line class="cls-4" x1="366.96" y1="416.76" x2="384.59" y2="416.76"/><line class="cls-4" x1="376.68" y1="521.24" x2="376.68" y2="416.76"/><line class="cls-5" x1="366.96" y1="521.24" x2="384.59" y2="521.24"/><line class="cls-5" x1="366.96" y1="416.76" x2="384.59" y2="416.76"/><line class="cls-5" x1="376.68" y1="521.24" x2="376.68" y2="416.76"/><line class="cls-4" x1="158.39" y1="570.64" x2="167.93" y2="570.64"/><line class="cls-4" x1="158.39" y1="0.5" x2="167.93" y2="0.5"/><line class="cls-4" x1="163.65" y1="570.64" x2="163.65" y2="0.5"/><line class="cls-5" x1="158.39" y1="570.64" x2="167.93" y2="570.64"/><line class="cls-5" x1="158.39" y1="0.5" x2="167.93" y2="0.5"/><line class="cls-5" x1="163.65" y1="570.64" x2="163.65" y2="0.5"/><line class="cls-4" x1="466.33" y1="382.14" x2="477.57" y2="382.14"/><line class="cls-4" x1="466.33" y1="74.28" x2="477.57" y2="74.28"/><line class="cls-4" x1="472.53" y1="382.14" x2="472.53" y2="74.28"/><line class="cls-5" x1="466.33" y1="382.14" x2="477.57" y2="382.14"/><line class="cls-5" x1="466.33" y1="74.28" x2="477.57" y2="74.28"/><line class="cls-5" x1="472.53" y1="382.14" x2="472.53" y2="74.28"/><path class="cls-3" d="M.9,119.7H.1l3.8-9.82h.83Z" transform="translate(0 -5.82)"/><path class="cls-3" d="M5.47,119.7h-.8l3.8-9.82H9.3Z" transform="translate(0 -5.82)"/><path class="cls-3" d="M24.27,117.87a9.33,9.33,0,0,0,1.42-4.45l.78.17A10.57,10.57,0,0,1,25,118.31Zm3.44-5.45,1.05.08c0,.08-.07.14-.23.15v5.94c0,.56.13.67.83.67h2.36c.75,0,.87-.44,1-2.59a2.74,2.74,0,0,0,.77.37c-.12,2.29-.39,3-1.69,3H29.3c-1.25,0-1.59-.32-1.59-1.44Zm4.3-.61a19.42,19.42,0,0,0-4.21-2.1l.5-.62a21.22,21.22,0,0,1,4.21,2ZM35,118a13.49,13.49,0,0,0-2.24-4.57l.72-.35a13.49,13.49,0,0,1,2.33,4.55Z" transform="translate(0 -5.82)"/><path class="cls-3" d="M42.75,111.22a.31.31,0,0,1-.3.2c-.43,3.73-1.68,7-3.67,7-1,0-1.92-1-1.92-2.91a5.27,5.27,0,0,1,5.4-5.29c3.47,0,5,2.2,5,4.54,0,2.85-1.66,4.23-4.56,4.9a4.66,4.66,0,0,0-.51-.73c2.76-.53,4.18-1.87,4.18-4.14,0-2-1.27-3.77-4.08-3.77l-.36,0Zm-1.15-.15a4.41,4.41,0,0,0-3.92,4.4c0,1.28.55,2.09,1.13,2.09C40.26,117.56,41.3,114.35,41.6,111.07Z" transform="translate(0 -5.82)"/><path class="cls-3" d="M59.55,111.51H50.36V114c0,1.82-.17,4.45-1.29,6.2a3.61,3.61,0,0,0-.69-.46c1.08-1.68,1.18-4,1.18-5.74v-3.27H54V109l1.07.07c0,.09-.08.15-.24.17v1.46h4.74Zm-2.65,3.9a21.29,21.29,0,0,1,2.79,4.43l-.79.39c-.12-.32-.3-.71-.51-1.13-2.7.18-5.57.34-7.34.44a.21.21,0,0,1-.18.15l-.38-1,1.44-.06a45.37,45.37,0,0,0,2-6.32l1.08.29c0,.08-.13.14-.29.15a52.38,52.38,0,0,1-2,5.86L58,118.4a23.69,23.69,0,0,0-1.8-2.65Z" transform="translate(0 -5.82)"/><path class="cls-3" d="M70.9,111.8a23.19,23.19,0,0,1-4,.66c.47,1.63,1,2.6,2.26,3.17l-.58.73a4.14,4.14,0,0,0-2.68-.83l-.14-.71a12,12,0,0,1,1.33.18A6.56,6.56,0,0,1,66,112.52c-.54,0-1.27.07-2,.07s-2.05,0-2.82,0v-.82c.72,0,1.74,0,2.83,0,.61,0,1.31,0,1.79-.06-.14-.65-.28-1.54-.42-2.46l1.28,0c0,.15-.12.23-.31.28a20.86,20.86,0,0,0,.33,2.1,21,21,0,0,0,4-.71Zm-2.15,7.89c-.57,0-1.18,0-2.23,0-2.5,0-4.28-.77-4.28-2.38a3,3,0,0,1,1.08-2l.65.51a2.1,2.1,0,0,0-.86,1.48c0,1.19,1.53,1.57,3.44,1.57,1,0,1.65,0,2.26-.06Z" transform="translate(0 -5.82)"/><path class="cls-3" d="M9.5,133.61l-2.08,6.55H6.54l-1-3.28a19.13,19.13,0,0,1-.57-2.16h0a16,16,0,0,1-.6,2.17L3.2,140.16H2.3L.37,133.61h1l.91,3.44c.18.73.36,1.4.5,2.07h0c.15-.65.36-1.35.58-2.06l1.09-3.45h.86l1,3.39c.22.77.42,1.46.57,2.12H7c.12-.65.3-1.33.51-2.11l1-3.4Z" transform="translate(0 -5.82)"/><path class="cls-3" d="M11.19,132.48a.68.68,0,0,1,0-1.36.68.68,0,0,1,0,1.36Zm.51,7.68h-1v-6.53h1Z" transform="translate(0 -5.82)"/><path class="cls-3" d="M19,138.54c0,.53,0,1.18,0,1.62h-.88l-.05-1.11h0a2.31,2.31,0,0,1-2.13,1.26c-1.51,0-2.69-1.31-2.69-3.33,0-2.2,1.3-3.5,2.82-3.5a2.1,2.1,0,0,1,1.91,1h0v-3.92h1Zm-1-2.3a1.8,1.8,0,0,0-1.76-2c-1.24,0-2,1.15-2,2.65s.65,2.55,1.93,2.55a1.88,1.88,0,0,0,1.8-2Z" transform="translate(0 -5.82)"/><path class="cls-3" d="M21.19,132.44l1-.34v1.53h1.7v.78h-1.7v3.78c0,.82.26,1.28.89,1.28a1.89,1.89,0,0,0,.67-.1l.06.77a2.4,2.4,0,0,1-1,.16c-1.58,0-1.63-1.44-1.63-2.14v-3.75h-1v-.78h1Z" transform="translate(0 -5.82)"/><path class="cls-3" d="M30.4,140.16h-1V136.3c0-1.07-.39-2-1.51-2a1.79,1.79,0,0,0-1.73,1.84v4h-1v-9.59h1v4.06h0a2.42,2.42,0,0,1,2-1.16c.8,0,2.18.49,2.18,2.71Z" transform="translate(0 -5.82)"/><path class="cls-3" d="M40.69,136.84c0,2.44-1.61,3.47-3.06,3.47-1.68,0-3-1.26-3-3.37s1.39-3.47,3.05-3.47S40.69,134.84,40.69,136.84Zm-3-2.59c-1.42,0-2,1.39-2,2.65,0,1.45.81,2.63,2,2.63s2-1.18,2-2.65C39.67,135.71,39.1,134.25,37.68,134.25Z" transform="translate(0 -5.82)"/><path class="cls-3" d="M42.31,133.63A3.56,3.56,0,0,1,43,131a2.15,2.15,0,0,1,1.51-.58,2.33,2.33,0,0,1,1,.19l-.17.78a1.67,1.67,0,0,0-.75-.16c-1,0-1.28,1-1.28,2v.37h1.58v.78H43.31v5.75h-1v-5.75h-.9v-.78Z" transform="translate(0 -5.82)"/><path class="cls-3" d="M57.38,140.16h-1l-.22-4.11c-.08-1.31-.17-3-.16-3.93h0c-.3,1-.67,2.15-1.11,3.43l-1.63,4.58H52.5L51,135.64c-.44-1.32-.79-2.47-1-3.52h0c0,1.11-.09,2.62-.18,4l-.25,4h-.94l.63-9.14h1.22L52,135.67c.38,1.14.68,2.11.92,3.05h0c.23-.92.54-1.88,1-3.05L55.56,131H56.8Z" transform="translate(0 -5.82)"/><path class="cls-3" d="M59.63,132.48a.68.68,0,1,1,.66-.69A.65.65,0,0,1,59.63,132.48Zm.5,7.68h-1v-6.53h1Z" transform="translate(0 -5.82)"/><path class="cls-3" d="M67.34,140.16h-1V136.3c0-1.07-.38-2-1.52-2a1.78,1.78,0,0,0-1.71,1.86v4h-1v-4.85c0-.68,0-1.17,0-1.7H63l.06,1.07h0a2.35,2.35,0,0,1,2.1-1.21c.82,0,2.21.49,2.21,2.71Z" transform="translate(0 -5.82)"/><path class="cls-3" d="M74.55,138.54c0,.53,0,1.18,0,1.62h-.89l0-1.11h0a2.33,2.33,0,0,1-2.14,1.26c-1.51,0-2.68-1.31-2.68-3.33,0-2.2,1.29-3.5,2.81-3.5a2.1,2.1,0,0,1,1.91,1h0v-3.92h1Zm-1-2.3a1.81,1.81,0,0,0-1.77-2c-1.23,0-2,1.15-2,2.65s.64,2.55,1.93,2.55a1.88,1.88,0,0,0,1.8-2Z" transform="translate(0 -5.82)"/><path class="cls-3" d="M79.05,134.65a.71.71,0,1,1,.71.76A.71.71,0,0,1,79.05,134.65Zm0,4.9a.71.71,0,1,1,.71.76A.72.72,0,0,1,79.05,139.55Z" transform="translate(0 -5.82)"/><path class="cls-3" d="M89.65,140.16H84.33v-.61l.88-.92c2.13-2.16,3.21-3.47,3.21-4.93a1.62,1.62,0,0,0-1.71-1.85,3,3,0,0,0-1.8.75l-.34-.7A3.53,3.53,0,0,1,86.9,131a2.4,2.4,0,0,1,2.53,2.56c0,1.69-1.19,3.13-3.05,5l-.7.74v0h4Z" transform="translate(0 -5.82)"/><path class="cls-3" d="M90.84,135.7c0-3.14,1.22-4.66,2.9-4.66s2.75,1.6,2.75,4.54c0,3.12-1.09,4.73-2.88,4.73C92,140.31,90.84,138.7,90.84,135.7Zm4.64-.07c0-2.24-.54-3.79-1.8-3.79-1.07,0-1.82,1.43-1.82,3.79s.66,3.86,1.78,3.86C95,139.49,95.48,137.77,95.48,135.63Z" transform="translate(0 -5.82)"/><path class="cls-3" d="M97.45,135.7c0-3.14,1.22-4.66,2.9-4.66s2.75,1.6,2.75,4.54c0,3.12-1.09,4.73-2.88,4.73C98.59,140.31,97.45,138.7,97.45,135.7Zm4.64-.07c0-2.24-.54-3.79-1.8-3.79-1.06,0-1.82,1.43-1.82,3.79s.66,3.86,1.79,3.86C101.59,139.49,102.09,137.77,102.09,135.63Z" transform="translate(0 -5.82)"/><path class="cls-3" d="M104.06,135.7c0-3.14,1.23-4.66,2.9-4.66s2.75,1.6,2.75,4.54c0,3.12-1.09,4.73-2.88,4.73C105.2,140.31,104.06,138.7,104.06,135.7Zm4.64-.07c0-2.24-.54-3.79-1.79-3.79-1.07,0-1.83,1.43-1.83,3.79s.66,3.86,1.79,3.86C108.2,139.49,108.7,137.77,108.7,135.63Z" transform="translate(0 -5.82)"/><path class="cls-3" d="M114.55,133.83c0,1.87-.93,2.77-2,2.77s-1.94-.87-1.94-2.65.93-2.73,2-2.73S114.55,132.2,114.55,133.83Zm-3.12.12c0,1.09.4,2,1.15,2s1.15-.95,1.15-2.09-.3-2-1.15-2S111.43,132.92,111.43,134Zm1.66,6.38h-.69l5.14-9.14h.68ZM120,137.5c0,1.86-.92,2.76-2,2.76s-1.94-.88-1.94-2.65.93-2.75,2-2.75S120,135.86,120,137.5Zm-3.12.06c0,1.14.4,2.06,1.15,2.06s1.15-.93,1.15-2.08-.28-2-1.13-2S116.91,136.53,116.91,137.56Z" transform="translate(0 -5.82)"/><path class="cls-3" d="M122.66,138.59a16.68,16.68,0,0,1-1.21,3.17l-.72.1a20.88,20.88,0,0,0,.78-3.14Zm-1.37-3.94a.72.72,0,0,1,.71-.77.77.77,0,0,1,0,1.53A.72.72,0,0,1,121.29,134.65Z" transform="translate(0 -5.82)"/><path class="cls-3" d="M.8,191.33H0l3.8-9.82h.83Z" transform="translate(0 -5.82)"/><path class="cls-3" d="M5.38,191.33H4.57l3.8-9.82H9.2Z" transform="translate(0 -5.82)"/><path class="cls-3" d="M32.54,188.6H28.06a6.21,6.21,0,0,0,4.62,2.5,3.82,3.82,0,0,0-.49.72c-2.38-.44-4.07-1.46-5-3.22H27c-.61,1.22-2,2.36-4.81,3.22a3.22,3.22,0,0,0-.49-.66c2.51-.7,3.76-1.6,4.38-2.56H21.83v-.71h4.64a4.91,4.91,0,0,0,.23-1.1H23.3v-.7h3.42v-1H23v-.68h3.74v-1.2l1,.07c0,.08-.07.14-.22.17v1h3.82v-1.53H22.94v1.59h-.79v-2.31h4.57v-1.47l1.07.07c0,.08-.09.14-.24.16v1.24h4.64v2.31h-.77v.62H27.54v1h3.61v.7H27.51a4.72,4.72,0,0,1-.2,1.1h5.23Z" transform="translate(0 -5.82)"/><path class="cls-3" d="M34.79,191.14a13.18,13.18,0,0,1-.52-4.22,30.13,30.13,0,0,1,.65-5.6l1.16.23c0,.12-.14.2-.31.21a23.14,23.14,0,0,0-.7,5.17,15,15,0,0,0,.11,2.27c.27-.72.75-1.87,1-2.44l.54.51a13.68,13.68,0,0,0-1.24,3.2,1.66,1.66,0,0,0,.12.57Zm3-7.06c1,0,2,0,3-.05,0-1-.09-1.92-.11-2.81l1.21,0c0,.12-.12.21-.31.25,0,.77,0,1.55.06,2.46a11.38,11.38,0,0,0,2.35-.48l.11.84a11.44,11.44,0,0,1-2.43.43c0,1.33.11,2.73.15,3.5a8.8,8.8,0,0,1,2.44,1.52l-.46.77a7.12,7.12,0,0,0-1.95-1.36c0,1-.2,2.15-2,2.15-1.4,0-2.34-.67-2.34-1.72,0-1.23,1.24-1.77,2.34-1.77a4.08,4.08,0,0,1,1.14.16c0-.76-.11-2-.17-3.19-.37,0-.87,0-1.22,0H37.84Zm3.29,4.71a4,4,0,0,0-1.19-.22c-.73,0-1.61.27-1.61,1s.72,1,1.6,1,1.21-.43,1.21-1.39Z" transform="translate(0 -5.82)"/><path class="cls-3" d="M56.78,182.55H48.13v3.21c0,1.85-.23,4.4-1.71,6.08a3.26,3.26,0,0,0-.58-.54,6.63,6.63,0,0,0,1.46-3.84c-.5.31-1,.59-1.33.79a.18.18,0,0,1-.12.2l-.35-.81c.5-.23,1.15-.58,1.86-1,0-.32,0-.62,0-.92v-3.91h4v-1.18l1.08.07c0,.09-.09.15-.24.17v.94h4.58Zm-10.46.33a8.49,8.49,0,0,1,.81,2.34c-.49.22-.57.25-.66.28a9,9,0,0,0-.77-2.38ZM55.19,188l.53.26a.22.22,0,0,1-.12.11,5.93,5.93,0,0,1-2.3,2.1,15.12,15.12,0,0,0,3.51.74,3.54,3.54,0,0,0-.44.65,14,14,0,0,1-3.89-1,16.84,16.84,0,0,1-4,1,2,2,0,0,0-.35-.66,16.64,16.64,0,0,0,3.53-.77,5.92,5.92,0,0,1-1.85-1.6l.47-.18H48.74V188h3.34v-.8H49.17v-3.62h2.91v-.74l1,.07c0,.08-.07.13-.24.16v.51h3v3.62h-3v.8h2.23Zm-5.27-3.8v.95h2.16v-.95Zm0,2.47h2.16v-1H49.92Zm.62,2a5.29,5.29,0,0,0,1.93,1.44,5.68,5.68,0,0,0,2-1.44Zm4.55-4.48H52.82v.95h2.27Zm0,2.47v-1H52.82v1Z" transform="translate(0 -5.82)"/><path class="cls-3" d="M66.05,181.1c0,.12-.08.18-.26.23,0,.84.08,1.82.11,2.72l2.57-.41.07.84c-.72.08-1.66.21-2.63.36a15.07,15.07,0,0,1-.13,2.67,1.31,1.31,0,0,1-1.34,1.11,4.11,4.11,0,0,1-1.85-.53,4.56,4.56,0,0,0,.14-.7,3.65,3.65,0,0,0,1.57.46c.72,0,.83-.7.77-2.89l-3.91.66c0,1.14.05,2.23.1,2.91.14,1.82,1,1.93,2.77,1.93a26,26,0,0,0,3.14-.18l0,.81a29.48,29.48,0,0,1-3.07.13c-1.86,0-3.49,0-3.69-2.62-.06-.67-.08-1.72-.11-2.83l-2.34.44-.13-.8,2.46-.41c0-1,0-2.17,0-3.08l1.18.1c0,.14-.1.21-.3.23,0,.73,0,1.69,0,2.59l3.89-.64c0-1-.08-2.19-.16-3.16Z" transform="translate(0 -5.82)"/><path class="cls-3" d="M73.46,184.46H71.79a3.92,3.92,0,0,1-1.71,2.83,2.65,2.65,0,0,0-.55-.56A3.35,3.35,0,0,0,71,184.46H69.71v-.73h1.4v-1.84H70v-.72h5.38v.72H74.23v1.84h1.31v.73H74.23v2.65h-.77Zm2.09,6.21h5.13v.77h-11v-.77h5.07V189H70.93v-.74h3.79v-1.54l1.06.08c0,.08-.08.14-.23.16v1.3h3.84V189H75.55Zm-3.7-8.78v1.84h1.61v-1.84Zm5.46-.55c0,.09-.07.13-.24.16v3.94h-.75v-4.17Zm3-.57c0,.08-.07.14-.23.16v5.37c0,.86-.49.91-2.14.91a2.4,2.4,0,0,0-.26-.72h.76c.86,0,.86,0,.86-.2v-5.59Z" transform="translate(0 -5.82)"/><path class="cls-3" d="M1.94,206.36a2.43,2.43,0,0,1,2.23-1.26c1.55,0,2.67,1.33,2.67,3.33,0,2.4-1.41,3.51-2.85,3.51a2.21,2.21,0,0,1-2-1.05H2v3.58H1v-7.11c0-.86,0-1.52-.05-2.12h.9l.06,1.12ZM2,209.19a1.84,1.84,0,0,0,1.84,1.94c1.28,0,2-1.1,2-2.66,0-1.36-.68-2.55-2-2.55a2,2,0,0,0-1.87,2Z" transform="translate(0 -5.82)"/><path class="cls-3" d="M12.62,210.23a8.53,8.53,0,0,0,.1,1.56h-.91l-.1-.84h0a2.25,2.25,0,0,1-1.93,1,1.82,1.82,0,0,1-1.9-1.86c0-1.57,1.36-2.43,3.79-2.41,0-.56,0-1.8-1.49-1.8a2.78,2.78,0,0,0-1.6.47l-.24-.69a3.71,3.71,0,0,1,2-.55c1.85,0,2.33,1.31,2.33,2.6Zm-1-1.83c-1.24,0-2.79.18-2.79,1.56A1.09,1.09,0,0,0,10,211.17a1.6,1.6,0,0,0,1.66-1.54Z" transform="translate(0 -5.82)"/><path class="cls-3" d="M19.82,210.17c0,.53,0,1.18.05,1.62H19l-.05-1.11h0a2.33,2.33,0,0,1-2.14,1.26c-1.51,0-2.68-1.31-2.68-3.33,0-2.2,1.29-3.5,2.81-3.5a2.1,2.1,0,0,1,1.91,1h0V202.2h1Zm-1-2.3a1.81,1.81,0,0,0-1.77-2c-1.23,0-2,1.15-2,2.65s.64,2.55,1.93,2.55a1.88,1.88,0,0,0,1.8-2Z" transform="translate(0 -5.82)"/><path class="cls-3" d="M27.07,210.17c0,.53,0,1.18.05,1.62h-.89l-.05-1.11h0A2.33,2.33,0,0,1,24,211.94c-1.51,0-2.69-1.31-2.69-3.33,0-2.2,1.3-3.5,2.82-3.5a2.1,2.1,0,0,1,1.91,1h0V202.2h1Zm-1-2.3a1.8,1.8,0,0,0-1.76-2c-1.24,0-2,1.15-2,2.65s.65,2.55,1.93,2.55a1.88,1.88,0,0,0,1.8-2Z" transform="translate(0 -5.82)"/><path class="cls-3" d="M29.53,204.11a.68.68,0,0,1,0-1.36.68.68,0,0,1,0,1.36Zm.51,7.68H29v-6.53h1Z" transform="translate(0 -5.82)"/><path class="cls-3" d="M37.24,211.79h-1v-3.86c0-1.07-.38-2-1.52-2A1.78,1.78,0,0,0,33,207.79v4H32v-4.85c0-.68,0-1.17-.05-1.7h.89l.06,1.07h0A2.34,2.34,0,0,1,35,205.1c.81,0,2.2.49,2.2,2.71Z" transform="translate(0 -5.82)"/><path class="cls-3" d="M44.49,205.24c0,.47-.06,1-.06,1.8v3.82c0,1.14,0,3.75-3.12,3.75a4,4,0,0,1-2.05-.51l.27-.78a3.59,3.59,0,0,0,1.83.49c1.2,0,2.08-.64,2.08-2.37v-.77h0a2.22,2.22,0,0,1-2,1.11c-1.56,0-2.68-1.38-2.68-3.21,0-2.27,1.42-3.47,2.83-3.47a2.09,2.09,0,0,1,2,1.13h0l0-1Zm-1.06,2.52a1.76,1.76,0,0,0-1.74-1.86c-1.15,0-2,1-2,2.61,0,1.39.67,2.48,1.94,2.48a1.79,1.79,0,0,0,1.76-1.92Z" transform="translate(0 -5.82)"/><path class="cls-3" d="M48.94,206.28a.71.71,0,1,1,.7.76A.7.7,0,0,1,48.94,206.28Zm0,4.9a.71.71,0,1,1,.7.76A.71.71,0,0,1,48.94,211.18Z" transform="translate(0 -5.82)"/><path class="cls-3" d="M54.11,207.33c0-3.14,1.22-4.66,2.9-4.66s2.75,1.6,2.75,4.54c0,3.12-1.1,4.73-2.88,4.73S54.11,210.33,54.11,207.33Zm4.64-.07c0-2.24-.54-3.79-1.8-3.79-1.07,0-1.82,1.43-1.82,3.79s.66,3.86,1.78,3.86C58.25,211.12,58.75,209.39,58.75,207.26Z" transform="translate(0 -5.82)"/><path class="cls-3" d="M68.14,211.79H67.2v-2.52H63.27v-.63l3.84-5.83h1v5.7h1.23v.76H68.14Zm-3.86-3.28H67.2v-3.19c0-.5,0-1,0-1.44h0c-.28.55-.49.93-.72,1.34l-2.2,3.26Z" transform="translate(0 -5.82)"/><path class="cls-3" d="M70.13,207.33c0-3.14,1.22-4.66,2.9-4.66s2.75,1.6,2.75,4.54c0,3.12-1.1,4.73-2.88,4.73S70.13,210.33,70.13,207.33Zm4.64-.07c0-2.24-.54-3.79-1.8-3.79-1.07,0-1.82,1.43-1.82,3.79s.66,3.86,1.78,3.86C74.26,211.12,74.77,209.39,74.77,207.26Z" transform="translate(0 -5.82)"/><path class="cls-3" d="M80.61,205.46c0,1.87-.92,2.77-2,2.77s-1.94-.87-1.94-2.65.93-2.73,2-2.73S80.61,203.83,80.61,205.46Zm-3.12.12c0,1.09.4,2,1.16,2s1.15-1,1.15-2.09-.3-2.05-1.15-2.05S77.49,204.55,77.49,205.58ZM79.15,212h-.68l5.13-9.14h.68Zm6.94-2.83c0,1.86-.92,2.76-2,2.76s-1.94-.88-1.94-2.65.93-2.75,2-2.75S86.09,207.49,86.09,209.13Zm-3.12.06c0,1.14.4,2.06,1.16,2.06s1.15-.93,1.15-2.08-.29-2.06-1.14-2.06S83,208.16,83,209.19Z" transform="translate(0 -5.82)"/><path class="cls-3" d="M88.72,210.22a15.66,15.66,0,0,1-1.21,3.17l-.72.09a19.34,19.34,0,0,0,.78-3.13Zm-1.36-3.94a.72.72,0,0,1,.71-.77.77.77,0,0,1,0,1.53A.71.71,0,0,1,87.36,206.28Z" transform="translate(0 -5.82)"/><path class="cls-3" d="M1.84,263H1l3.8-9.82h.83Z" transform="translate(0 -5.82)"/><path class="cls-3" d="M6.41,263H5.6l3.81-9.82h.82Z" transform="translate(0 -5.82)"/><path class="cls-3" d="M33.56,258.13H29.13A12.56,12.56,0,0,0,33.84,262a3.59,3.59,0,0,0-.59.7,13.72,13.72,0,0,1-4.66-4.07v4.8h-.84v-4.7a13.67,13.67,0,0,1-4.58,4,4.46,4.46,0,0,0-.59-.7,12.17,12.17,0,0,0,4.68-3.92H22.88v-.81h4.87v-2.2h-4v-.79h4v-2l1.09.06c0,.08-.08.15-.25.17v1.79h4.14v.79H28.59v2.2h5Z" transform="translate(0 -5.82)"/><path class="cls-3" d="M38.07,254.7v2.05c0,.19,0,.41,0,.61h2.2v.77H38a9.21,9.21,0,0,1-.19,1.11c.57.57,1.95,2.08,2.3,2.46l-.54.66c-.38-.53-1.34-1.65-2-2.36a6.47,6.47,0,0,1-2.44,3.28,3.32,3.32,0,0,0-.54-.58,6.16,6.16,0,0,0,2.61-4.57H34.65v-.77h2.63c0-.22,0-.42,0-.62v-2H36.23a8.76,8.76,0,0,1-1,2.08,4.55,4.55,0,0,0-.6-.42,11.19,11.19,0,0,0,1.44-4.07l1,.24c0,.08-.11.12-.25.12-.09.43-.19.86-.31,1.29H40v.76Zm2.73-1.35h4.43V263h-.81v-.85H41.59v1H40.8Zm.79,8h2.83v-7.22H41.59Z" transform="translate(0 -5.82)"/><path class="cls-3" d="M49.22,257.65v-1.57A7.91,7.91,0,0,1,47,257.94a2.82,2.82,0,0,0-.44-.62,6.16,6.16,0,0,0,2.44-2H46.64v-.69h2.58v-2.3l1,.06c0,.08-.08.15-.23.16v2.08h2.54v.69H50v.27c.49.29,1.77,1.12,2.1,1.36l-.47.59c-.29-.28-1.06-.88-1.63-1.3v1.43Zm3.35,1.88H51.49a5.38,5.38,0,0,1-.85,1.91,11,11,0,0,1,1.39.85l-.54.6a9.59,9.59,0,0,0-1.37-.88,6.71,6.71,0,0,1-3,1.43,1.94,1.94,0,0,0-.39-.68,5.9,5.9,0,0,0,2.65-1.12c-.45-.23-.92-.44-1.39-.63l-.24.43-.71-.27c.27-.44.59-1,.9-1.64H46.62v-.71h1.71c.2-.39.39-.79.54-1.15l1,.22c0,.08-.11.12-.26.11-.12.25-.25.54-.4.82h3.41Zm-4.81-6.88a6,6,0,0,1,.84,1.59l-.64.3a6.79,6.79,0,0,0-.81-1.62Zm1.05,6.88-.46.89c.54.2,1.08.43,1.59.67a4.21,4.21,0,0,0,.76-1.56Zm1.68-5.28a9.92,9.92,0,0,0,1-1.62l.84.38c0,.08-.13.09-.24.08a12.32,12.32,0,0,1-1,1.45Zm7.28,1.07H57a14.23,14.23,0,0,1-1.51,4.95,6,6,0,0,0,2.41,2.49,3.86,3.86,0,0,0-.58.69A6.64,6.64,0,0,1,55,261,7.6,7.6,0,0,1,52,263.45a3.29,3.29,0,0,0-.44-.68,6.78,6.78,0,0,0,2.95-2.53,15,15,0,0,1-1.14-3.48,8.19,8.19,0,0,1-.78,1.45,3.44,3.44,0,0,0-.61-.51,14.31,14.31,0,0,0,1.81-5.4l1,.22c0,.09-.11.14-.27.14-.12.63-.26,1.28-.43,1.91h3.62Zm-3.83,0,0,.12A16.9,16.9,0,0,0,55,259.39a13.89,13.89,0,0,0,1.14-4.07Z" transform="translate(0 -5.82)"/><path class="cls-3" d="M3,278a2.45,2.45,0,0,1,2.24-1.26c1.54,0,2.66,1.33,2.66,3.33,0,2.4-1.41,3.5-2.84,3.5a2.21,2.21,0,0,1-2-1H3v3.58H2V279c0-.85,0-1.51-.05-2.11h.9L3,278ZM3,280.82a1.84,1.84,0,0,0,1.84,1.94c1.28,0,2-1.1,2-2.66,0-1.36-.68-2.56-1.95-2.56a2,2,0,0,0-1.88,2Z" transform="translate(0 -5.82)"/><path class="cls-3" d="M14.92,280.1c0,2.43-1.6,3.46-3.05,3.46-1.68,0-3-1.25-3-3.37s1.39-3.46,3.06-3.46S14.92,278.1,14.92,280.1Zm-3-2.59c-1.41,0-2,1.39-2,2.65,0,1.45.8,2.63,2,2.63s2-1.18,2-2.65C13.9,279,13.34,277.51,11.91,277.51Z" transform="translate(0 -5.82)"/><path class="cls-3" d="M16.7,275.7l1-.34v1.53h1.69v.77H17.69v3.78c0,.83.25,1.29.88,1.29a2,2,0,0,0,.68-.1l.06.77a2.72,2.72,0,0,1-1,.15c-1.58,0-1.63-1.44-1.63-2.13v-3.76h-1v-.77h1Z" transform="translate(0 -5.82)"/><path class="cls-3" d="M25.32,283.15a4.81,4.81,0,0,1-2.05.4,3,3,0,0,1-3.05-3.29c0-2.06,1.15-3.53,2.91-3.53,2,0,2.53,1.85,2.53,3,0,.22,0,.39,0,.55H21.19c0,1.81,1,2.49,2.22,2.49a4.2,4.2,0,0,0,1.71-.33Zm-.64-3.63c0-.88-.36-2-1.64-2s-1.73,1.14-1.83,2Z" transform="translate(0 -5.82)"/><path class="cls-3" d="M32.38,283.42h-1v-3.86c0-1.07-.39-2-1.52-2a1.78,1.78,0,0,0-1.72,1.86v4h-1v-4.86c0-.67,0-1.16,0-1.69H28l.06,1.07h0a2.34,2.34,0,0,1,2.1-1.21c.81,0,2.2.49,2.2,2.71Z" transform="translate(0 -5.82)"/><path class="cls-3" d="M34.58,275.7l1-.34v1.53h1.69v.77H35.57v3.78c0,.83.25,1.29.88,1.29a2,2,0,0,0,.68-.1l.06.77a2.72,2.72,0,0,1-1,.15c-1.58,0-1.63-1.44-1.63-2.13v-3.76h-1v-.77h1Z" transform="translate(0 -5.82)"/><path class="cls-3" d="M39.06,275.73a.64.64,0,0,1-.65-.68.66.66,0,0,1,.66-.67.68.68,0,0,1,0,1.35Zm.5,7.69h-1v-6.53h1Z" transform="translate(0 -5.82)"/><path class="cls-3" d="M45.82,281.86a9.52,9.52,0,0,0,.1,1.56H45l-.1-.84h0a2.27,2.27,0,0,1-1.93,1A1.81,1.81,0,0,1,41,281.71c0-1.57,1.37-2.43,3.79-2.41,0-.56,0-1.8-1.49-1.8a2.82,2.82,0,0,0-1.59.46l-.24-.68a3.68,3.68,0,0,1,2-.55c1.84,0,2.32,1.31,2.32,2.6Zm-1-1.83c-1.23,0-2.78.18-2.78,1.56a1.09,1.09,0,0,0,1.13,1.21,1.6,1.6,0,0,0,1.65-1.54Z" transform="translate(0 -5.82)"/><path class="cls-3" d="M48.74,283.42h-1v-9.59h1Z" transform="translate(0 -5.82)"/><path class="cls-3" d="M53.25,277.9a.71.71,0,1,1,.71.77A.72.72,0,0,1,53.25,277.9Zm0,4.91a.71.71,0,1,1,1.42,0,.71.71,0,1,1-1.42,0Z" transform="translate(0 -5.82)"/><path class="cls-3" d="M64.33,284.6h-.75v-1.39a3.75,3.75,0,0,1-1.95-.6l.3-.76a3.28,3.28,0,0,0,1.81.59A1.48,1.48,0,0,0,65.36,281c0-.81-.5-1.33-1.56-1.8-1.22-.55-2.06-1.16-2.06-2.33a2.19,2.19,0,0,1,1.93-2.17v-1.39h.74v1.36a3.18,3.18,0,0,1,1.66.48l-.3.73a3.28,3.28,0,0,0-1.6-.46,1.36,1.36,0,0,0-1.46,1.32c0,.78.54,1.17,1.62,1.67,1.31.6,2,1.26,2,2.48a2.29,2.29,0,0,1-2,2.32Z" transform="translate(0 -5.82)"/><path class="cls-3" d="M74.67,279.75c0,2.75-1.42,3.81-3.24,3.81s-3.06-1-3.06-3.75v-5.52h1v5.53c0,2.08.91,2.92,2.11,2.92s2.19-.89,2.19-2.92v-5.53h1Z" transform="translate(0 -5.82)"/><path class="cls-3" d="M81.91,283.42h-1v-3.86c0-1.07-.38-2-1.52-2a1.79,1.79,0,0,0-1.72,1.86v4h-1v-4.86c0-.67,0-1.16-.05-1.69h.89l.06,1.07h0a2.34,2.34,0,0,1,2.1-1.21c.82,0,2.21.49,2.21,2.71Z" transform="translate(0 -5.82)"/><path class="cls-3" d="M88.91,283.42H87.69l-2.25-3.23-.6.69v2.54h-1v-9.59h1v6.1h0c.16-.23.38-.51.56-.73l2-2.31h1.2l-2.46,2.69Z" transform="translate(0 -5.82)"/><path class="cls-3" d="M95,283.42H94v-3.86c0-1.07-.39-2-1.52-2a1.78,1.78,0,0,0-1.72,1.86v4h-1v-4.86c0-.67,0-1.16,0-1.69h.89l0,1.07h0a2.34,2.34,0,0,1,2.1-1.21c.81,0,2.2.49,2.2,2.71Z" transform="translate(0 -5.82)"/><path class="cls-3" d="M102.52,280.1c0,2.43-1.6,3.46-3.06,3.46-1.68,0-3-1.25-3-3.37s1.39-3.46,3.06-3.46S102.52,278.1,102.52,280.1Zm-3-2.59c-1.41,0-2,1.39-2,2.65,0,1.45.8,2.63,2,2.63s2-1.18,2-2.65C101.5,279,100.94,277.51,99.51,277.51Z" transform="translate(0 -5.82)"/><path class="cls-3" d="M112.43,276.87l-2.07,6.55h-.89l-1-3.28a21.59,21.59,0,0,1-.58-2.16h0a17.66,17.66,0,0,1-.6,2.17l-1.09,3.27h-.9l-1.93-6.55h1l.91,3.43c.18.73.36,1.41.49,2.08h0c.14-.65.36-1.36.57-2.07l1.09-3.44h.87l1,3.39c.23.76.42,1.46.58,2.12h0c.12-.65.3-1.33.52-2.11l1-3.4Z" transform="translate(0 -5.82)"/><path class="cls-3" d="M118.87,283.42h-1v-3.86c0-1.07-.38-2-1.52-2a1.79,1.79,0,0,0-1.72,1.86v4h-1v-4.86c0-.67,0-1.16,0-1.69h.89l.06,1.07h0a2.34,2.34,0,0,1,2.1-1.21c.81,0,2.21.49,2.21,2.71Z" transform="translate(0 -5.82)"/><path class="cls-3" d="M122,281.85A17.23,17.23,0,0,1,120.8,285l-.72.09a20.44,20.44,0,0,0,.78-3.13Zm-1.37-4a.71.71,0,0,1,.71-.76.7.7,0,0,1,.71.76.71.71,0,0,1-.71.77A.72.72,0,0,1,120.64,277.9Z" transform="translate(0 -5.82)"/><path class="cls-3" d="M.8,334.59H0l3.8-9.82h.83Z" transform="translate(0 -5.82)"/><path class="cls-3" d="M5.38,334.59H4.57l3.8-9.82H9.2Z" transform="translate(0 -5.82)"/><path class="cls-3" d="M29.32,327.86a3.45,3.45,0,0,1-.12.46c2.11.37,2.89,1.69,2.89,3.1,0,1.91-1.63,3.06-4.63,3.4a3.71,3.71,0,0,0-.32-.72c2.48-.24,4.08-1.11,4.08-2.65v-.09a2.38,2.38,0,0,0-2.28-2.29,9.44,9.44,0,0,1-2.39,3.53,3,3,0,0,0,.31.65l-.7.44a2.79,2.79,0,0,1-.29-.6,3.88,3.88,0,0,1-2.27.9,1.43,1.43,0,0,1-1.45-1.59c0-1.66,1.37-3,3.11-3.67,0-.63,0-1.31,0-2-2,0-2.25,0-2.64,0l0-.79c.61,0,1.66,0,2.69,0,0-.55,0-1.22.06-1.79l1.2.09c0,.12-.13.21-.31.24,0,.44-.06,1-.1,1.44a27,27,0,0,0,4.81-.51l.11.82a29.79,29.79,0,0,1-5,.47c0,.62,0,1.22,0,1.78a6.32,6.32,0,0,1,1.8-.27h.49a5.59,5.59,0,0,0,.12-.56Zm-3.68,4.48a14.49,14.49,0,0,1-.35-2.81A3.36,3.36,0,0,0,23,332.26c0,.71.39.95.82.93A3.34,3.34,0,0,0,25.64,332.34ZM28.1,329a5.45,5.45,0,0,0-2,.28,11.86,11.86,0,0,0,.28,2.47A7.8,7.8,0,0,0,28.1,329Z" transform="translate(0 -5.82)"/><path class="cls-3" d="M41,326.55a15.24,15.24,0,0,1-3.68.69,31.89,31.89,0,0,1-2.2,7.49l-.86-.32a25.8,25.8,0,0,0,2.17-7.14c-.24,0-1.85,0-2.21,0v-.82h2.34c.12-.77.24-1.61.31-2.34l1.24.12a.36.36,0,0,1-.35.24c-.07.53-.19,1.18-.3,1.91a14.1,14.1,0,0,0,3.36-.67Zm3.2,7.93c-.47,0-1,.06-1.46.06a10.6,10.6,0,0,1-2.5-.24,1.66,1.66,0,0,1-1.33-1.65,2.85,2.85,0,0,1,.75-1.74l.72.31a2.22,2.22,0,0,0-.63,1.33c0,.95.91,1.16,2.87,1.16a15.58,15.58,0,0,0,1.56-.07Zm-4.69-5.72a14.41,14.41,0,0,1,4.36-.61V329a13.51,13.51,0,0,0-4.15.53Zm2.11-4.16a8.94,8.94,0,0,1,1.67,1.63l-.44.38A9,9,0,0,0,41.23,325Zm1.55-.79a8,8,0,0,1,1.66,1.62l-.45.38a8.82,8.82,0,0,0-1.61-1.63Z" transform="translate(0 -5.82)"/><path class="cls-3" d="M55.85,330v5.14H55v-.5H49.86v.48h-.79v-4a15.07,15.07,0,0,1-3.1,1.42,2.76,2.76,0,0,0-.45-.71,13.71,13.71,0,0,0,4.56-2.39,12.07,12.07,0,0,0-1.94-1.69l.6-.49a11.67,11.67,0,0,1,2,1.64,10.15,10.15,0,0,0,2.34-3H49.25a13.77,13.77,0,0,1-3.09,2.61,2.58,2.58,0,0,0-.57-.62,10.75,10.75,0,0,0,4.06-4l1.08.18c0,.1-.11.16-.26.16a9.62,9.62,0,0,1-.64.92h3.7l.14,0,.59.32a.44.44,0,0,1-.16.1A11.44,11.44,0,0,1,50.72,330Zm-6,3.9H55v-3.16H49.86Z" transform="translate(0 -5.82)"/><path class="cls-3" d="M63.29,334.05V326h0l-1.47.85-.24-.74,1.86-1h.85v9Z" transform="translate(0 -5.82)"/><path class="cls-3" d="M2.11,355.05h-1v-5.76H.22v-.78h.9v-.39a2.52,2.52,0,0,1,2.68-2.81,3.08,3.08,0,0,1,1.56.42l-.3.77a2.46,2.46,0,0,0-1.33-.37c-1.62,0-1.62,1.45-1.62,2.38H5.77v6.54h-1v-5.76H2.11Z" transform="translate(0 -5.82)"/><path class="cls-3" d="M10.73,349.35l-.36,0c-1.08,0-1.64,1.07-1.64,2.17v3.55h-1v-4.58c0-.7,0-1.33,0-2h.88l0,1.26h0a2,2,0,0,1,1.78-1.4,1.65,1.65,0,0,1,.3,0Z" transform="translate(0 -5.82)"/><path class="cls-3" d="M15,349.51a2.3,2.3,0,0,0-1.27-.38,1,1,0,0,0-1.11,1c0,.56.38.82,1.22,1.18,1.05.44,1.66,1,1.66,2,0,1.16-.88,1.93-2.31,1.93a3.53,3.53,0,0,1-1.72-.44l.28-.77a3.15,3.15,0,0,0,1.47.44c.88,0,1.31-.46,1.31-1.05s-.35-.95-1.21-1.3c-1.1-.44-1.67-1.05-1.67-1.84a1.94,1.94,0,0,1,2.14-1.86,3,3,0,0,1,1.5.39Z" transform="translate(0 -5.82)"/><path class="cls-3" d="M17.24,347.33l1-.34v1.52h1.69v.78H18.23v3.78c0,.83.25,1.29.88,1.29a2,2,0,0,0,.68-.1l.06.77a2.72,2.72,0,0,1-1,.15c-1.58,0-1.63-1.44-1.63-2.13v-3.76h-1v-.78h1Z" transform="translate(0 -5.82)"/><path class="cls-3" d="M20.65,351h3.28v.77H20.65Z" transform="translate(0 -5.82)"/><path class="cls-3" d="M30.55,355.05h-1v-3.86c0-1.07-.38-2-1.52-2A1.78,1.78,0,0,0,26.31,351v4h-1v-4.86c0-.67,0-1.16-.05-1.69h.89l.06,1.07h0a2.33,2.33,0,0,1,2.1-1.21c.82,0,2.21.49,2.21,2.71Z" transform="translate(0 -5.82)"/><path class="cls-3" d="M33,347.36a.64.64,0,0,1-.64-.68A.65.65,0,0,1,33,346a.68.68,0,0,1,0,1.35Zm.51,7.69h-1v-6.54h1Z" transform="translate(0 -5.82)"/><path class="cls-3" d="M39.87,354.81a4.22,4.22,0,0,1-1.77.37A3,3,0,0,1,35,351.85a3.27,3.27,0,0,1,3.35-3.49,3.48,3.48,0,0,1,1.57.35l-.25.8a2.63,2.63,0,0,0-1.35-.34,2.35,2.35,0,0,0-2.3,2.62,2.31,2.31,0,0,0,2.27,2.58,3.17,3.17,0,0,0,1.41-.33Z" transform="translate(0 -5.82)"/><path class="cls-3" d="M46.34,355.05H45.12l-2.26-3.23-.6.69v2.54h-1v-9.59h1v6.1h0a7.85,7.85,0,0,1,.56-.73l1.95-2.32H46l-2.46,2.7Z" transform="translate(0 -5.82)"/><path class="cls-3" d="M52.46,355.05h-1v-3.86c0-1.07-.38-2-1.52-2A1.77,1.77,0,0,0,48.23,351v4h-1v-4.86c0-.67,0-1.16,0-1.69h.89l.06,1.07h0a2.33,2.33,0,0,1,2.1-1.21c.82,0,2.21.49,2.21,2.71Z" transform="translate(0 -5.82)"/><path class="cls-3" d="M58.68,353.49a9.64,9.64,0,0,0,.09,1.56h-.91l-.1-.84h0a2.27,2.27,0,0,1-1.93,1,1.81,1.81,0,0,1-1.91-1.85c0-1.58,1.37-2.43,3.79-2.42,0-.55,0-1.79-1.49-1.79a2.82,2.82,0,0,0-1.59.46l-.24-.68a3.71,3.71,0,0,1,2-.55c1.85,0,2.33,1.31,2.33,2.6Zm-1-1.83c-1.23,0-2.78.18-2.78,1.56A1.09,1.09,0,0,0,56,354.43a1.6,1.6,0,0,0,1.65-1.54Z" transform="translate(0 -5.82)"/><path class="cls-3" d="M69.5,355.05h-1v-3.78c0-1.27-.45-2.08-1.44-2.08a1.66,1.66,0,0,0-1.53,1.75v4.11h-1v-4c0-1-.45-1.83-1.37-1.83A1.77,1.77,0,0,0,61.58,351v4h-1v-4.86c0-.67,0-1.15-.05-1.69h.88l.06,1.06h0a2.17,2.17,0,0,1,2-1.2,1.88,1.88,0,0,1,1.79,1.31h0a2.29,2.29,0,0,1,2.1-1.31c.81,0,2.08.51,2.08,2.76Z" transform="translate(0 -5.82)"/><path class="cls-3" d="M76.06,354.77a4.7,4.7,0,0,1-2,.41,3,3,0,0,1-3-3.3c0-2.05,1.15-3.52,2.91-3.52,2,0,2.53,1.84,2.53,3,0,.23,0,.4,0,.56H71.94c0,1.81,1,2.49,2.22,2.49a4.28,4.28,0,0,0,1.71-.33Zm-.63-3.62c0-.88-.36-2-1.65-2s-1.72,1.14-1.82,2Z" transform="translate(0 -5.82)"/><path class="cls-3" d="M80.43,349.53a.71.71,0,1,1,.71.77A.72.72,0,0,1,80.43,349.53Zm0,4.91a.71.71,0,1,1,.71.75A.71.71,0,0,1,80.43,354.44Z" transform="translate(0 -5.82)"/><path class="cls-3" d="M91.51,356.23h-.75v-1.4a3.57,3.57,0,0,1-2-.6l.3-.75a3.28,3.28,0,0,0,1.81.59,1.48,1.48,0,0,0,1.62-1.49c0-.82-.5-1.33-1.56-1.8-1.22-.55-2.06-1.16-2.06-2.33a2.18,2.18,0,0,1,1.93-2.17v-1.39h.74v1.36a3.18,3.18,0,0,1,1.66.48l-.3.73a3.28,3.28,0,0,0-1.6-.46,1.36,1.36,0,0,0-1.46,1.32c0,.78.54,1.17,1.62,1.67,1.31.6,2,1.26,2,2.48a2.3,2.3,0,0,1-2,2.32Z" transform="translate(0 -5.82)"/><path class="cls-3" d="M99.8,353.49a8.59,8.59,0,0,0,.1,1.56H99l-.09-.84h0a2.26,2.26,0,0,1-1.93,1A1.81,1.81,0,0,1,95,353.34c0-1.58,1.37-2.43,3.79-2.42,0-.55,0-1.79-1.48-1.79a2.85,2.85,0,0,0-1.6.46l-.24-.68a3.71,3.71,0,0,1,2-.55c1.85,0,2.33,1.31,2.33,2.6Zm-1-1.83c-1.24,0-2.79.18-2.79,1.56a1.09,1.09,0,0,0,1.13,1.21,1.61,1.61,0,0,0,1.66-1.54Z" transform="translate(0 -5.82)"/><path class="cls-3" d="M110.12,348.5,108,355.05h-.89l-1-3.29a18.43,18.43,0,0,1-.57-2.15h0a16,16,0,0,1-.6,2.17l-1.09,3.27h-.9L101,348.5h1l.91,3.43c.18.73.36,1.41.49,2.08h0c.14-.65.36-1.36.58-2.07l1.09-3.44H106l1.05,3.38c.22.77.42,1.47.57,2.13h0c.12-.65.3-1.33.51-2.11l1-3.4Z" transform="translate(0 -5.82)"/><path class="cls-3" d="M115.6,353.49a9.59,9.59,0,0,0,.1,1.56h-.91l-.1-.84h0a2.27,2.27,0,0,1-1.94,1,1.81,1.81,0,0,1-1.9-1.85c0-1.58,1.36-2.43,3.79-2.42,0-.55,0-1.79-1.49-1.79a2.82,2.82,0,0,0-1.59.46l-.24-.68a3.66,3.66,0,0,1,2-.55c1.84,0,2.32,1.31,2.32,2.6Zm-1-1.83c-1.24,0-2.78.18-2.78,1.56a1.09,1.09,0,0,0,1.12,1.21,1.6,1.6,0,0,0,1.66-1.54Z" transform="translate(0 -5.82)"/><path class="cls-3" d="M122.6,355.05h-1.22l-2.26-3.23-.6.69v2.54h-1v-9.59h1v6.1h0c.16-.23.39-.52.57-.73l2-2.32h1.2l-2.46,2.7Z" transform="translate(0 -5.82)"/><path class="cls-3" d="M128.12,354.77a4.74,4.74,0,0,1-2.05.41,3,3,0,0,1-3-3.3c0-2.05,1.15-3.52,2.92-3.52,2,0,2.53,1.84,2.53,3a4.39,4.39,0,0,1,0,.56H124c0,1.81,1.05,2.49,2.22,2.49a4.3,4.3,0,0,0,1.72-.33Zm-.64-3.62c0-.88-.36-2-1.64-2s-1.73,1.14-1.82,2Z" transform="translate(0 -5.82)"/><path class="cls-3" d="M135.19,355.05h-1v-3.86c0-1.07-.38-2-1.52-2A1.78,1.78,0,0,0,131,351v4h-1v-4.86c0-.67,0-1.16-.05-1.69h.89l.06,1.07h0a2.32,2.32,0,0,1,2.1-1.21c.81,0,2.21.49,2.21,2.71Z" transform="translate(0 -5.82)"/><path class="cls-3" d="M138.33,353.48a16.54,16.54,0,0,1-1.21,3.17l-.72.09a19.34,19.34,0,0,0,.78-3.13Zm-1.37-4a.71.71,0,0,1,.71-.76.7.7,0,0,1,.71.76.71.71,0,0,1-.71.77A.72.72,0,0,1,137,349.53Z" transform="translate(0 -5.82)"/><path class="cls-3" d="M2.77,406.22H2l3.8-9.82H6.6Z" transform="translate(0 -5.82)"/><path class="cls-3" d="M7.34,406.22h-.8l3.8-9.82h.83Z" transform="translate(0 -5.82)"/><path class="cls-3" d="M31.29,399.49c0,.16-.07.31-.12.46,2.11.37,2.89,1.69,2.89,3.1,0,1.91-1.63,3.06-4.63,3.4a4.43,4.43,0,0,0-.32-.72c2.48-.24,4.08-1.11,4.08-2.65V403a2.38,2.38,0,0,0-2.28-2.29,9.44,9.44,0,0,1-2.39,3.53,2.62,2.62,0,0,0,.31.65l-.71.44a3.36,3.36,0,0,1-.28-.6,3.88,3.88,0,0,1-2.27.9,1.43,1.43,0,0,1-1.45-1.6c0-1.65,1.37-3,3.11-3.67,0-.62,0-1.3,0-2-2,0-2.24,0-2.64,0l0-.79c.61,0,1.66,0,2.69,0,0-.55,0-1.22.06-1.79l1.2.09c0,.12-.14.21-.32.24,0,.44-.06,1-.09,1.44A28,28,0,0,0,32.9,397l.11.82a28.86,28.86,0,0,1-5,.46c0,.63,0,1.23,0,1.79a6.28,6.28,0,0,1,1.8-.27h.49c.05-.19.08-.37.12-.57ZM27.61,404a14.27,14.27,0,0,1-.35-2.8,3.35,3.35,0,0,0-2.33,2.73c0,.71.4.95.83.93A3.32,3.32,0,0,0,27.61,404Zm2.46-3.37a5.78,5.78,0,0,0-2,.29,11.22,11.22,0,0,0,.28,2.47A7.9,7.9,0,0,0,30.07,400.59Z" transform="translate(0 -5.82)"/><path class="cls-3" d="M43,398.18a15.24,15.24,0,0,1-3.68.69,31.89,31.89,0,0,1-2.2,7.49l-.86-.32a25.8,25.8,0,0,0,2.17-7.14c-.24,0-1.85,0-2.21,0v-.81h2.34c.12-.77.24-1.61.31-2.34l1.23.12c0,.13-.18.23-.34.24-.08.53-.2,1.18-.3,1.91a13.91,13.91,0,0,0,3.35-.67Zm3.2,7.93c-.47,0-1,.06-1.46.06a10.54,10.54,0,0,1-2.5-.24,1.66,1.66,0,0,1-1.33-1.65,2.89,2.89,0,0,1,.74-1.74l.72.31a2.19,2.19,0,0,0-.62,1.33c0,.95.91,1.16,2.87,1.16.52,0,1.08,0,1.56-.07Zm-4.69-5.72a14,14,0,0,1,4.35-.61v.81a13.91,13.91,0,0,0-4.15.54Zm2.11-4.16a8.94,8.94,0,0,1,1.67,1.63l-.45.38a8.11,8.11,0,0,0-1.62-1.64Zm1.55-.79a7.94,7.94,0,0,1,1.65,1.62l-.44.38a9.14,9.14,0,0,0-1.61-1.63Z" transform="translate(0 -5.82)"/><path class="cls-3" d="M57.82,401.58v5.14H57v-.5H51.82v.48H51v-4a14.76,14.76,0,0,1-3.09,1.42,2.63,2.63,0,0,0-.46-.71,13.66,13.66,0,0,0,4.57-2.39,12.51,12.51,0,0,0-1.94-1.69l.6-.49a11.59,11.59,0,0,1,2,1.64,10.32,10.32,0,0,0,2.34-3H51.21a13.21,13.21,0,0,1-3.08,2.6,2.54,2.54,0,0,0-.57-.61,10.82,10.82,0,0,0,4.06-4l1.08.18c0,.1-.11.16-.26.16a9.62,9.62,0,0,1-.64.92h3.69l.15,0,.59.31a.36.36,0,0,1-.16.11,11.44,11.44,0,0,1-3.38,4.43Zm-6,3.9H57v-3.16H51.82Z" transform="translate(0 -5.82)"/><path class="cls-3" d="M68,405.68H62.72v-.61l.88-.93c2.13-2.16,3.21-3.46,3.21-4.93a1.62,1.62,0,0,0-1.71-1.84,3,3,0,0,0-1.8.74l-.34-.69a3.48,3.48,0,0,1,2.33-.88,2.4,2.4,0,0,1,2.53,2.56c0,1.69-1.19,3.13-3,5l-.7.74v0h4Z" transform="translate(0 -5.82)"/><path class="cls-3" d="M6,421.14a2.29,2.29,0,0,0-1.27-.39,1,1,0,0,0-1.1,1c0,.56.37.82,1.21,1.18,1.06.44,1.67,1,1.67,2,0,1.16-.89,1.93-2.32,1.93a3.46,3.46,0,0,1-1.71-.44l.27-.77a3.15,3.15,0,0,0,1.48.44c.87,0,1.31-.46,1.31-1.05s-.35-.95-1.22-1.3c-1.1-.44-1.66-1.05-1.66-1.84A1.93,1.93,0,0,1,4.82,420a3,3,0,0,1,1.5.39Z" transform="translate(0 -5.82)"/><path class="cls-3" d="M12.69,426.4a4.7,4.7,0,0,1-2,.41c-1.91,0-3-1.34-3-3.3S8.75,420,10.51,420c2,0,2.53,1.84,2.53,3,0,.23,0,.4,0,.55H8.57c0,1.82,1,2.5,2.22,2.5a4.09,4.09,0,0,0,1.71-.34Zm-.63-3.62c0-.89-.36-2-1.65-2s-1.72,1.14-1.82,2Z" transform="translate(0 -5.82)"/><path class="cls-3" d="M18.94,426.44a4.18,4.18,0,0,1-1.77.37,3,3,0,0,1-3.11-3.33A3.27,3.27,0,0,1,17.41,420a3.65,3.65,0,0,1,1.57.34l-.25.81a2.62,2.62,0,0,0-1.34-.34,2.35,2.35,0,0,0-2.31,2.62A2.31,2.31,0,0,0,17.35,426a3.13,3.13,0,0,0,1.41-.33Z" transform="translate(0 -5.82)"/><path class="cls-3" d="M25.89,423.36c0,2.43-1.61,3.46-3.06,3.46-1.68,0-3-1.26-3-3.37S21.25,420,22.92,420,25.89,421.35,25.89,423.36Zm-3-2.59c-1.41,0-2,1.39-2,2.65,0,1.45.8,2.62,2,2.62s2-1.17,2-2.65C24.87,422.23,24.31,420.77,22.88,420.77Z" transform="translate(0 -5.82)"/><path class="cls-3" d="M32.64,426.68h-1v-3.86c0-1.07-.38-2-1.52-2a1.79,1.79,0,0,0-1.72,1.86v4h-1v-4.86c0-.67,0-1.16-.05-1.69h.89l.06,1.07h0a2.32,2.32,0,0,1,2.1-1.21c.81,0,2.21.49,2.21,2.71Z" transform="translate(0 -5.82)"/><path class="cls-3" d="M39.85,425.06c0,.53,0,1.18,0,1.62H39l0-1.12h0a2.29,2.29,0,0,1-2.13,1.26c-1.51,0-2.69-1.3-2.69-3.32,0-2.21,1.3-3.5,2.82-3.5a2.1,2.1,0,0,1,1.91,1h0v-3.93h1Zm-1-2.3a1.81,1.81,0,0,0-1.76-2c-1.24,0-2,1.15-2,2.65s.65,2.56,1.93,2.56a1.88,1.88,0,0,0,1.8-2Z" transform="translate(0 -5.82)"/><path class="cls-3" d="M41.24,422.64h3.28v.76H41.24Z" transform="translate(0 -5.82)"/><path class="cls-3" d="M51.14,426.68h-1v-3.86c0-1.07-.38-2-1.52-2a1.78,1.78,0,0,0-1.71,1.86v4h-1v-4.86c0-.67,0-1.16,0-1.69h.89l.06,1.07h0a2.33,2.33,0,0,1,2.1-1.21c.82,0,2.21.49,2.21,2.71Z" transform="translate(0 -5.82)"/><path class="cls-3" d="M53.57,419a.68.68,0,1,1,.66-.68A.64.64,0,0,1,53.57,419Zm.5,7.69h-1v-6.54h1Z" transform="translate(0 -5.82)"/><path class="cls-3" d="M60.46,426.44a4.18,4.18,0,0,1-1.77.37,3,3,0,0,1-3.11-3.33A3.27,3.27,0,0,1,58.93,420a3.65,3.65,0,0,1,1.57.34l-.25.81a2.63,2.63,0,0,0-1.35-.34,2.35,2.35,0,0,0-2.3,2.62A2.31,2.31,0,0,0,58.87,426a3.13,3.13,0,0,0,1.41-.33Z" transform="translate(0 -5.82)"/><path class="cls-3" d="M66.93,426.68H65.71l-2.26-3.23-.6.69v2.54h-1v-9.6h1v6.11h0a7.85,7.85,0,0,1,.56-.73l2-2.32h1.2l-2.46,2.7Z" transform="translate(0 -5.82)"/><path class="cls-3" d="M73.05,426.68h-1v-3.86c0-1.07-.39-2-1.53-2a1.78,1.78,0,0,0-1.71,1.86v4h-1v-4.86c0-.67,0-1.16,0-1.69h.89l.06,1.07h0A2.3,2.3,0,0,1,70.84,420c.82,0,2.21.49,2.21,2.71Z" transform="translate(0 -5.82)"/><path class="cls-3" d="M79.27,425.12a9.64,9.64,0,0,0,.09,1.56h-.91l-.09-.84h0a2.27,2.27,0,0,1-1.93,1A1.81,1.81,0,0,1,74.48,425c0-1.57,1.37-2.42,3.79-2.41,0-.55,0-1.8-1.49-1.8a2.83,2.83,0,0,0-1.59.47l-.24-.68a3.71,3.71,0,0,1,2-.55c1.85,0,2.33,1.3,2.33,2.6Zm-1-1.84c-1.23,0-2.78.19-2.78,1.56a1.1,1.1,0,0,0,1.13,1.22,1.6,1.6,0,0,0,1.65-1.54Z" transform="translate(0 -5.82)"/><path class="cls-3" d="M90.09,426.68h-1V422.9c0-1.27-.46-2.09-1.44-2.09a1.67,1.67,0,0,0-1.54,1.76v4.11h-1v-4c0-1-.45-1.84-1.37-1.84a1.78,1.78,0,0,0-1.61,1.86v4h-1v-4.86c0-.67,0-1.15,0-1.69H82l.06,1.06h0a2.17,2.17,0,0,1,2-1.2,1.85,1.85,0,0,1,1.79,1.3h0A2.28,2.28,0,0,1,88,420c.81,0,2.08.51,2.08,2.76Z" transform="translate(0 -5.82)"/><path class="cls-3" d="M96.66,426.4a4.8,4.8,0,0,1-2.06.41,3,3,0,0,1-3-3.3c0-2.05,1.15-3.52,2.91-3.52,2,0,2.53,1.84,2.53,3,0,.23,0,.4,0,.55H92.53c0,1.82,1,2.5,2.22,2.5a4.05,4.05,0,0,0,1.71-.34ZM96,422.78c0-.89-.36-2-1.64-2s-1.73,1.14-1.83,2Z" transform="translate(0 -5.82)"/><path class="cls-3" d="M101,421.16a.71.71,0,1,1,1.41,0,.71.71,0,1,1-1.41,0Zm0,4.91a.71.71,0,1,1,.7.75A.7.7,0,0,1,101,426.07Z" transform="translate(0 -5.82)"/><path class="cls-3" d="M112.1,427.86h-.74v-1.4a3.58,3.58,0,0,1-2-.6l.3-.75a3.31,3.31,0,0,0,1.81.59,1.48,1.48,0,0,0,1.62-1.49c0-.82-.5-1.33-1.56-1.8-1.22-.55-2.06-1.16-2.06-2.33a2.19,2.19,0,0,1,1.93-2.17v-1.39h.74v1.36a3.18,3.18,0,0,1,1.66.48l-.3.73a3.28,3.28,0,0,0-1.6-.46,1.36,1.36,0,0,0-1.46,1.32c0,.78.54,1.16,1.62,1.67,1.31.6,2,1.26,2,2.48a2.3,2.3,0,0,1-2,2.32Z" transform="translate(0 -5.82)"/><path class="cls-3" d="M121.34,426.68h-1v-3.86c0-1.07-.38-2-1.52-2a1.79,1.79,0,0,0-1.72,1.86v4h-1v-4.86c0-.67,0-1.16,0-1.69H117l.06,1.07h0a2.33,2.33,0,0,1,2.1-1.21c.82,0,2.21.49,2.21,2.71Z" transform="translate(0 -5.82)"/><path class="cls-3" d="M127.9,426.4a4.7,4.7,0,0,1-2.05.41,3,3,0,0,1-3-3.3c0-2.05,1.15-3.52,2.91-3.52,2,0,2.53,1.84,2.53,3,0,.23,0,.4,0,.55h-4.45c0,1.82,1,2.5,2.22,2.5a4.09,4.09,0,0,0,1.71-.34Zm-.63-3.62c0-.89-.36-2-1.65-2s-1.72,1.14-1.82,2Z" transform="translate(0 -5.82)"/><path class="cls-3" d="M135.05,420.13c0,.47-.06,1-.06,1.8v3.81c0,1.14,0,3.76-3.11,3.76a3.85,3.85,0,0,1-2-.52l.26-.78a3.59,3.59,0,0,0,1.83.49c1.2,0,2.08-.63,2.08-2.36v-.78h0a2.23,2.23,0,0,1-2,1.12c-1.56,0-2.68-1.38-2.68-3.22,0-2.26,1.42-3.46,2.83-3.46a2.1,2.1,0,0,1,2,1.12h0l0-1ZM134,422.65a1.76,1.76,0,0,0-1.74-1.86c-1.15,0-2,1-2,2.6,0,1.39.67,2.49,2,2.49A1.8,1.8,0,0,0,134,424Z" transform="translate(0 -5.82)"/><path class="cls-3" d="M137.46,419a.68.68,0,1,1,.66-.68A.64.64,0,0,1,137.46,419Zm.5,7.69h-1v-6.54h1Z" transform="translate(0 -5.82)"/><path class="cls-3" d="M141.15,425.11a16.82,16.82,0,0,1-1.21,3.16l-.72.1a20.44,20.44,0,0,0,.78-3.13Zm-1.37-3.95a.71.71,0,0,1,.71-.76.7.7,0,0,1,.71.76.71.71,0,1,1-1.42,0Z" transform="translate(0 -5.82)"/><path class="cls-3" d="M.83,48.07H0l3.81-9.82h.82Z" transform="translate(0 -5.82)"/><path class="cls-3" d="M5.4,48.07H4.6l3.8-9.82h.83Z" transform="translate(0 -5.82)"/><path class="cls-3" d="M33.31,42.9a11.36,11.36,0,0,0,1.24-1.53l.91.5a.37.37,0,0,1-.32.08A13.36,13.36,0,0,1,33.31,44v3.36c0,.61-.15.89-.58,1a9.52,9.52,0,0,1-2.49.14,3.6,3.6,0,0,0-.3-.85l1.36,0c1.15,0,1.19,0,1.19-.35V44.73A21.66,21.66,0,0,1,25,48.43a5.05,5.05,0,0,0-.49-.68A21.9,21.9,0,0,0,31,44.82c-2.27.2-4.48.38-6,.48a.19.19,0,0,1-.18.17l-.28-.95,1.91-.09V38.62H29a10.48,10.48,0,0,0,.53-1.24l1.08.25c0,.07-.11.12-.26.12-.12.25-.3.57-.48.87h3.45Zm-.82-3.56H27.3v1.2h5.19Zm0,3V41.18H27.3v1.21ZM27.3,43v1.36c1.45-.08,3.1-.19,4.72-.3.17-.13.31-.26.47-.39V43Z" transform="translate(0 -5.82)"/><path class="cls-3" d="M42.18,44a6.67,6.67,0,0,0,1.32,1.84,19.66,19.66,0,0,0,2.68-1.7l.77.55a.31.31,0,0,1-.26.06c-.7.47-1.78,1.08-2.68,1.55a8.2,8.2,0,0,0,3.59,1.57,3.45,3.45,0,0,0-.51.72A7.77,7.77,0,0,1,41.36,44H39.55v3.34c1-.16,2.17-.36,3.27-.55l0,.67c-1.91.36-4,.73-5.21.95a.21.21,0,0,1-.15.18l-.36-.88,1.58-.23V44H36.56v-.75h2.16V37.9h7.53v.7h-6.7v1.09h6.33v.67H39.55v1.09h6.33v.68H39.55v1.12h7.87V44Z" transform="translate(0 -5.82)"/><path class="cls-3" d="M51.51,40.66c0,.1-.1.15-.26.15a13.51,13.51,0,0,1-2.17,5.11,5.19,5.19,0,0,0-.76-.44,11.37,11.37,0,0,0,2.09-5Zm2.1-3.07,1.11.06c0,.1-.09.16-.26.17v9.57c0,.62-.16.88-.57,1a9.53,9.53,0,0,1-2.3.16,3.7,3.7,0,0,0-.35-.86l1.44,0c.84,0,.93,0,.93-.34Zm5.28,8.53a20,20,0,0,0-2.35-5.46l.77-.3a19.78,19.78,0,0,1,2.43,5.4Z" transform="translate(0 -5.82)"/><path class="cls-3" d="M70.83,40.17a23.36,23.36,0,0,1-4,.66c.46,1.63,1,2.6,2.26,3.17l-.59.73a4.08,4.08,0,0,0-2.67-.83l-.14-.71a12.36,12.36,0,0,1,1.33.18A6.4,6.4,0,0,1,66,40.89c-.54,0-1.27.07-2,.07s-2,0-2.82,0v-.82c.72,0,1.74,0,2.83,0,.61,0,1.31,0,1.79-.06-.15-.65-.28-1.54-.42-2.46l1.28,0c0,.15-.12.23-.31.28.07.68.19,1.44.32,2.1a20.94,20.94,0,0,0,4-.71Zm-2.15,7.89c-.57,0-1.18,0-2.23,0-2.5,0-4.28-.77-4.28-2.38a3,3,0,0,1,1.08-2l.65.51A2.13,2.13,0,0,0,63,45.7c0,1.19,1.54,1.57,3.45,1.57,1,0,1.65,0,2.26-.06Z" transform="translate(0 -5.82)"/><path class="cls-3" d="M80.74,37.94c0,.11-.15.16-.31.18a22.65,22.65,0,0,1-.49,2.33,3.73,3.73,0,0,1,3.26,3.76c0,2.14-1.62,3.5-4.65,3.94a6.42,6.42,0,0,0-.39-.74c2.65-.34,4.17-1.42,4.17-3.17a3,3,0,0,0-2.63-3,12.05,12.05,0,0,1-2.17,4.27,4.37,4.37,0,0,0,.55.59l-.61.58A7.37,7.37,0,0,1,77,46.1a3.6,3.6,0,0,1-2.43,1.11c-1.06,0-1.71-.9-1.71-2.21a4.35,4.35,0,0,1,2.12-3.68c-.23-.91-.42-1.9-.59-3l1.15,0a.3.3,0,0,1-.25.27c.12.82.25,1.63.42,2.37a6.82,6.82,0,0,1,3.13-.66h.29a24.65,24.65,0,0,0,.48-2.62ZM76.5,45.46a12.73,12.73,0,0,1-1.35-3.32,3.44,3.44,0,0,0-1.54,2.8c0,.86.32,1.47,1,1.47A2.86,2.86,0,0,0,76.5,45.46ZM77,44.8a10.57,10.57,0,0,0,1.82-3.72h-.42a5.51,5.51,0,0,0-2.6.65A11.25,11.25,0,0,0,77,44.8Z" transform="translate(0 -5.82)"/><path class="cls-3" d="M6.26,68.53h-1V64.67c0-1.06-.39-2-1.52-2A1.78,1.78,0,0,0,2,64.52v4H1V58.94H2V63h0a2.4,2.4,0,0,1,2-1.17c.8,0,2.18.49,2.18,2.71Z" transform="translate(0 -5.82)"/><path class="cls-3" d="M12.82,68.26a4.7,4.7,0,0,1-2.05.41,3,3,0,0,1-3-3.3c0-2.05,1.15-3.53,2.91-3.53,2,0,2.53,1.85,2.53,3,0,.23,0,.39,0,.55H8.7c0,1.81,1,2.5,2.22,2.5a4.05,4.05,0,0,0,1.71-.34Zm-.63-3.62c0-.89-.36-2-1.64-2s-1.73,1.14-1.83,2Z" transform="translate(0 -5.82)"/><path class="cls-3" d="M15.15,60.85a.68.68,0,0,1,0-1.36.68.68,0,0,1,0,1.36Zm.51,7.68h-1V62h1Z" transform="translate(0 -5.82)"/><path class="cls-3" d="M23,62c0,.46-.06,1-.06,1.8V67.6c0,1.14,0,3.75-3.12,3.75a4,4,0,0,1-2.05-.51l.27-.78a3.59,3.59,0,0,0,1.83.49c1.2,0,2.08-.64,2.08-2.36v-.78h0a2.22,2.22,0,0,1-2,1.11c-1.56,0-2.68-1.38-2.68-3.21,0-2.27,1.42-3.47,2.83-3.47A2.1,2.1,0,0,1,22,63h0l.05-1Zm-1.07,2.52a1.76,1.76,0,0,0-1.73-1.86c-1.16,0-2,1-2,2.6,0,1.39.67,2.48,1.94,2.48a1.78,1.78,0,0,0,1.75-1.92Z" transform="translate(0 -5.82)"/><path class="cls-3" d="M30.09,68.53h-1V64.67c0-1.06-.39-2-1.52-2a1.78,1.78,0,0,0-1.72,1.84v4h-1V58.94h1V63h0a2.4,2.4,0,0,1,2-1.17c.8,0,2.18.49,2.18,2.71Z" transform="translate(0 -5.82)"/><path class="cls-3" d="M32.29,60.81l1-.33V62H35v.78H33.27v3.78c0,.82.26,1.28.89,1.28a1.89,1.89,0,0,0,.67-.1l.06.77a2.4,2.4,0,0,1-1,.16c-1.58,0-1.63-1.44-1.63-2.14V62.78h-1V62h1Z" transform="translate(0 -5.82)"/><path class="cls-3" d="M38.81,63a.71.71,0,1,1,.7.77A.72.72,0,0,1,38.81,63Zm0,4.9a.71.71,0,1,1,1.41,0,.71.71,0,1,1-1.41,0Z" transform="translate(0 -5.82)"/><path class="cls-3" d="M46.62,68.53v-8h0l-1.47.85-.24-.74,1.86-1.05h.85v9Z" transform="translate(0 -5.82)"/><path class="cls-3" d="M51.62,63.77a2.52,2.52,0,0,1,2.1-1.1,2.57,2.57,0,0,1,2.54,2.87,2.87,2.87,0,0,1-2.76,3.14c-1.75,0-2.92-1.45-2.92-3.78s1.13-4.93,4-5.41a6.4,6.4,0,0,1,.84-.08v.82a3.78,3.78,0,0,0-3.88,3.54Zm3.64,1.84c0-1.38-.75-2.18-1.83-2.18a2,2,0,0,0-1.86,1.7c0,1.64.71,2.77,2,2.77C54.57,67.9,55.26,67,55.26,65.61Z" transform="translate(0 -5.82)"/><path class="cls-3" d="M59,63.77a2.26,2.26,0,0,1-1.41-2,2.37,2.37,0,0,1,2.55-2.34,2.2,2.2,0,0,1,2.41,2.18,2.34,2.34,0,0,1-1.48,2.12v0a2.55,2.55,0,0,1,1.79,2.35A2.63,2.63,0,0,1,60,68.68a2.5,2.5,0,0,1-2.77-2.39A2.66,2.66,0,0,1,59,63.82Zm2.84,2.45c0-1.13-.76-1.7-1.94-2.09a2.12,2.12,0,0,0-1.62,2A1.7,1.7,0,0,0,60,67.94,1.68,1.68,0,0,0,61.82,66.22Zm-3.3-4.57c0,1,.67,1.49,1.67,1.79a1.92,1.92,0,0,0,1.37-1.77,1.41,1.41,0,0,0-1.48-1.53A1.46,1.46,0,0,0,58.52,61.65Z" transform="translate(0 -5.82)"/><path class="cls-3" d="M65.25,63.1a2.43,2.43,0,0,1,2.23-1.26c1.55,0,2.67,1.33,2.67,3.34,0,2.4-1.41,3.5-2.85,3.5a2.22,2.22,0,0,1-2-1h0v3.57h-1V64.1c0-.85,0-1.51,0-2.11h.9l.06,1.11Zm.06,2.83a1.85,1.85,0,0,0,1.84,1.95c1.28,0,2-1.11,2-2.67,0-1.35-.68-2.55-2-2.55a2,2,0,0,0-1.87,2Z" transform="translate(0 -5.82)"/><path class="cls-3" d="M76.34,62l-2.16,3.16,2.22,3.37H75.26l-1-1.52c-.24-.39-.46-.75-.7-1.17h0c-.21.4-.45.76-.7,1.17l-1,1.52H70.8L73,65.2,70.91,62H72l1,1.45c.24.37.44.71.66,1.09h0c.21-.38.44-.74.66-1.09L75.25,62Z" transform="translate(0 -5.82)"/><path class="cls-3" d="M78.76,67a15.43,15.43,0,0,1-1.21,3.17l-.72.1a19.88,19.88,0,0,0,.78-3.13ZM77.4,63a.71.71,0,0,1,.7-.77.7.7,0,0,1,.71.77.71.71,0,0,1-.71.77A.72.72,0,0,1,77.4,63Z" transform="translate(0 -5.82)"/></g></g></svg>